<?xml version="1.0" standalone="no"?>
<!DOCTYPE svg PUBLIC "-//W3C//DTD SVG 20010904//EN"
 "http://www.w3.org/TR/2001/REC-SVG-20010904/DTD/svg10.dtd">
<svg version="1.0" xmlns="http://www.w3.org/2000/svg"
 width="2048.000000pt" height="2048.000000pt" viewBox="0 0 2048.000000 2048.000000"
 preserveAspectRatio="xMidYMid meet">

<g transform="translate(0.000000,2048.000000) scale(0.100000,-0.100000)"
fill="#000000" stroke="none">
<path d="M0 10240 l0 -10240 10240 0 10240 0 0 10240 0 10240 -10240 0 -10240
0 0 -10240z m12515 9974 c66 -20 170 -55 230 -76 175 -63 285 -88 445 -99 188
-13 241 -27 380 -102 162 -86 244 -171 357 -369 111 -194 164 -301 155 -309
-4 -4 -38 -4 -77 1 -209 27 -364 -4 -618 -124 -91 -42 -129 -67 -176 -113 -57
-55 -61 -62 -61 -105 0 -60 27 -93 105 -128 34 -15 77 -41 96 -57 19 -16 61
-48 94 -70 33 -23 77 -58 97 -80 48 -50 105 -146 123 -207 17 -56 10 -126 -11
-126 -8 0 -14 3 -14 8 0 19 -141 177 -232 260 -178 161 -277 212 -417 212 -85
0 -164 -36 -242 -112 -66 -63 -102 -129 -154 -283 -36 -104 -38 -118 -43 -265
-6 -199 8 -276 77 -423 28 -60 49 -113 46 -117 -16 -26 -117 -43 -299 -51
-195 -8 -340 -31 -496 -78 -90 -28 -241 -127 -282 -186 -31 -44 -35 -46 -69
-41 -74 12 -307 90 -384 129 -145 72 -284 179 -352 269 -162 216 -159 211
-177 298 -16 74 -17 96 -6 194 31 289 49 406 70 453 26 60 35 117 25 179 -6
41 -15 56 -68 108 -82 81 -152 120 -267 150 -132 35 -361 76 -424 76 -82 0
-252 -28 -345 -56 -45 -14 -85 -23 -88 -21 -21 22 175 339 332 536 33 42 73
95 89 119 16 23 70 78 120 123 117 104 241 166 406 204 63 14 135 31 160 36
87 21 204 22 346 4 76 -10 175 -18 219 -19 105 -1 125 12 170 109 29 65 41 80
102 124 40 30 79 51 94 51 69 0 208 -72 324 -168 39 -34 58 -42 88 -42 41 0
74 27 136 109 26 36 123 88 185 101 76 15 110 11 231 -26z m-2875 -762 c0 -4
-16 -31 -35 -60 -101 -149 -182 -285 -210 -353 -18 -42 -49 -102 -70 -133 -59
-89 -49 -156 25 -156 14 0 50 7 80 15 265 72 281 74 559 55 195 -13 391 -48
391 -70 0 -4 -156 -10 -347 -13 -192 -3 -391 -11 -443 -16 -52 -6 -174 -18
-270 -26 -96 -9 -204 -20 -240 -25 -368 -54 -428 -64 -599 -100 -691 -145
-1050 -257 -1658 -516 -367 -156 -610 -279 -953 -482 -710 -419 -1338 -940
-1960 -1627 -429 -475 -848 -1068 -1150 -1630 -251 -468 -420 -854 -582 -1325
-256 -748 -374 -1259 -437 -1898 l-16 -164 -206 -3 c-178 -3 -215 -7 -270 -25
-95 -32 -138 -62 -230 -158 -123 -127 -291 -411 -338 -569 -12 -40 -25 -73
-29 -73 -4 0 -21 28 -39 63 l-31 62 14 280 c31 664 74 995 218 1675 119 566
319 1186 552 1715 117 267 347 720 470 930 320 542 734 1108 1129 1540 262
287 658 665 965 920 1008 840 2227 1483 3470 1829 91 26 181 51 200 56 19 6
94 24 165 40 72 17 148 35 170 40 22 6 108 23 190 39 408 80 799 131 1155 151
107 6 218 12 245 13 28 2 65 4 83 5 17 1 32 -1 32 -6z m4337 -839 c142 -65
182 -87 173 -96 -3 -3 -63 -6 -134 -8 l-129 -4 -53 89 c-30 49 -54 91 -54 94
0 10 64 -14 197 -75z m-3488 -49 c3 -2 -7 -40 -22 -84 -34 -99 -49 -230 -51
-435 -2 -234 15 -288 152 -493 159 -238 381 -399 667 -482 61 -17 149 -47 196
-66 48 -19 113 -37 145 -40 51 -5 63 -3 87 16 15 12 39 44 52 71 14 27 36 56
50 65 24 15 29 15 70 0 85 -33 134 -93 194 -241 19 -44 54 -120 79 -168 67
-130 101 -142 237 -81 139 62 207 84 267 84 73 0 98 -10 184 -75 93 -70 240
-143 323 -161 203 -43 367 10 565 183 74 64 124 79 240 69 l81 -7 60 -58 c72
-71 110 -91 167 -91 51 1 59 7 116 82 43 57 106 114 151 137 25 14 100 7 136
-11 49 -26 120 -96 182 -181 36 -51 92 -119 123 -152 75 -79 213 -252 272
-340 25 -38 57 -80 70 -91 44 -41 233 -155 273 -165 22 -5 74 -21 115 -34 101
-33 224 -35 264 -4 20 16 26 29 26 59 0 33 -7 45 -51 87 -110 104 -121 206
-14 133 95 -66 218 -118 336 -144 33 -7 211 -202 330 -360 88 -117 179 -261
179 -283 0 -7 -18 -56 -40 -108 -53 -130 -71 -247 -86 -570 -7 -159 -1 -185
48 -215 40 -24 66 -25 135 -3 65 20 85 15 206 -57 144 -85 195 -142 271 -308
38 -82 38 -84 23 -123 -15 -39 -84 -138 -199 -284 -83 -107 -91 -127 -118
-301 -6 -39 -20 -84 -30 -101 -11 -19 -77 -68 -179 -133 -155 -98 -294 -209
-355 -281 -111 -131 -100 -282 41 -578 52 -108 63 -123 158 -218 124 -123 200
-163 409 -218 76 -20 161 -45 189 -55 96 -37 195 -49 447 -54 247 -6 295 -12
369 -50 42 -22 51 -44 58 -139 5 -69 1 -100 -20 -187 -40 -159 -46 -218 -48
-430 -2 -220 6 -259 75 -362 48 -74 68 -125 69 -178 1 -52 -18 -91 -80 -172
-48 -63 -73 -115 -73 -150 1 -96 159 -257 334 -339 47 -22 88 -44 91 -49 7
-12 -10 -137 -67 -480 -175 -1065 -422 -1860 -848 -2725 -237 -483 -453 -839
-782 -1289 -232 -316 -507 -636 -803 -931 -233 -234 -394 -376 -630 -560 -675
-524 -1216 -834 -2008 -1151 -372 -149 -983 -329 -1406 -414 -529 -106 -864
-139 -1498 -147 -423 -6 -433 -5 -433 14 0 10 4 23 9 28 4 6 20 40 34 77 38
96 52 234 37 363 -6 55 -13 102 -15 106 -3 3 -14 50 -26 105 -29 133 -48 178
-137 322 -60 98 -95 142 -172 215 -163 157 -250 213 -490 317 -139 60 -216 82
-286 82 -90 -1 -106 -15 -128 -113 -7 -34 -83 -119 -106 -119 -50 0 -190 110
-260 205 -50 68 -72 112 -109 225 -32 93 -64 140 -97 140 -7 0 -55 -18 -104
-41 -145 -65 -195 -79 -281 -79 -96 0 -175 27 -233 79 -72 65 -123 101 -183
129 -53 25 -68 27 -178 27 l-120 -1 -104 -47 c-58 -27 -134 -69 -170 -94 -85
-61 -119 -72 -221 -72 -137 0 -175 10 -223 57 -111 107 -194 107 -276 1 -77
-100 -142 -123 -239 -87 -75 28 -96 51 -176 193 -37 66 -83 138 -101 160 -97
118 -224 245 -335 332 -189 149 -287 209 -387 238 -86 25 -225 48 -296 49 -51
0 -89 -37 -89 -88 0 -39 14 -63 97 -169 39 -52 58 -97 39 -97 -4 0 -39 24 -78
54 -89 68 -119 82 -214 107 -56 14 -92 18 -138 13 -61 -6 -64 -6 -96 27 -18
18 -58 53 -88 77 -75 61 -377 376 -385 402 -5 15 3 31 29 60 62 69 147 262
165 375 13 89 28 255 37 416 6 111 4 130 -11 156 -35 60 -98 77 -171 47 -23
-10 -52 -14 -72 -11 -29 5 -191 94 -259 142 -52 37 -183 270 -183 326 0 17 18
53 45 91 24 35 63 89 85 121 23 32 61 82 85 111 58 72 81 119 94 196 25 140
33 176 47 198 8 12 99 78 202 146 211 139 342 255 383 341 20 42 24 64 23 135
-2 99 -31 190 -119 374 -50 104 -59 117 -162 217 -127 124 -176 151 -367 204
-69 19 -168 48 -219 64 -134 43 -193 50 -457 55 -261 5 -342 20 -391 72 -23
24 -24 32 -24 142 0 94 6 138 27 222 24 92 27 132 33 325 7 274 1 302 -101
452 -12 19 -28 59 -35 88 -17 74 -4 111 72 213 91 122 93 190 10 290 -116 139
-341 262 -480 262 -28 0 -31 3 -31 30 0 31 50 340 75 465 220 1092 378 1600
750 2410 198 430 530 1009 773 1345 250 346 438 581 647 810 465 508 972 935
1595 1343 401 262 997 568 1395 717 244 91 572 198 840 275 297 85 379 104
595 140 85 14 193 32 240 40 137 25 479 67 695 85 98 9 985 3 994 -6z m2649
-45 c30 -17 95 -70 144 -119 l91 -88 -44 -51 c-24 -27 -74 -103 -111 -168
l-67 -118 -15 -155 c-21 -206 -29 -237 -77 -295 -53 -65 -51 -112 8 -143 13
-7 70 -12 145 -12 159 0 254 23 354 85 39 25 123 70 185 100 105 51 120 55
185 55 73 0 145 -19 220 -58 l39 -21 -51 -1 c-58 0 -187 -31 -274 -65 -69 -27
-167 -94 -221 -152 -60 -63 -168 -254 -180 -319 -6 -31 -15 -67 -20 -80 -5
-16 -5 -33 3 -49 13 -30 47 -33 122 -10 55 17 96 19 96 7 0 -18 -178 -142
-260 -181 -77 -37 -91 -41 -164 -41 -104 0 -169 21 -252 84 -134 101 -217 156
-252 166 -47 13 -184 13 -241 -1 -25 -5 -84 -28 -133 -51 -54 -25 -92 -38 -98
-32 -5 5 -18 37 -28 72 -26 81 -120 246 -177 310 -25 28 -41 53 -36 56 24 15
184 36 351 46 211 12 277 24 410 74 117 44 144 70 137 132 -2 26 -15 55 -29
72 -27 32 -68 140 -99 260 -14 54 -20 109 -20 182 1 156 10 212 52 323 32 84
48 110 90 154 72 72 133 81 217 32z m2154 -12 c66 -37 126 -95 196 -187 65
-86 153 -174 196 -194 48 -23 95 -16 147 20 22 15 49 43 61 62 49 80 117 150
161 167 43 16 47 16 143 -10 70 -18 141 -48 244 -102 80 -42 172 -84 205 -93
l59 -17 18 -59 c33 -109 21 -271 -26 -362 -34 -66 -13 -134 48 -150 37 -11
164 10 301 49 106 29 226 35 315 15 269 -62 586 -256 710 -436 21 -30 59 -75
86 -100 l48 -45 -189 -6 c-181 -6 -232 -14 -318 -48 -16 -6 -45 -11 -66 -11
-48 0 -91 -32 -91 -66 0 -31 31 -93 60 -119 31 -28 142 -189 174 -252 34 -67
66 -201 66 -275 0 -85 -28 -284 -50 -357 -11 -35 -23 -88 -27 -118 -3 -30 -11
-57 -18 -59 -6 -3 -42 9 -79 26 -227 101 -527 158 -780 147 l-145 -7 -24 32
c-13 18 -37 65 -53 103 -27 66 -88 179 -146 271 -34 52 -171 194 -222 228
-104 69 -216 0 -216 -133 0 -57 33 -223 56 -276 14 -33 13 -35 -6 -35 -29 0
-104 40 -185 99 -57 42 -77 51 -112 51 -89 0 -171 -127 -144 -224 5 -20 6 -38
2 -40 -11 -7 -99 41 -168 93 -129 97 -262 230 -325 325 -131 196 -360 441
-460 492 -48 25 -167 54 -216 54 -68 0 -217 -101 -268 -182 -14 -21 -31 -41
-38 -44 -8 -3 -52 33 -102 83 -132 131 -230 173 -400 173 -41 0 -74 2 -74 5 0
13 69 112 98 141 17 17 57 42 89 54 32 13 89 39 127 58 79 39 212 74 347 93
111 15 144 36 142 93 -2 81 -117 212 -237 271 -47 23 -110 42 -185 57 -110 21
-117 21 -192 6 -88 -18 -216 -76 -365 -165 -96 -57 -164 -83 -218 -83 -29 0
-33 17 -16 66 11 33 26 127 40 257 9 80 15 95 64 180 74 125 103 167 118 167
18 0 80 -102 106 -173 44 -116 88 -177 129 -177 24 0 112 101 123 140 47 176
80 298 82 314 10 63 171 103 275 68 98 -34 238 -35 393 -2 25 5 77 15 115 23
88 18 183 52 305 110 127 60 117 57 187 53 48 -3 76 -11 125 -39z m1006 -2182
c48 -54 222 -407 222 -450 0 -5 -38 28 -84 74 -69 69 -85 90 -90 123 -4 22
-25 73 -47 113 -25 46 -42 92 -46 124 -7 61 3 65 45 16z m1821 -497 c243 -141
348 -215 399 -279 13 -16 41 -69 62 -118 22 -50 50 -111 63 -138 40 -79 124
-322 141 -408 9 -44 23 -134 31 -199 21 -165 50 -206 146 -206 87 0 341 107
512 217 39 25 114 88 165 139 52 52 97 92 102 89 4 -2 27 -37 51 -76 23 -40
72 -103 106 -141 79 -86 126 -157 174 -268 20 -47 55 -123 76 -170 46 -98 60
-151 71 -270 12 -117 2 -152 -76 -266 -81 -120 -124 -152 -265 -195 -74 -22
-124 -46 -183 -85 -96 -63 -114 -87 -114 -150 0 -45 3 -49 83 -128 100 -97
133 -144 199 -282 95 -200 78 -273 -144 -631 -50 -82 -97 -168 -105 -193 -27
-90 3 -146 172 -319 135 -139 146 -155 202 -301 60 -157 97 -457 73 -590 -6
-36 -20 -85 -31 -109 -17 -38 -22 -43 -33 -30 -7 8 -18 34 -25 59 -7 25 -31
97 -53 161 -34 100 -48 128 -106 201 -37 47 -84 113 -104 147 -62 102 -141
131 -193 69 -36 -43 -30 -78 40 -215 77 -153 87 -209 82 -498 l-3 -230 -31
-73 c-51 -119 -187 -329 -267 -410 -106 -109 -138 -123 -321 -133 -82 -5 -166
-7 -185 -4 -19 3 -94 9 -167 15 -141 10 -226 35 -308 91 -54 36 -125 106 -125
123 0 7 17 35 39 62 21 27 51 74 67 104 26 49 29 65 29 150 0 112 -17 169 -77
262 -66 102 -69 116 -64 342 3 188 6 209 36 321 29 112 31 129 28 250 -7 224
-54 286 -275 361 -74 25 -90 27 -308 30 -264 3 -327 9 -404 36 -31 10 -123 37
-206 59 -82 22 -172 50 -200 64 -77 37 -198 161 -241 247 -86 171 -119 291
-94 338 18 33 199 179 339 273 74 49 153 107 176 128 59 54 92 134 110 264 16
109 24 135 55 170 10 11 66 87 124 169 84 117 111 163 127 217 26 86 21 110
-55 272 -89 190 -149 266 -274 344 -141 88 -190 113 -252 129 -36 9 -71 22
-79 29 -11 11 -11 41 3 191 16 167 20 186 58 282 48 119 83 157 171 185 65 21
88 21 130 3 47 -19 206 -186 276 -288 19 -29 42 -50 58 -54 60 -16 111 50 120
155 10 110 -46 350 -112 481 l-25 50 24 0 c14 0 65 -20 113 -45 107 -55 157
-60 202 -17 24 22 88 148 139 275 7 15 15 27 19 27 3 0 54 -28 112 -62z
m-1446 -73 c42 -17 132 -19 196 -4 62 14 156 14 226 -1 53 -10 66 -18 113 -67
29 -31 60 -69 68 -84 17 -33 21 -31 -71 -29 -93 1 -171 -23 -337 -108 -4 -2
-22 18 -40 44 -18 26 -64 88 -103 137 -113 145 -109 136 -52 112z m-14868
-5025 c182 -13 271 -46 378 -140 74 -65 74 -66 11 -156 -67 -96 -99 -191 -90
-262 13 -88 38 -157 87 -237 27 -44 53 -101 57 -125 5 -25 5 -136 2 -245 -7
-176 -11 -212 -36 -300 -35 -124 -39 -292 -10 -389 27 -90 94 -153 211 -195
126 -46 152 -49 399 -50 228 -1 295 -8 393 -42 32 -11 118 -36 191 -55 175
-45 229 -74 324 -171 82 -85 129 -170 185 -335 38 -111 29 -134 -85 -229 -48
-40 -152 -118 -232 -172 -250 -171 -269 -198 -304 -430 -11 -79 -19 -104 -42
-134 -34 -42 -136 -183 -193 -266 -46 -67 -81 -153 -81 -201 0 -45 19 -95 90
-241 46 -95 75 -139 125 -193 36 -39 83 -81 103 -93 20 -12 71 -43 112 -70 49
-31 105 -57 160 -72 l85 -25 3 -53 c5 -75 -16 -288 -34 -349 -25 -84 -74 -183
-107 -218 -34 -35 -106 -66 -178 -77 -59 -9 -98 8 -169 72 -30 28 -74 60 -98
72 -24 12 -52 38 -67 62 -14 22 -36 44 -49 49 -27 10 -67 3 -78 -14 -15 -23
-19 -115 -8 -199 22 -178 73 -263 287 -478 142 -143 155 -159 149 -184 l-7
-27 -127 4 c-70 1 -190 -1 -268 -6 -227 -14 -268 -1 -602 192 -140 81 -160 94
-256 170 -75 60 -89 80 -154 221 -135 293 -188 463 -217 695 -17 138 -29 172
-71 205 -40 31 -104 27 -222 -14 -205 -71 -393 -184 -532 -321 -52 -51 -100
-90 -105 -86 -6 4 -31 40 -55 81 -25 41 -74 107 -111 146 -66 72 -118 150
-154 235 -10 25 -41 92 -68 150 -27 58 -55 125 -63 150 -19 63 -38 231 -30
272 6 34 99 191 140 237 37 42 108 81 196 108 102 31 147 52 222 107 65 47 88
80 88 128 0 41 -12 60 -96 140 -37 34 -83 88 -104 118 -67 98 -131 240 -145
322 -13 70 56 230 189 442 114 183 126 207 126 261 0 75 -38 135 -181 279
-121 123 -131 137 -169 224 -76 171 -118 401 -108 594 5 92 28 180 53 207 16
17 12 25 75 -164 52 -155 72 -198 117 -248 19 -22 59 -76 89 -122 67 -103 103
-135 152 -135 53 0 82 31 82 89 0 35 -11 66 -46 130 -86 161 -89 178 -89 491
l0 275 46 95 c69 143 208 349 276 409 88 77 128 92 268 101 66 4 147 6 180 3
33 -2 119 -8 190 -13z m17655 -982 c0 -71 -49 -534 -75 -713 -172 -1183 -467
-2123 -1016 -3235 -236 -478 -459 -839 -817 -1320 -462 -621 -994 -1179 -1617
-1694 -235 -195 -537 -422 -700 -526 -920 -591 -1827 -1007 -2690 -1235 -463
-122 -607 -152 -1020 -214 -167 -25 -495 -58 -680 -67 l-130 -7 95 99 c172
179 285 344 382 559 78 171 85 190 93 268 7 65 7 67 -24 98 -28 27 -37 30 -74
26 -59 -6 -319 -47 -338 -53 -115 -34 -657 -15 -702 26 -5 4 81 10 190 14 897
29 1889 195 2593 433 704 237 1316 537 1955 958 566 373 1222 960 1669 1494
459 550 801 1076 1131 1742 282 569 545 1293 714 1964 29 119 120 560 140 685
17 107 49 338 62 450 6 58 17 111 24 118 9 11 36 11 141 1 93 -8 173 -9 287
-2 156 10 159 11 240 51 45 22 98 57 116 76 19 20 39 36 43 36 4 0 8 -15 8
-32z m-15944 -4785 c15 -27 45 -74 67 -106 22 -31 37 -60 34 -63 -4 -4 -48
-10 -98 -15 -50 -5 -106 -11 -123 -14 -24 -5 -39 -1 -60 16 -31 24 -146 165
-146 178 0 5 44 11 98 14 53 3 115 12 137 20 58 23 62 22 91 -30z m211 -367
c115 -31 150 -72 266 -311 41 -84 88 -146 162 -210 90 -80 165 -88 205 -22 30
49 27 173 -5 252 -30 72 -29 65 -7 65 10 0 44 -18 76 -40 116 -81 226 -119
295 -100 47 12 96 60 112 108 10 31 9 137 -2 182 -7 26 42 13 96 -26 28 -19
100 -69 162 -110 114 -76 154 -114 250 -243 31 -40 82 -101 113 -135 31 -33
77 -99 101 -145 51 -96 120 -186 168 -218 44 -30 136 -63 191 -70 31 -4 67 1
112 15 93 29 115 42 181 107 l57 58 78 -74 c122 -115 236 -174 365 -186 32 -3
60 -10 64 -16 9 -15 -39 -47 -136 -90 -151 -68 -261 -99 -549 -153 -40 -8 -72
-52 -72 -99 0 -33 9 -56 41 -104 51 -77 152 -170 221 -203 68 -33 180 -58 258
-58 78 0 263 46 406 101 60 22 132 48 159 56 28 8 67 24 88 35 22 11 42 17 45
13 3 -3 1 -37 -6 -76 -7 -38 -12 -83 -12 -99 0 -16 -5 -63 -11 -105 -10 -63
-20 -90 -63 -160 -66 -109 -93 -140 -110 -126 -7 6 -29 42 -50 80 -52 94 -105
145 -151 145 -77 0 -114 -55 -190 -283 l-52 -156 -99 -8 c-124 -9 -152 -5
-225 33 -81 42 -137 42 -173 -1 -20 -23 -26 -42 -26 -77 l0 -47 -163 -1 c-195
-1 -274 -18 -442 -97 -93 -44 -118 -52 -165 -51 -90 2 -129 19 -245 106 -94
71 -118 95 -167 168 -100 151 -128 154 -300 33 -123 -86 -199 -117 -283 -117
-80 1 -114 15 -210 88 -66 50 -191 107 -275 125 -30 6 -58 17 -62 24 -16 25
-8 214 12 299 37 155 21 229 -60 271 -53 28 -158 17 -300 -28 -193 -63 -377
-60 -550 7 -188 72 -418 250 -557 432 -145 189 -162 223 -103 206 17 -5 101
-21 186 -36 173 -30 212 -27 336 22 97 38 110 47 123 79 18 41 6 66 -70 146
-44 47 -76 94 -104 151 -63 133 -78 190 -85 327 l-7 124 48 -9 c66 -12 364
-11 553 3 145 10 162 13 263 52 60 23 119 48 131 56 32 21 48 61 40 101 -6 34
-6 34 32 34 22 0 63 -6 91 -14z m3628 -704 c28 -10 97 -52 155 -94 213 -153
373 -169 624 -59 27 12 55 20 61 17 7 -2 24 -41 39 -86 14 -45 43 -107 64
-138 53 -81 152 -182 211 -217 89 -53 61 -62 -185 -64 -416 -3 -685 -63 -723
-163 -11 -30 2 -148 23 -212 18 -52 32 -131 47 -263 14 -121 6 -181 -63 -475
-12 -51 -65 -118 -117 -147 -39 -21 -46 -22 -88 -10 -59 16 -150 85 -200 151
-59 79 -59 75 -14 116 45 41 152 222 183 310 17 47 21 85 23 222 1 145 4 171
23 212 28 59 28 92 1 119 -69 69 -203 63 -361 -17 -152 -77 -321 -123 -473
-131 -125 -6 -168 2 -238 47 -52 33 -59 47 -24 54 111 21 249 60 318 91 187
82 205 93 262 150 81 81 116 155 132 283 9 68 -6 107 -47 121 -45 16 -63 14
-124 -14 -57 -26 -145 -34 -174 -15 -12 8 -10 10 11 10 51 0 127 31 195 79 71
49 170 103 234 127 51 18 166 17 225 -4z m1665 -546 c328 -138 419 -188 501
-271 68 -70 144 -171 176 -235 41 -83 110 -255 124 -310 31 -125 6 -327 -80
-647 -34 -125 -32 -145 16 -183 49 -39 264 -121 363 -139 185 -33 552 -41 722
-16 56 9 105 12 110 7 4 -4 0 -22 -10 -39 -62 -114 -232 -370 -301 -451 -20
-24 -68 -90 -107 -145 -39 -56 -85 -112 -102 -123 -17 -12 -76 -39 -129 -59
-54 -21 -125 -52 -158 -70 -33 -18 -121 -54 -196 -79 -120 -41 -145 -46 -223
-46 -88 0 -156 13 -274 52 -77 26 -162 21 -240 -12 -67 -29 -98 -66 -112 -135
-14 -65 -29 -82 -126 -136 -55 -30 -82 -39 -119 -39 -62 0 -149 46 -211 112
-62 66 -100 88 -153 88 -39 0 -48 -5 -85 -44 -22 -24 -60 -70 -83 -104 -55
-79 -99 -95 -246 -90 -110 4 -117 6 -255 85 -112 63 -176 74 -422 71 -222 -3
-253 2 -379 66 -83 41 -254 162 -302 212 -128 134 -198 236 -289 423 -50 101
-93 194 -96 207 -7 29 4 30 122 13 133 -18 437 32 556 92 137 69 248 183 248
254 0 45 -19 65 -93 100 -209 100 -353 206 -393 290 -13 28 -24 69 -24 91 0
44 45 233 59 247 5 5 23 -15 40 -45 33 -58 59 -90 200 -254 141 -164 294 -270
406 -281 48 -5 63 -2 122 27 139 68 248 224 278 398 22 125 6 569 -23 661 -32
99 -34 98 258 111 287 13 479 27 518 39 90 27 222 148 296 269 20 34 43 62 49
62 7 0 37 -11 67 -24z m-2536 -1338 l119 -2 52 -81 c29 -44 66 -92 81 -106 66
-59 184 -130 267 -160 51 -18 86 -36 84 -43 -7 -23 -149 -107 -205 -121 -88
-22 -297 -36 -372 -25 -181 25 -437 103 -530 160 -76 47 -182 106 -267 148
-56 28 -104 56 -107 61 -18 29 319 92 414 77 45 -7 96 -30 156 -71 50 -34 88
-32 125 4 36 37 37 70 3 129 l-26 45 43 -7 c24 -3 98 -7 163 -8z"/>
<path d="M11725 19841 c-117 -23 -147 -35 -225 -87 -118 -77 -180 -141 -216
-221 -50 -109 -58 -167 -47 -309 11 -126 23 -161 60 -170 42 -11 63 6 119 104
123 211 354 385 579 437 98 23 154 46 179 74 11 11 27 21 37 21 9 0 24 3 33 6
26 10 -64 76 -157 116 -107 46 -226 56 -362 29z m253 -102 c44 -14 40 -26 -10
-39 -101 -25 -128 -34 -213 -78 -98 -51 -251 -167 -333 -256 -29 -31 -58 -53
-64 -50 -13 8 -4 66 24 162 19 64 28 79 79 126 60 56 124 96 185 116 110 37
249 44 332 19z"/>
<path d="M8832 16380 c-23 -5 -78 -25 -121 -45 -76 -34 -82 -35 -199 -35 -101
0 -134 -4 -200 -25 -107 -34 -268 -141 -355 -235 -98 -108 -227 -348 -227
-424 0 -17 -30 -36 -153 -100 -83 -43 -177 -94 -208 -112 -50 -30 -65 -34
-128 -34 -40 0 -87 -6 -107 -15 -40 -16 -141 -91 -200 -147 l-41 -40 -73 47
c-92 59 -111 66 -182 66 -65 1 -118 -22 -177 -74 -57 -49 -111 -68 -174 -61
-51 6 -56 5 -72 -19 -9 -15 -13 -32 -9 -38 7 -12 26 -291 20 -296 -1 -2 -26 4
-55 13 -111 33 -315 15 -429 -37 -114 -51 -259 -175 -357 -304 -53 -70 -145
-252 -145 -286 0 -10 11 -26 25 -35 23 -15 28 -14 92 14 83 37 293 78 293 57
0 -2 -17 -31 -39 -64 -57 -89 -93 -185 -95 -257 -3 -90 -39 -134 -183 -219
-140 -83 -174 -119 -228 -242 -74 -169 -105 -274 -112 -381 -4 -64 -10 -95
-19 -99 -22 -8 -193 81 -259 134 -42 34 -68 64 -87 103 -24 50 -68 100 -87
100 -4 0 -32 -39 -61 -87 -29 -47 -84 -120 -122 -160 -55 -61 -80 -99 -129
-201 -67 -139 -89 -220 -89 -328 0 -80 16 -120 88 -217 50 -66 95 -99 178
-128 32 -11 63 -25 68 -29 5 -5 -5 -25 -24 -47 -51 -57 -121 -214 -127 -282
-5 -48 0 -69 26 -136 18 -44 59 -123 92 -176 32 -53 59 -103 59 -111 0 -8 -34
-49 -75 -91 -58 -58 -84 -94 -111 -151 -53 -115 -77 -230 -78 -371 0 -113 1
-124 32 -200 18 -44 48 -105 66 -135 l33 -55 6 -210 c19 -676 154 -1278 434
-1935 334 -784 911 -1569 1538 -2094 583 -487 1168 -819 1825 -1036 514 -170
1018 -263 1519 -278 l205 -7 37 -65 c61 -105 114 -143 309 -221 129 -52 139
-54 221 -52 82 1 210 16 241 28 9 4 18 -7 27 -30 22 -61 148 -133 240 -136 40
-2 58 3 79 19 15 12 48 37 74 56 l46 35 26 -34 c29 -37 105 -71 195 -86 67
-11 165 8 276 51 67 27 101 33 205 40 198 13 308 59 426 177 118 117 198 247
260 422 40 110 44 157 14 166 -25 8 -152 -12 -199 -31 -18 -8 -54 -14 -78 -14
-78 0 -242 51 -203 63 210 68 299 100 416 153 171 78 210 82 344 33 157 -57
183 -62 262 -49 39 6 83 19 97 30 64 45 122 98 156 142 20 27 41 48 46 48 6 0
31 -18 56 -40 52 -45 102 -62 185 -62 74 0 119 15 199 68 80 52 108 64 134 53
35 -14 81 -10 97 9 21 25 41 148 36 225 l-4 67 51 -7 c163 -25 393 27 530 118
135 90 335 355 335 443 0 49 -40 58 -112 26 -65 -28 -117 -34 -197 -20 -71 12
-72 12 -57 33 29 40 74 132 84 172 6 22 13 83 16 135 3 52 5 96 6 96 0 1 55
32 123 70 211 117 257 158 316 287 79 172 121 324 121 440 0 59 12 60 108 15
141 -67 223 -137 262 -221 19 -40 75 -97 84 -86 1 2 25 42 52 88 27 46 82 119
122 162 59 65 83 102 133 206 70 146 93 235 86 339 -4 79 -23 119 -97 213 -47
60 -91 89 -178 121 -34 12 -62 27 -62 32 0 6 15 28 34 50 37 43 86 138 112
219 29 88 2 184 -96 345 -24 38 -52 84 -63 102 l-20 34 81 81 c133 136 192
293 195 522 1 117 0 122 -35 208 -67 162 -111 216 -163 203 -13 -3 -34 -16
-45 -28 -23 -25 -22 -26 -44 33 -9 26 -34 76 -56 112 l-40 66 0 134 c0 305
-61 740 -156 1122 -164 656 -394 1172 -800 1797 -312 479 -736 949 -1181 1307
-142 114 -502 365 -663 461 -715 429 -1611 700 -2483 750 -166 9 -181 12 -245
41 -202 93 -270 108 -397 89 -177 -26 -159 -28 -179 24 -10 26 -32 57 -49 71
-48 35 -138 75 -173 75 -49 0 -113 -26 -172 -71 l-54 -42 -39 46 c-21 24 -56
51 -76 60 -50 19 -147 28 -201 17z m157 -130 c10 -5 35 -34 56 -64 21 -31 46
-58 57 -62 30 -9 74 5 99 33 48 51 101 83 139 83 54 0 132 -54 141 -97 8 -43
25 -62 74 -84 50 -23 104 -24 153 -3 20 9 75 18 122 21 95 5 138 -7 345 -99
84 -37 105 -52 133 -89 18 -24 54 -71 79 -104 55 -69 195 -286 189 -292 -2 -2
-41 1 -87 6 -130 16 -382 -2 -478 -34 -109 -36 -155 -65 -159 -97 -2 -14 11
-83 28 -152 55 -225 52 -275 -29 -450 -55 -120 -121 -194 -218 -243 -85 -45
-232 -107 -237 -102 -1 2 -13 20 -26 39 -37 57 -102 120 -144 142 -32 16 -74
22 -255 32 -119 7 -221 15 -227 19 -8 4 -7 22 2 58 9 32 14 115 15 218 1 141
-2 173 -18 216 -28 73 -65 122 -119 161 -39 28 -56 34 -100 34 -46 0 -61 -6
-123 -47 -66 -46 -198 -185 -238 -254 -10 -16 -20 -29 -24 -29 -4 0 -14 30
-23 66 -21 83 -12 114 47 171 42 40 132 97 195 123 60 24 60 75 -1 138 -80 83
-208 125 -384 126 -62 0 -113 4 -113 8 0 3 25 57 55 120 70 141 156 248 259
317 118 80 130 83 318 90 l166 6 79 42 c72 39 84 42 156 42 43 1 86 -3 96 -9z
m1733 -305 c399 -38 856 -146 1247 -295 492 -187 1032 -485 1400 -773 523
-410 934 -850 1288 -1380 267 -400 538 -985 699 -1514 83 -274 170 -687 208
-993 20 -159 36 -333 31 -338 -2 -2 -19 8 -37 22 -70 52 -100 59 -281 60 -161
0 -168 1 -172 21 -2 11 -13 91 -24 177 -83 623 -318 1336 -623 1889 -240 435
-468 746 -788 1073 -422 430 -812 715 -1335 971 -468 230 -943 370 -1511 445
-203 27 -471 49 -599 50 -147 1 -97 20 68 27 97 4 156 1 224 -11 145 -25 230
-31 248 -16 62 52 -73 344 -247 535 l-60 65 55 0 c29 0 124 -7 209 -15z
m-2548 -426 c40 -11 116 -56 116 -70 0 -4 -22 -15 -50 -24 -70 -23 -160 -93
-199 -154 l-33 -51 -88 0 -88 0 15 30 c13 28 13 33 -1 55 -21 32 -59 32 -111
0 -31 -20 -54 -25 -103 -25 -81 0 -213 29 -192 42 25 16 200 112 249 137 25
13 93 37 151 52 92 25 117 28 200 23 52 -3 112 -10 134 -15z m-827 -303 c91
-40 168 -56 270 -56 72 0 73 0 73 -27 0 -34 26 -63 57 -63 13 0 42 9 64 20 31
17 55 20 112 18 l72 -3 36 -104 c40 -111 71 -153 113 -153 34 0 52 16 88 80
17 29 35 51 41 49 5 -1 27 -31 47 -65 30 -48 39 -76 44 -129 4 -38 10 -82 13
-100 l5 -32 -94 35 c-51 19 -131 46 -177 60 -180 52 -312 18 -411 -107 -44
-56 -53 -105 -22 -131 9 -8 67 -25 127 -37 101 -21 295 -93 295 -110 0 -4 -26
-12 -58 -19 -64 -13 -137 -54 -194 -110 l-37 -35 -43 39 c-109 101 -258 78
-343 -53 -72 -110 -79 -121 -157 -216 -59 -73 -98 -109 -173 -161 -128 -89
-129 -89 -120 -38 8 50 -8 106 -38 127 -37 26 -99 19 -173 -20 -37 -19 -69
-33 -71 -31 -2 2 1 24 8 50 13 52 6 108 -17 131 -52 52 -153 -29 -237 -190
-46 -89 -57 -102 -97 -122 -24 -13 -57 -23 -72 -23 -23 0 -28 4 -28 25 0 67
-119 109 -350 124 -103 6 -180 7 -205 1 -22 -5 -43 -10 -47 -10 -16 0 -8 128
11 182 27 79 46 111 96 168 67 76 59 99 -48 139 -68 25 -109 26 -214 6 -91
-17 -93 -18 -93 -7 0 17 120 166 166 206 76 66 179 133 242 157 84 32 212 32
312 0 41 -14 99 -25 128 -25 47 -1 57 2 79 28 23 27 25 35 19 85 -4 31 -9 97
-12 147 l-6 91 37 7 c52 10 134 48 171 79 84 71 155 63 303 -37 80 -54 102
-49 160 36 32 48 89 99 151 137 51 31 105 27 197 -13z m1223 -22 c16 -19 32
-44 34 -57 3 -12 13 -58 22 -101 19 -90 15 -213 -9 -312 -29 -117 -29 -133 2
-164 50 -51 203 -80 419 -80 61 0 112 -3 112 -7 0 -3 -19 -22 -41 -41 -63 -54
-115 -126 -134 -184 -10 -29 -19 -55 -21 -56 -1 -2 -33 8 -70 23 -122 49 -233
32 -345 -53 -66 -50 -97 -62 -155 -62 -47 0 -114 29 -191 81 -23 16 -52 33
-65 39 -22 8 -22 9 -2 9 11 1 35 -6 52 -15 27 -13 36 -13 59 -2 27 13 28 17
27 79 -1 76 -31 141 -87 183 -47 36 -185 94 -267 112 -82 19 -81 32 2 60 44
14 60 15 125 4 82 -13 178 -44 263 -84 66 -31 152 -35 189 -10 24 18 25 34 2
119 -6 22 -11 79 -11 126 0 80 -3 91 -39 160 -22 41 -53 90 -70 110 l-30 37
41 47 c45 51 108 86 139 78 10 -3 32 -21 49 -39z m-2514 -1498 c2 -6 -42 -58
-99 -116 -61 -62 -113 -124 -126 -152 -27 -57 -43 -157 -35 -215 6 -39 9 -43
35 -43 20 0 35 10 55 35 14 19 31 35 37 35 5 0 35 20 65 45 30 25 60 45 66 45
30 0 114 -32 129 -48 35 -39 67 -141 76 -240 4 -53 6 -102 4 -108 -2 -5 -25
-16 -50 -22 -63 -17 -185 -95 -229 -146 -35 -40 -106 -177 -119 -228 -12 -46
14 -105 96 -220 73 -102 82 -119 90 -177 18 -122 40 -152 189 -251 36 -24 93
-68 128 -98 61 -53 63 -57 57 -91 -12 -63 -74 -184 -118 -229 -51 -53 -92 -75
-178 -97 -35 -9 -91 -25 -124 -35 -47 -15 -98 -21 -230 -24 -181 -5 -248 -19
-310 -68 -66 -52 -82 -174 -45 -330 14 -57 20 -118 20 -194 0 -100 -2 -115
-25 -155 -43 -76 -54 -106 -61 -162 -7 -56 8 -100 64 -190 l17 -28 -40 -35
c-68 -58 -127 -74 -304 -81 -176 -6 -217 1 -273 47 -42 35 -137 174 -174 255
-22 48 -24 66 -25 203 0 164 8 211 52 288 46 81 34 144 -27 144 -51 0 -171
-167 -215 -297 -17 -51 -34 -91 -39 -88 -4 3 -13 28 -20 56 -21 87 4 265 55
391 20 48 44 82 104 143 90 92 116 134 107 178 -3 17 -33 73 -65 126 -79 128
-121 218 -121 262 0 57 71 192 140 263 63 65 75 103 48 138 -28 34 -104 79
-168 98 -82 24 -110 46 -156 118 -43 66 -49 97 -35 180 15 92 113 302 171 366
26 28 59 70 74 94 20 32 30 41 39 33 7 -5 35 -31 63 -58 88 -83 275 -178 372
-190 72 -8 89 16 108 153 17 123 46 214 113 359 53 117 62 130 116 171 62 49
286 181 330 195 35 12 387 7 391 -5z m137 -116 c26 0 47 -4 47 -9 0 -5 -14
-33 -32 -61 -31 -50 -33 -51 -67 -45 -20 4 -58 10 -86 14 l-50 6 49 53 c38 40
55 52 70 48 12 -3 42 -6 69 -6z m9254 -2981 c59 -22 169 -163 230 -296 24 -52
25 -61 21 -221 l-3 -167 -37 -76 c-46 -91 -49 -131 -12 -156 24 -15 29 -15 53
-2 14 8 42 37 61 65 19 28 49 69 67 93 17 23 46 86 64 139 l32 97 15 -35 c17
-43 18 -180 2 -270 -6 -36 -25 -99 -41 -140 -24 -63 -40 -86 -100 -145 -91
-90 -123 -144 -116 -191 3 -19 31 -74 61 -122 72 -115 126 -229 126 -267 0
-53 -74 -191 -139 -258 -74 -77 -82 -103 -46 -146 34 -40 92 -73 177 -101 76
-24 129 -74 169 -157 21 -43 21 -51 10 -122 -16 -103 -106 -301 -172 -376 -27
-31 -60 -76 -75 -101 l-26 -44 -67 62 c-37 35 -105 84 -151 111 -96 54 -232
101 -264 91 -34 -10 -55 -34 -61 -68 -2 -17 -12 -76 -21 -130 -16 -102 -52
-206 -121 -356 -45 -97 -79 -128 -242 -224 l-95 -55 -42 90 c-56 116 -71 124
-166 78 -37 -18 -70 -30 -73 -27 -3 3 6 31 20 63 58 129 68 274 23 322 -31 33
-53 29 -87 -19 -16 -24 -57 -71 -90 -105 -52 -55 -64 -63 -96 -63 -111 0 -168
101 -177 315 l-3 70 50 16 c66 21 182 97 230 150 36 40 98 158 116 223 16 57
-10 113 -128 269 -37 49 -46 70 -57 136 -22 124 -41 148 -196 251 -36 24 -91
66 -124 94 -54 47 -58 52 -53 86 7 55 70 182 113 229 46 52 105 82 204 106 41
10 93 25 115 33 27 10 100 17 220 22 153 5 189 10 237 29 64 25 107 64 125
113 18 51 15 165 -7 248 -14 55 -20 108 -20 198 l0 124 35 56 c44 72 63 157
46 212 -6 21 -27 61 -45 89 l-34 50 31 32 c50 50 126 80 225 89 95 8 274 2
309 -11z m-10923 -240 c23 -64 125 -231 178 -293 25 -28 69 -65 99 -81 51 -28
61 -30 191 -33 l137 -4 5 -41 c43 -365 63 -480 127 -727 126 -488 343 -1009
592 -1422 342 -568 810 -1082 1347 -1480 413 -306 980 -587 1475 -731 141 -41
489 -120 625 -141 253 -40 550 -65 790 -67 140 -1 144 -1 100 -15 -25 -8 -110
-19 -190 -25 -143 -11 -147 -10 -256 17 -167 41 -179 28 -108 -114 26 -53 74
-137 106 -185 32 -48 58 -89 58 -91 0 -13 -401 20 -609 50 -1187 170 -2275
720 -3146 1589 -264 263 -464 509 -682 835 -239 359 -448 781 -588 1190 -176
514 -278 1049 -303 1590 -8 160 -7 189 7 212 18 32 22 29 45 -33z m9602 -3116
c34 -15 85 -29 122 -32 l63 -6 -26 -35 c-39 -53 -68 -64 -155 -61 -41 2 -98 4
-127 4 l-52 0 20 26 c11 14 36 49 57 78 20 29 38 52 38 53 1 0 28 -12 60 -27z
m470 -170 c3 -16 13 -55 22 -88 9 -36 16 -106 16 -175 1 -137 -9 -166 -104
-292 -49 -64 -60 -87 -58 -111 3 -29 6 -31 93 -53 63 -16 120 -23 188 -24 l99
0 -46 -51 c-25 -28 -46 -54 -46 -58 0 -13 -130 -112 -191 -147 -78 -44 -181
-80 -250 -89 -43 -5 -74 -2 -130 14 -101 28 -194 38 -214 21 -19 -16 -19 -57
0 -103 15 -37 19 -151 7 -195 -5 -16 -24 -30 -64 -46 -31 -13 -77 -35 -103
-50 -61 -36 -149 -66 -195 -66 -38 0 -70 26 -119 98 -29 42 -74 65 -111 57
-27 -6 -106 -83 -176 -171 -37 -47 -107 -84 -158 -84 -22 0 -65 14 -107 36
-120 60 -327 101 -424 83 -107 -19 -121 -20 -159 -7 l-39 13 -31 116 c-26 95
-37 121 -64 147 -27 27 -36 30 -52 22 -25 -13 -43 -42 -66 -100 -21 -55 -53
-102 -64 -95 -4 2 -26 35 -48 72 -34 58 -42 84 -56 174 -8 58 -19 114 -22 124
-12 30 60 10 147 -41 166 -97 253 -114 382 -74 111 34 215 148 188 206 -6 13
-21 25 -33 28 -13 2 -59 11 -104 19 -114 21 -269 91 -300 137 -13 19 -24 37
-24 41 0 3 29 9 64 12 82 8 146 40 210 106 l49 50 27 -37 c15 -20 46 -50 70
-67 37 -26 52 -30 104 -29 34 1 79 9 101 19 47 20 192 165 250 250 59 86 161
191 240 247 l70 49 5 -43 c7 -51 22 -81 52 -102 35 -25 58 -19 127 29 68 47
98 57 87 29 -19 -48 -37 -160 -32 -189 7 -37 47 -75 78 -75 67 0 176 118 254
276 l57 117 76 -6 c128 -10 339 30 476 89 42 18 44 18 51 -13z m-751 -85 c-11
-35 -95 -201 -111 -217 -25 -27 -28 -1 -5 52 13 28 29 67 35 85 11 27 71 102
84 102 2 0 0 -10 -3 -22z m-1818 -432 c57 -27 142 -86 143 -100 0 -4 -12 -5
-27 0 -16 4 -41 8 -58 8 l-30 1 3 -55 c5 -99 112 -253 210 -304 18 -9 71 -27
118 -39 l87 -23 -57 -18 c-88 -28 -137 -15 -278 71 -66 41 -147 63 -233 63
-101 0 -130 -38 -80 -109 19 -29 27 -60 39 -153 12 -104 18 -124 52 -180 20
-35 48 -75 62 -91 l26 -27 -40 -41 c-102 -107 -162 -125 -219 -65 -78 82 -104
285 -57 436 13 41 32 85 43 98 22 28 25 71 7 94 -27 33 -155 68 -287 78 -136
11 -212 19 -223 26 -4 3 9 26 29 52 37 48 93 157 93 180 0 24 28 23 79 -2 62
-32 153 -43 205 -26 21 7 72 38 114 70 42 31 91 62 107 68 52 18 116 14 172
-12z m-955 -399 c91 -45 195 -67 366 -77 74 -4 138 -12 144 -18 8 -8 2 -32
-23 -84 -34 -72 -34 -74 -34 -213 0 -135 1 -143 34 -224 39 -98 92 -158 163
-185 38 -15 54 -16 103 -7 84 16 137 51 254 169 l104 106 -5 -48 c-4 -30 -17
-64 -38 -94 -33 -48 -137 -135 -197 -163 -48 -23 -73 -49 -73 -76 0 -40 68
-103 156 -143 128 -59 186 -73 297 -72 116 1 114 12 29 -140 -77 -138 -138
-202 -243 -256 -74 -38 -94 -43 -169 -48 -47 -3 -107 -10 -135 -15 -47 -10
-226 -65 -308 -95 -50 -19 -126 -18 -173 2 -22 9 -60 38 -86 66 -54 58 -62 58
-143 -3 -53 -40 -129 -78 -156 -79 -31 0 -97 58 -117 104 -30 67 -40 70 -220
55 -151 -12 -161 -11 -262 10 -219 47 -296 107 -481 371 -61 87 -119 185 -119
200 0 8 8 10 23 5 133 -42 275 -42 437 -2 106 26 193 75 223 125 21 37 22 91
2 139 -9 20 -23 104 -32 186 -22 197 -16 226 67 336 96 128 193 193 370 247
l105 32 32 -37 c18 -22 63 -53 105 -74z m1353 -688 c39 0 38 -1 -54 -45 -51
-24 -98 -44 -103 -44 -5 0 3 23 19 51 27 48 29 50 63 45 19 -3 53 -6 75 -7z"/>
<path d="M9145 16000 c-57 -8 -126 -38 -170 -75 -26 -21 -27 -25 -10 -25 11 0
42 -11 70 -24 27 -14 83 -35 123 -47 121 -36 228 -120 294 -231 45 -75 70 -90
100 -61 16 17 20 36 21 119 2 90 -1 104 -26 155 -45 92 -156 167 -278 188 -36
6 -68 10 -70 10 -2 -1 -26 -5 -54 -9z m148 -75 c61 -16 119 -48 154 -87 22
-23 55 -125 46 -141 -2 -4 -38 24 -80 62 -77 73 -212 151 -259 151 -30 0 -31
17 -1 23 45 9 84 7 140 -8z"/>
<path d="M6982 14789 c-71 -12 -215 -73 -277 -117 -80 -57 -185 -164 -185
-188 0 -12 6 -24 13 -27 16 -6 203 35 279 62 86 30 192 97 258 163 32 32 67
58 77 58 29 0 57 25 50 44 -5 13 -20 16 -84 15 -43 -1 -102 -5 -131 -10z m23
-104 c-89 -61 -185 -109 -272 -135 -108 -32 -120 -24 -48 33 97 77 252 145
333 146 l53 1 -66 -45z"/>
<path d="M5456 12323 c-34 -34 -44 -38 -95 -39 -33 -1 -77 -10 -107 -23 -93
-41 -145 -115 -171 -250 -15 -76 -15 -83 6 -165 22 -88 28 -207 13 -261 -12
-44 0 -78 30 -89 58 -21 138 77 212 259 25 61 59 161 76 224 17 62 34 121 39
130 5 9 14 41 20 71 8 39 20 64 41 83 35 33 46 63 30 82 -21 25 -54 17 -94
-22z m-106 -143 c0 -6 -6 -21 -14 -33 -8 -12 -26 -77 -40 -145 -25 -118 -52
-209 -74 -248 -13 -22 -11 -25 -41 96 -20 81 -20 88 -5 150 9 36 29 83 43 105
35 53 131 108 131 75z"/>
<path d="M15118 9169 c-83 -61 -190 -317 -274 -653 -10 -38 -27 -73 -50 -99
-19 -22 -34 -46 -34 -53 0 -12 26 -44 36 -44 14 0 62 31 83 54 19 21 34 26 70
26 62 0 107 14 163 49 109 69 159 261 109 425 -17 58 -21 141 -9 213 9 58 9
75 -1 87 -18 22 -60 20 -93 -5z m12 -304 c28 -105 22 -189 -17 -267 -23 -46
-71 -84 -131 -103 l-23 -7 19 39 c11 21 29 85 41 143 26 122 35 155 64 229 23
60 23 59 47 -34z"/>
<path d="M13645 6205 c-55 -12 -126 -33 -157 -45 -74 -28 -191 -105 -248 -164
-28 -29 -59 -50 -82 -57 -27 -7 -38 -15 -38 -29 0 -28 25 -31 142 -21 135 12
257 58 373 141 88 63 160 142 160 174 0 29 -30 30 -150 1z m39 -59 c-10 -26
-148 -114 -236 -150 -81 -33 -216 -61 -193 -39 21 20 112 81 159 107 78 43
191 83 268 95 4 1 5 -5 2 -13z"/>
<path d="M10761 5146 c-7 -9 -15 -53 -18 -98 -4 -68 -1 -94 16 -142 47 -134
198 -226 371 -226 52 0 77 6 125 29 75 37 119 70 92 71 -10 0 -30 9 -46 21
-15 11 -65 31 -110 44 -44 12 -106 38 -137 56 -71 42 -154 127 -197 199 -34
59 -71 76 -96 46z m142 -221 c71 -65 193 -137 255 -150 51 -11 27 -25 -42 -25
-85 0 -155 23 -214 69 -41 33 -51 48 -65 98 -27 93 -27 93 66 8z"/>
<path d="M15282 17810 c-18 -8 -23 -16 -20 -37 3 -24 10 -28 70 -43 45 -11 73
-24 87 -41 11 -13 20 -27 21 -31 1 -18 172 -153 258 -205 146 -87 267 -131
497 -179 184 -39 180 -39 198 -13 21 29 14 42 -82 147 -172 188 -492 362 -717
391 -125 15 -287 21 -312 11z m373 -111 c22 -6 103 -38 180 -70 187 -80 423
-245 393 -275 -10 -9 -112 13 -218 47 -106 34 -268 110 -346 161 -75 49 -208
139 -213 144 -9 9 166 3 204 -7z"/>
<path d="M18067 13662 c-29 -32 -20 -64 33 -124 48 -54 80 -118 80 -160 0 -10
15 -65 34 -121 19 -56 49 -156 66 -222 57 -214 168 -498 244 -619 51 -82 140
-172 181 -182 39 -10 78 7 94 41 12 25 12 37 -4 99 -29 109 -23 261 15 411 36
142 38 230 10 357 -40 182 -122 295 -265 363 -73 35 -88 39 -185 43 l-105 4
-42 44 c-47 49 -99 84 -124 84 -9 0 -23 -8 -32 -18z m421 -284 c107 -54 155
-122 197 -280 31 -114 31 -152 4 -248 -12 -41 -29 -113 -39 -159 -9 -47 -21
-86 -26 -88 -10 -3 -55 97 -95 212 -18 53 -60 237 -90 395 -6 30 -26 84 -45
120 -19 37 -34 72 -34 79 0 20 53 7 128 -31z"/>
<path d="M1695 8285 c-29 -28 -31 -56 -9 -133 26 -89 15 -275 -26 -427 -36
-136 -36 -192 0 -344 41 -172 125 -281 268 -349 69 -33 87 -37 177 -40 l100
-5 64 -58 c67 -62 103 -79 129 -62 46 29 40 70 -19 133 -59 64 -65 76 -84 165
-10 44 -26 101 -36 128 -10 26 -37 116 -59 200 -47 175 -39 152 -126 372 -137
343 -288 512 -379 420z m213 -458 c44 -109 69 -202 117 -432 19 -91 37 -149
62 -196 19 -37 32 -72 29 -78 -12 -19 -151 44 -213 98 -62 52 -133 241 -133
351 0 32 11 96 25 143 20 71 45 190 45 220 0 5 6 7 13 5 6 -3 31 -53 55 -111z"/>
<path d="M4086 3284 c-9 -8 -16 -22 -16 -30 0 -14 112 -145 171 -200 86 -79
239 -174 368 -228 72 -31 155 -62 184 -70 75 -22 372 -42 403 -28 26 13 32 43
11 61 -11 8 -100 31 -122 31 -2 0 -17 18 -33 40 -54 74 -200 187 -352 272 -70
40 -270 103 -435 137 -82 17 -153 31 -157 31 -4 0 -14 -7 -22 -16z m244 -108
c81 -16 269 -80 341 -116 68 -34 157 -89 237 -147 40 -28 81 -55 92 -58 11 -4
20 -12 20 -20 0 -19 -134 -9 -222 16 -107 31 -298 121 -389 184 -94 65 -159
123 -159 142 0 7 1 13 3 13 1 0 36 -7 77 -14z"/>
<path d="M9117 1468 c-13 -13 -43 -59 -67 -103 -75 -139 -266 -306 -427 -374
-37 -16 -110 -39 -161 -51 -63 -15 -109 -32 -142 -55 -28 -19 -62 -35 -77 -37
l-27 -3 34 -33 c19 -18 70 -51 113 -73 181 -92 439 -70 624 54 117 78 183 149
215 232 40 101 49 156 43 248 -10 143 -15 168 -40 193 -30 30 -59 30 -88 2z
m0 -307 c-4 -31 -16 -84 -28 -119 -17 -51 -31 -71 -77 -113 -118 -105 -301
-161 -453 -140 -40 5 -79 16 -87 24 -12 13 -5 17 59 32 169 38 388 176 529
333 25 28 49 48 54 45 5 -3 6 -31 3 -62z"/>
</g>
</svg>
