<?xml version="1.0" standalone="no"?>
<!DOCTYPE svg PUBLIC "-//W3C//DTD SVG 20010904//EN"
 "http://www.w3.org/TR/2001/REC-SVG-20010904/DTD/svg10.dtd">
<svg version="1.0" xmlns="http://www.w3.org/2000/svg"
 width="2048.000000pt" height="2048.000000pt" viewBox="0 0 2048.000000 2048.000000"
 preserveAspectRatio="xMidYMid meet">

<g transform="translate(0.000000,2048.000000) scale(0.100000,-0.100000)"
fill="#000000" stroke="none">
<path d="M10597 20439 c-83 -28 -125 -57 -182 -127 -75 -90 -77 -91 -171 -43
-109 55 -147 62 -263 49 -104 -11 -178 -36 -267 -89 -74 -45 -210 -148 -279
-211 -46 -42 -60 -49 -83 -44 -15 3 -94 21 -176 41 -171 40 -263 44 -435 20
-210 -31 -285 -65 -364 -170 -73 -96 -189 -210 -238 -236 -82 -41 -439 -47
-587 -10 -103 27 -138 27 -152 1 -13 -24 -5 -42 52 -118 62 -83 105 -118 213
-171 252 -124 450 -176 675 -176 112 0 117 1 205 40 90 40 90 40 210 38 230
-4 375 -10 382 -16 14 -15 -13 -20 -199 -38 -700 -67 -1341 -202 -2008 -421
-2702 -886 -4826 -2925 -5810 -5573 -42 -115 -85 -235 -95 -265 -10 -30 -20
-58 -24 -62 -4 -4 -29 4 -55 17 -54 27 -86 31 -104 13 -21 -21 -13 -61 23
-113 26 -38 41 -79 61 -161 23 -96 27 -136 31 -329 4 -198 2 -223 -14 -254
-18 -33 -55 -55 -246 -146 -31 -15 -71 -43 -88 -63 l-31 -35 6 -131 c3 -72 10
-162 15 -201 14 -96 14 -676 1 -711 -6 -15 -26 -45 -45 -65 -19 -21 -43 -55
-54 -77 -11 -21 -51 -72 -90 -113 -122 -127 -177 -272 -153 -403 13 -69 55
-182 103 -278 36 -70 36 -85 3 -133 -24 -36 -114 -217 -114 -230 0 -4 -6 -21
-14 -38 -83 -185 -79 -208 61 -362 41 -44 73 -89 73 -100 0 -26 -52 -128 -91
-176 -90 -114 -99 -240 -34 -494 13 -49 35 -155 50 -235 14 -80 44 -201 66
-270 21 -69 39 -131 39 -138 0 -26 45 -139 70 -177 15 -22 41 -67 59 -101 46
-87 110 -156 206 -220 47 -31 88 -60 91 -65 3 -5 31 -28 62 -51 31 -23 58 -42
60 -43 5 -4 -66 -246 -94 -320 -32 -85 -43 -189 -52 -467 l-7 -207 -33 -34
c-25 -26 -33 -42 -30 -63 3 -24 16 -36 88 -76 47 -26 102 -50 122 -53 49 -9
143 11 194 41 23 13 44 20 48 17 3 -3 6 -31 6 -61 0 -73 27 -255 47 -317 9
-27 36 -92 60 -143 48 -104 83 -201 83 -232 0 -22 -19 -32 -85 -46 -33 -8 -41
-14 -43 -35 -2 -21 8 -36 50 -73 98 -86 211 -121 264 -81 33 25 44 18 44 -27
0 -62 25 -169 50 -218 12 -24 55 -92 96 -153 85 -125 116 -209 116 -304 -1
-107 45 -112 93 -11 38 79 116 174 161 195 32 16 36 16 62 -4 15 -11 38 -46
52 -79 24 -57 25 -66 25 -294 0 -221 1 -235 19 -238 41 -8 107 22 175 79 l69
58 33 -51 c44 -68 104 -219 130 -326 20 -85 22 -178 4 -259 -6 -26 -3 -33 15
-43 19 -10 26 -7 61 30 51 53 69 88 94 184 21 83 42 109 68 87 9 -7 36 -54 60
-104 25 -51 57 -105 72 -121 25 -27 29 -28 90 -23 72 7 64 15 85 -90 26 -132
-12 -327 -81 -411 -52 -62 -51 -85 4 -114 57 -31 181 -31 252 1 26 12 49 20
50 19 1 -2 12 -46 24 -99 20 -82 22 -105 13 -161 -12 -76 -52 -162 -84 -179
-13 -7 -47 -17 -78 -23 -49 -10 -55 -14 -58 -38 -3 -23 2 -28 35 -38 69 -21
202 -24 266 -5 65 19 173 88 260 165 32 29 61 50 64 46 10 -9 -14 -179 -33
-241 -13 -41 -15 -58 -7 -66 23 -23 40 1 102 137 54 118 74 169 107 273 11 34
25 -12 40 -125 22 -164 22 -588 1 -699 -22 -111 -59 -258 -94 -366 -7 -25 15
-59 38 -59 25 0 51 44 100 165 89 221 163 545 175 768 4 70 10 130 15 133 4 2
13 -13 19 -35 12 -46 69 -111 96 -111 11 0 28 -6 39 -13 11 -7 43 -22 70 -32
141 -51 186 -101 263 -288 15 -35 39 -44 60 -23 12 12 19 43 23 111 10 128 17
138 52 71 16 -30 43 -71 61 -93 42 -49 74 -111 82 -160 3 -21 1 -97 -5 -168
-14 -169 -4 -258 49 -416 63 -185 103 -249 160 -249 40 0 46 41 22 143 -27
111 -28 160 -4 207 12 25 24 35 40 35 25 0 26 -2 94 -137 48 -96 104 -163 154
-184 43 -18 113 -18 189 1 78 19 158 19 239 0 36 -9 89 -16 117 -17 47 -1 53
-4 70 -33 11 -18 37 -40 59 -50 49 -22 76 -63 85 -130 19 -136 79 -273 143
-322 77 -59 229 -58 398 1 75 27 129 38 205 45 l104 9 53 -59 c66 -72 218
-175 332 -225 73 -31 99 -37 180 -41 85 -5 101 -3 140 17 58 29 85 54 125 116
19 29 66 86 107 128 83 87 96 90 180 52 147 -67 218 -77 289 -41 34 18 69 81
69 127 0 51 13 64 45 50 62 -28 178 -52 255 -52 82 0 237 34 306 66 52 25 84
68 84 114 0 48 -10 55 -80 56 -149 3 -294 47 -397 120 -111 79 -111 78 -61
133 23 25 45 47 49 49 4 2 35 -16 69 -38 116 -80 139 -85 365 -85 l200 0 26
-49 c34 -62 116 -148 165 -171 21 -10 57 -20 81 -23 34 -4 48 -12 68 -39 42
-55 186 -174 271 -225 156 -93 419 -143 499 -95 40 24 98 109 119 174 10 29
25 62 34 73 16 20 19 20 56 5 21 -9 71 -36 110 -59 149 -91 240 -136 314 -157
125 -35 348 -17 453 36 168 86 236 142 282 230 27 54 30 70 31 152 1 83 -1 95
-22 115 -19 20 -35 24 -107 27 -47 1 -85 6 -85 8 0 3 17 26 37 51 l36 44 66
-6 c243 -22 365 -25 440 -10 42 9 94 24 116 33 54 24 153 92 190 131 39 41 63
53 203 101 64 22 212 78 328 124 1919 762 3532 2149 4578 3939 699 1194 1144
2617 1236 3946 6 85 13 173 17 195 l6 40 54 -60 c128 -140 232 -331 256 -470
14 -80 14 -103 2 -205 -8 -63 -14 -149 -15 -190 0 -41 -7 -100 -15 -130 -8
-30 -15 -58 -15 -62 0 -20 29 -4 65 33 22 23 65 63 97 89 84 71 267 279 291
330 71 155 77 406 13 592 -28 83 -143 314 -208 418 -77 124 -179 307 -206 370
-26 59 -36 200 -22 282 8 47 23 81 58 133 45 67 47 73 47 141 0 45 4 70 10 67
11 -4 104 -139 124 -180 20 -39 51 -147 51 -176 0 -15 -7 -44 -15 -64 -29 -69
2 -93 123 -93 98 1 140 19 212 96 65 69 118 160 150 259 22 65 23 76 12 155
-22 154 -32 201 -56 249 -32 63 -154 219 -208 266 -42 36 -150 95 -175 95 -38
0 9 52 120 136 80 61 104 88 133 149 49 103 24 205 -79 326 -115 136 -362 257
-580 284 -64 8 -62 5 -72 116 -8 100 30 309 57 309 12 0 56 -93 98 -205 40
-105 58 -128 83 -106 28 23 52 157 51 291 0 109 -4 135 -27 203 -36 103 -70
169 -112 216 -19 21 -35 43 -35 49 0 17 70 72 127 99 70 34 103 80 103 146 0
64 -20 99 -78 138 -26 18 -50 37 -53 42 -14 21 -18 87 -9 138 8 42 19 63 53
97 23 24 61 54 83 67 57 33 94 80 94 117 0 46 -54 147 -111 206 -55 58 -213
178 -275 210 -61 31 -116 87 -112 113 2 12 10 26 19 32 26 16 123 -35 197
-104 36 -34 89 -77 118 -95 51 -32 57 -34 146 -34 91 0 95 -1 158 -40 87 -53
174 -155 196 -229 32 -110 89 -186 135 -179 23 3 24 8 31 93 7 97 29 259 47
340 6 28 18 86 27 130 9 44 22 100 29 125 40 143 42 244 6 325 -42 94 -280
385 -362 443 -41 28 -96 34 -167 16 -62 -16 -66 -16 -79 2 -17 24 -17 35 9
123 12 43 22 107 22 147 1 70 0 73 -44 130 -31 40 -75 79 -140 123 -52 35 -95
66 -94 70 0 3 11 29 24 56 13 28 25 75 27 105 5 75 -34 138 -109 176 -114 57
-393 236 -401 257 -3 7 1 24 9 38 18 32 18 177 0 226 -7 21 -19 56 -25 78 -19
71 -128 202 -234 281 -92 69 -206 95 -422 97 l-130 2 -9 40 c-25 120 -79 221
-177 334 -38 42 -38 44 -24 78 24 56 56 94 92 110 33 13 37 12 81 -13 26 -15
69 -52 97 -83 123 -137 200 -201 246 -201 20 0 33 -10 53 -40 28 -43 89 -80
131 -80 14 0 63 15 108 34 45 18 105 41 134 50 53 18 124 63 155 100 10 12 27
45 38 75 20 52 20 57 5 130 -25 122 -80 223 -172 315 -43 43 -69 76 -58 72 91
-33 135 -32 135 3 0 22 -134 183 -190 227 -22 17 -78 44 -124 59 -74 24 -95
27 -153 21 -173 -18 -183 -18 -197 -7 -8 6 -41 60 -74 119 -112 197 -154 228
-346 257 -43 7 -43 10 -15 107 10 39 11 59 1 104 -17 81 -42 124 -98 167 -78
60 -140 85 -257 105 -98 16 -116 17 -190 4 -64 -11 -95 -12 -143 -3 -81 15
-91 14 -98 -5 -4 -11 8 -32 38 -64 29 -31 47 -61 52 -85 7 -42 0 -207 -10
-223 -5 -8 -16 -7 -39 3 -18 7 -86 31 -152 52 -103 32 -132 37 -205 36 -85 -1
-223 -28 -310 -60 -128 -48 -235 -142 -288 -253 -17 -36 -45 -85 -62 -109
l-32 -43 -31 38 c-60 76 -143 149 -202 179 -58 29 -65 30 -177 27 -137 -3
-230 -27 -282 -72 -39 -35 -38 -36 -84 62 -49 100 -137 177 -293 255 -134 67
-235 96 -376 108 -108 10 -112 2 -71 -115 17 -47 39 -111 51 -143 11 -31 18
-60 15 -62 -3 -3 -34 10 -70 29 -61 31 -105 42 -251 61 -40 5 -47 9 -42 23 44
106 26 263 -38 330 -44 46 -72 43 -127 -17 -39 -42 -53 -50 -105 -61 -33 -7
-105 -13 -160 -14 -84 -1 -119 4 -220 32 -66 19 -154 36 -196 39 l-77 6 29 46
c86 141 101 511 21 511 -10 0 -27 -9 -36 -19 -33 -36 -114 -59 -231 -65 -61
-3 -150 -15 -199 -26 -90 -22 -232 -86 -314 -142 l-42 -29 -11 28 c-13 35 -71
153 -104 213 -14 25 -25 49 -25 55 0 42 -237 288 -347 362 -61 40 -149 67
-293 89 -25 3 -87 27 -138 51 -147 70 -329 98 -462 73 -83 -16 -149 -52 -228
-125 -46 -43 -74 -62 -77 -53 -2 7 -9 32 -15 55 -31 121 -165 173 -313 122z
m178 -72 c34 -19 43 -32 67 -97 27 -73 55 -110 84 -110 8 0 53 36 101 81 48
44 99 87 113 94 33 17 131 35 191 35 87 0 239 -37 324 -79 88 -43 127 -56 195
-66 118 -17 183 -39 244 -83 77 -56 173 -149 235 -227 53 -68 171 -292 196
-375 9 -30 26 -74 37 -98 11 -24 17 -46 14 -50 -4 -3 -30 5 -59 17 -99 43
-141 53 -242 54 -109 2 -202 -16 -320 -60 -155 -58 -198 -91 -177 -138 14 -31
95 -66 176 -76 140 -18 177 -74 184 -282 4 -122 -8 -217 -28 -217 -4 0 -35 35
-68 79 -74 95 -198 213 -265 251 -73 41 -152 55 -229 40 -94 -18 -152 -47
-201 -99 -115 -123 -149 -217 -127 -346 15 -87 34 -133 99 -231 28 -42 49 -79
47 -82 -3 -2 -103 3 -223 12 -247 18 -356 20 -461 6 -90 -12 -144 -35 -225
-97 -56 -43 -67 -48 -109 -46 -30 1 -72 14 -115 35 -54 27 -75 45 -115 98 -26
36 -67 85 -91 110 -51 53 -115 150 -153 235 -24 51 -29 81 -37 194 -10 154 -3
198 45 276 17 28 48 66 69 86 56 52 52 119 -8 133 -16 4 -57 18 -93 30 -36 13
-114 35 -175 49 -133 31 -462 87 -511 87 l-35 0 15 28 c8 15 34 55 59 87 24
33 76 104 116 158 39 53 76 97 81 97 5 0 15 12 22 27 20 43 289 242 407 303
52 26 158 50 224 50 51 0 121 -25 198 -72 25 -15 57 -28 70 -28 36 0 80 31
135 95 55 64 90 88 166 115 69 25 104 24 153 -3z m-1607 -428 c75 -17 140 -34
144 -38 4 -3 -27 -51 -68 -106 -116 -154 -131 -175 -180 -248 -27 -41 -44 -78
-42 -90 3 -24 13 -25 138 -16 51 4 270 -30 440 -67 36 -8 94 -21 130 -29 36
-8 90 -24 120 -35 30 -12 61 -23 69 -26 10 -3 3 -16 -26 -47 -53 -54 -98 -132
-119 -204 -23 -78 -13 -276 17 -366 37 -110 128 -277 187 -346 105 -119 148
-158 198 -176 27 -10 50 -20 52 -21 2 -1 -4 -17 -13 -34 -16 -31 -19 -32 -65
-27 -63 8 -102 28 -164 87 -28 26 -78 65 -111 87 -33 22 -101 79 -151 125
-143 132 -228 169 -489 213 -166 29 -347 12 -540 -49 -43 -14 -81 -23 -84 -21
-16 17 182 237 263 292 23 15 67 47 99 70 31 23 83 49 114 58 71 21 113 62
141 138 28 73 28 115 1 173 -35 72 -41 74 -346 77 l-268 2 -88 -44 -87 -44
-113 6 c-61 3 -134 10 -162 16 -27 5 -79 15 -115 22 -127 24 -408 150 -480
215 -59 54 -54 64 23 48 73 -16 202 -17 382 -4 113 8 138 13 190 39 69 34 160
118 258 237 76 92 110 112 242 138 121 23 122 23 248 25 100 1 140 -4 255 -30z
m4256 -201 c12 -47 5 -157 -15 -239 -26 -102 -27 -105 -95 -184 -77 -91 -60
-116 64 -95 59 10 81 8 169 -10 55 -11 131 -30 169 -40 83 -24 157 -25 282 -5
101 16 159 41 189 78 22 28 39 25 57 -11 35 -70 25 -200 -19 -257 -46 -62 -29
-85 65 -85 127 -1 199 -17 300 -69 139 -72 269 -122 296 -115 14 4 24 2 24 -4
0 -20 -53 -73 -92 -93 -113 -57 -179 -200 -134 -288 22 -41 119 -117 184 -143
45 -17 82 -23 175 -26 70 -2 131 1 149 7 17 6 33 10 35 8 6 -6 -49 -100 -79
-135 -15 -18 -28 -40 -28 -48 0 -26 45 -58 132 -94 76 -31 94 -35 213 -40
l130 -5 -61 -32 c-73 -38 -93 -73 -70 -127 16 -38 91 -96 170 -131 52 -23 56
-27 56 -59 0 -19 -5 -47 -12 -60 -19 -42 7 -59 121 -80 67 -13 128 -17 188
-14 77 4 101 10 188 48 55 24 126 61 157 82 31 21 61 38 67 38 14 0 51 -105
51 -146 0 -20 -8 -49 -17 -65 -14 -23 -15 -33 -6 -47 9 -15 25 -17 124 -14
l113 4 -81 -64 c-44 -35 -116 -95 -159 -133 -183 -163 -430 -307 -647 -376
-34 -11 -65 -18 -70 -16 -5 1 10 20 33 41 76 69 314 332 335 369 18 34 18 38
3 53 -16 16 -24 10 -125 -78 -93 -82 -123 -101 -208 -138 -144 -61 -308 -116
-400 -134 -118 -23 -298 -39 -348 -32 l-44 7 48 137 c62 174 69 235 39 333
-28 95 -51 131 -114 181 l-51 41 100 -5 c90 -4 109 -8 183 -42 79 -36 84 -37
108 -22 31 21 32 60 0 163 -13 43 -29 100 -36 128 -54 228 -179 368 -400 446
l-95 34 -212 0 c-185 0 -212 2 -208 15 41 139 40 381 -1 447 -8 13 -32 27 -56
33 -24 7 -86 33 -138 59 -117 59 -143 68 -249 81 -111 13 -203 -9 -294 -73
-16 -10 -25 -4 -78 53 -175 187 -194 200 -283 200 -30 0 -67 -5 -82 -10 -108
-42 -350 -72 -501 -63 l-112 6 -10 -26 c-6 -15 -8 -33 -5 -41 9 -23 -8 -25
-91 -10 -44 8 -102 18 -130 22 l-50 7 -1 44 c-5 123 -17 188 -47 251 -43 87
-90 119 -195 132 -154 20 -157 28 -26 74 112 40 226 58 335 52 70 -4 97 -11
162 -41 56 -27 91 -37 126 -37 47 0 50 1 56 31 4 17 4 54 1 83 l-7 51 73 61
c75 63 186 125 267 150 25 8 105 17 178 21 104 5 144 11 185 28 68 29 74 29
82 3z m4134 -473 c87 -15 113 -26 187 -76 57 -39 72 -62 87 -132 11 -50 9 -63
-11 -129 -13 -40 -21 -86 -19 -103 3 -29 5 -30 70 -37 92 -9 171 -33 208 -65
18 -14 63 -74 100 -132 38 -58 80 -121 95 -138 45 -55 123 -64 257 -31 88 22
243 -40 309 -123 33 -41 33 -42 9 -36 -167 47 -364 70 -400 47 -24 -15 1 -43
51 -58 24 -7 58 -17 74 -23 17 -6 55 -16 85 -23 108 -23 277 -173 331 -292 94
-207 60 -306 -126 -372 -33 -12 -91 -33 -128 -47 -37 -14 -77 -25 -88 -25 -21
0 -62 36 -89 78 -10 15 -31 27 -61 33 -39 9 -58 22 -115 82 -38 40 -89 96
-113 124 -53 65 -134 113 -187 113 -68 0 -137 -58 -204 -171 -14 -23 -70 -87
-125 -144 -104 -106 -179 -155 -238 -155 -77 0 -210 52 -275 107 l-34 28 21
53 c14 36 21 75 21 123 0 72 -8 96 -55 165 -14 20 -30 55 -36 78 -14 56 -70
208 -82 224 -12 15 -91 15 -182 -2 -76 -14 -221 -73 -272 -112 -40 -30 -59
-30 -106 1 -38 26 -69 78 -107 176 -25 67 -25 86 0 127 23 38 44 47 158 71 94
20 107 29 98 64 -10 43 -69 58 -264 66 -95 5 -174 10 -177 12 -2 3 11 36 29
74 75 156 182 231 407 284 132 32 196 28 344 -19 69 -22 143 -50 164 -62 45
-26 64 -20 87 24 14 26 18 60 18 168 1 74 -2 144 -7 156 -7 19 -2 22 60 31 99
15 139 14 231 -2z m-2792 -189 c27 -7 75 -19 106 -25 88 -19 250 -102 313
-162 41 -38 66 -77 111 -165 62 -126 88 -152 123 -120 10 9 21 30 24 46 14 67
117 102 270 91 86 -6 111 -12 156 -36 109 -60 225 -219 252 -346 10 -47 9 -54
-25 -125 -71 -150 -41 -195 149 -224 99 -15 361 -93 429 -127 52 -26 129 -88
250 -200 l69 -63 -18 -43 c-42 -97 -126 -186 -217 -233 -61 -31 -76 -34 -153
-34 l-85 0 0 54 c0 103 -66 226 -121 226 -26 0 -54 -15 -105 -56 -53 -43 -193
-108 -266 -123 -47 -10 -73 -10 -145 4 -143 25 -130 17 -125 77 5 64 -18 100
-76 119 -52 16 -150 77 -162 100 -8 14 -6 21 7 29 10 6 83 48 163 94 147 84
170 107 136 135 -12 10 -20 9 -43 -2 -60 -31 -177 -51 -298 -51 -115 -1 -123
0 -202 34 -46 19 -83 38 -83 42 0 10 40 72 88 136 32 43 42 64 40 87 -3 27 -7
30 -40 33 -22 2 -56 -5 -84 -17 -62 -28 -188 -29 -266 -2 -77 26 -107 43 -155
89 -47 43 -52 65 -31 135 10 33 23 47 78 82 99 65 174 160 185 235 6 38 3 48
-14 64 -21 19 -22 19 -69 -32 l-47 -52 -64 34 -64 33 -27 94 c-14 52 -31 104
-38 116 -7 12 -12 31 -12 42 0 25 17 26 86 7z m-3065 -110 c31 -12 83 -43 116
-68 102 -79 202 -198 165 -198 -21 0 -116 -99 -146 -153 -43 -77 -109 -259
-104 -289 5 -35 34 -33 91 5 29 19 75 42 102 51 69 21 286 37 333 24 54 -15
103 -42 134 -75 28 -29 104 -180 95 -189 -5 -5 -104 -23 -244 -45 -94 -14
-149 -49 -203 -129 -43 -64 -53 -105 -29 -121 8 -5 36 -9 63 -9 50 0 50 0 156
-104 111 -110 136 -126 201 -126 48 0 81 20 110 67 22 35 70 63 107 63 18 0
19 -8 15 -152 -5 -176 9 -276 58 -421 40 -118 78 -187 147 -266 127 -145 217
-203 637 -410 202 -100 308 -141 510 -199 163 -48 513 -66 965 -52 272 9 391
18 715 55 353 41 390 48 615 123 182 60 274 103 366 168 74 53 86 67 78 88
-10 27 -63 19 -179 -30 -102 -42 -168 -65 -286 -100 -25 -7 -54 -16 -65 -20
-34 -12 169 125 226 153 30 15 82 43 115 63 33 20 124 68 202 106 144 70 167
90 142 121 -11 12 -25 14 -68 9 l-55 -7 20 22 c19 21 238 206 364 308 36 28
93 66 128 83 58 29 70 31 180 33 64 1 127 5 140 9 19 7 22 5 22 -15 0 -13 -14
-80 -30 -149 -16 -69 -30 -147 -30 -175 -2 -185 -71 -415 -176 -580 -30 -48
-158 -197 -174 -203 -4 -2 -10 27 -12 64 -4 58 -8 70 -32 91 -25 21 -31 22
-49 10 -12 -8 -30 -41 -42 -79 -12 -36 -40 -97 -62 -134 -22 -38 -51 -89 -63
-114 -13 -25 -50 -79 -84 -120 -63 -77 -266 -290 -275 -290 -3 0 -26 37 -51
83 -35 64 -72 109 -170 207 -69 70 -142 135 -162 145 l-38 20 -26 -26 c-21
-22 -28 -41 -36 -105 -17 -140 -46 -242 -103 -358 -44 -91 -64 -120 -104 -154
-27 -23 -63 -66 -80 -94 -42 -73 -87 -119 -106 -112 -39 15 -103 139 -141 274
-38 129 -95 273 -160 401 -31 59 -59 120 -63 135 -9 36 -35 53 -58 38 -10 -6
-31 -35 -47 -65 -37 -68 -134 -162 -206 -199 -92 -48 -153 -101 -180 -155 -30
-61 -32 -156 -6 -310 32 -188 37 -216 43 -231 5 -14 3 -15 -23 -1 -16 8 -38
25 -49 37 -52 58 -171 77 -264 41 -98 -37 -257 -175 -301 -260 -18 -36 -19
-49 -12 -92 9 -47 8 -52 -17 -74 -37 -35 -200 -165 -206 -165 -3 0 -5 9 -5 20
0 52 -77 137 -146 161 -25 9 -85 14 -169 14 -128 0 -131 0 -187 -33 -35 -19
-58 -27 -58 -20 0 37 196 187 374 288 71 41 96 68 96 108 0 37 -38 81 -143
166 -27 21 -63 57 -80 81 -223 298 -384 418 -609 456 -69 11 -87 11 -149 -4
-105 -25 -169 -60 -250 -135 -63 -58 -79 -81 -124 -174 l-52 -107 -22 55 c-50
118 -182 200 -401 246 l-65 13 -1 100 c-1 110 -16 160 -62 208 -30 31 -236
144 -324 177 -31 11 -96 46 -144 76 -211 133 -247 206 -187 381 48 142 35 219
-48 268 -30 17 -50 20 -174 18 -166 -3 -227 11 -284 62 -60 55 -73 112 -69
299 3 134 1 156 -14 173 -27 30 -149 47 -276 39 -235 -14 -338 -24 -362 -34
-14 -5 -50 -13 -80 -17 -30 -4 -70 -13 -89 -21 -18 -8 -37 -14 -41 -14 -13 0
1 163 17 193 18 36 78 62 179 77 130 19 162 30 190 63 21 25 25 38 21 69 -3
20 -14 50 -25 65 -31 45 -33 74 -8 118 l23 40 66 -3 c59 -3 70 -1 109 26 122
83 241 102 660 102 162 0 298 4 312 10 44 16 35 58 -37 168 -98 148 -100 155
-101 257 -1 88 0 91 38 150 51 80 84 114 126 133 86 37 154 40 231 8z m1596
-119 c18 -12 65 -61 104 -108 83 -102 138 -149 173 -149 14 0 41 14 60 30 42
37 134 70 195 70 79 0 175 -27 267 -73 49 -24 104 -48 122 -52 23 -5 36 -15
43 -33 15 -39 2 -230 -23 -338 -37 -158 -20 -174 154 -143 190 34 314 26 443
-28 172 -72 270 -195 330 -413 12 -47 28 -98 34 -113 21 -54 16 -58 -50 -31
-111 45 -485 55 -534 14 -36 -30 -1 -64 78 -74 89 -11 200 -68 235 -120 42
-65 49 -217 12 -286 -5 -10 -24 -56 -41 -102 -16 -46 -55 -129 -86 -186 -54
-101 -55 -103 -76 -88 -32 23 -190 116 -279 165 -120 65 -222 81 -326 49 -67
-20 -95 24 -106 167 -3 44 -19 126 -35 183 -27 96 -32 106 -83 158 -43 43 -64
57 -94 61 -98 13 -157 -119 -134 -302 4 -33 6 -61 5 -63 -2 -2 -34 17 -71 41
-70 45 -154 87 -174 87 -38 0 -110 -88 -119 -148 -8 -47 -26 -50 -87 -14 -55
32 -105 99 -130 177 -19 58 -87 200 -142 298 -46 82 -172 216 -229 246 -84 42
-181 18 -249 -63 -61 -73 -69 -69 -225 88 -73 75 -101 96 -122 96 -32 0 -33 5
-7 48 29 47 83 67 254 91 161 23 186 34 186 82 0 39 -75 208 -108 242 -68 73
-167 117 -261 117 -92 0 -242 -27 -304 -54 -32 -14 -60 -26 -62 -26 -18 0 18
112 57 180 11 19 47 57 79 83 l59 49 19 -45 c37 -86 90 -70 143 43 30 63 37
71 71 81 28 7 65 7 130 -1 117 -15 186 -11 201 12 8 13 6 21 -7 36 -29 32 -22
44 21 35 73 -15 243 -6 382 20 74 14 146 28 160 31 46 8 114 -4 147 -27z
m3193 -316 c23 -7 20 -9 -26 -24 -28 -10 -63 -30 -77 -45 -30 -31 -57 -91 -57
-125 0 -33 42 -147 79 -212 17 -30 29 -55 27 -55 -16 0 -172 22 -224 32 -78
15 -91 28 -66 65 70 107 78 163 39 276 -24 67 -24 73 -8 84 18 14 267 17 313
4z m-6588 -388 c24 -21 48 -43 53 -49 36 -41 107 -81 167 -93 65 -14 65 -14
93 -68 23 -47 25 -57 14 -69 -8 -7 -64 -21 -124 -30 -121 -18 -190 -37 -219
-63 -44 -38 -63 -84 -69 -166 -3 -44 -8 -87 -11 -96 -4 -8 -30 -29 -58 -45
-63 -36 -77 -56 -58 -79 12 -15 29 -16 115 -13 83 3 109 9 150 30 171 88 508
141 655 102 36 -9 68 -19 72 -23 3 -3 3 -70 -2 -148 -12 -220 15 -291 144
-373 93 -60 136 -74 207 -66 166 18 189 19 214 2 33 -22 32 -55 -5 -158 -45
-122 -40 -230 13 -309 53 -79 243 -201 382 -245 106 -33 273 -118 308 -155 24
-26 27 -37 27 -97 0 -44 -6 -79 -18 -102 -17 -34 -18 -35 -107 -47 -49 -6
-117 -12 -150 -12 -65 -1 -223 -37 -241 -55 -6 -6 -22 -48 -34 -93 -22 -77
-23 -88 -11 -180 12 -103 55 -232 93 -284 12 -16 19 -31 17 -34 -3 -2 -61 -9
-130 -15 -243 -20 -320 -42 -415 -118 -57 -46 -96 -112 -140 -237 -24 -68 -28
-95 -28 -185 0 -92 4 -117 32 -200 18 -52 42 -124 54 -160 41 -126 76 -188
124 -221 61 -42 123 -69 161 -69 26 0 39 8 65 41 18 22 44 62 58 87 15 29 39
54 62 67 35 20 42 20 123 9 99 -15 173 -50 214 -103 23 -29 29 -50 34 -107 6
-73 26 -135 54 -166 8 -9 38 -25 67 -34 89 -30 93 -54 39 -212 -45 -134 -50
-222 -14 -292 36 -70 158 -208 215 -245 29 -18 58 -40 65 -49 17 -21 106 -71
151 -84 19 -6 88 -18 152 -25 102 -13 125 -19 185 -52 37 -21 80 -47 95 -58
31 -23 244 -79 271 -71 33 10 38 38 22 121 -19 99 -19 176 0 212 18 35 94 70
180 82 35 5 74 13 88 18 30 12 127 0 179 -22 54 -22 83 -76 123 -222 20 -71
43 -141 52 -155 71 -108 311 -250 423 -250 66 0 84 19 105 108 13 55 28 88 62
133 24 32 49 61 54 64 10 7 32 -37 89 -185 68 -172 98 -216 190 -280 l23 -16
-32 -56 c-52 -92 -101 -246 -136 -426 -8 -40 -19 -81 -25 -91 -5 -11 -10 -44
-10 -74 0 -50 3 -58 37 -91 21 -20 41 -36 45 -36 8 0 83 -113 163 -245 94
-156 209 -323 256 -371 49 -51 84 -47 228 25 149 74 314 121 426 120 49 -1 51
-1 115 -74 71 -80 131 -188 155 -278 27 -100 67 -118 160 -72 28 13 65 25 82
25 28 0 33 -4 38 -27 18 -89 61 -113 195 -113 l95 0 54 -72 c91 -124 145 -273
157 -436 3 -42 12 -111 19 -152 7 -41 16 -127 20 -190 8 -153 10 -160 40 -160
18 0 28 8 36 28 22 56 44 96 82 146 62 82 124 205 146 286 12 47 22 127 26
215 4 77 10 144 14 148 12 12 62 -11 121 -57 30 -24 73 -53 95 -65 22 -12 69
-40 105 -63 123 -78 222 -87 350 -34 111 47 143 74 186 158 38 71 91 122 142
135 38 9 71 -13 94 -64 20 -45 20 -58 15 -387 -5 -328 -20 -569 -52 -836 -220
-1825 -1042 -3516 -2340 -4815 -1042 -1042 -2362 -1793 -3782 -2150 -223 -56
-233 -57 -344 -40 -113 17 -135 27 -150 74 -16 48 1 96 59 161 73 83 82 100
82 151 0 60 -22 80 -174 156 -119 59 -235 135 -279 181 l-28 29 63 18 c87 24
366 162 460 227 115 80 287 226 300 254 14 30 -3 47 -37 40 -11 -2 -58 -12
-105 -21 -171 -34 -216 -43 -280 -58 -181 -43 -556 -54 -783 -23 -65 9 -119
16 -121 16 -2 0 -9 13 -16 30 -19 45 -90 105 -156 130 -105 40 -171 46 -286
28 -90 -15 -112 -15 -173 -3 -113 21 -372 130 -432 181 -17 14 -26 40 -37 107
-8 50 -28 116 -45 153 -24 51 -31 80 -31 127 0 100 -41 152 -175 219 -28 14
-75 31 -105 38 -30 7 -103 30 -162 51 -83 30 -134 41 -220 49 -62 6 -142 15
-178 21 -169 27 -339 19 -480 -21 -101 -29 -278 -105 -335 -144 -28 -20 -57
-36 -63 -36 -6 0 -31 14 -56 30 -100 68 -213 102 -421 130 -102 14 -245 46
-257 58 -15 15 70 82 148 117 78 36 92 51 75 83 -18 33 -132 142 -201 193 -55
40 -256 149 -274 149 -4 0 -25 12 -49 27 -23 14 -73 32 -110 39 -100 19 -138
41 -164 94 -26 49 -29 110 -12 190 10 47 15 53 55 73 41 20 48 20 120 8 85
-14 104 -7 104 38 0 41 -80 151 -208 284 -120 124 -129 138 -157 239 -36 129
-182 287 -345 373 -190 100 -262 111 -368 55 -34 -18 -82 -35 -106 -37 -54 -6
-71 10 -105 99 -57 152 -77 183 -149 232 -37 25 -88 53 -115 62 -61 21 -82 49
-102 138 -13 58 -14 85 -5 141 9 63 14 73 50 105 25 22 40 44 40 58 0 26 -31
91 -64 137 -12 17 -32 47 -44 67 -40 71 -204 248 -280 305 -105 78 -153 98
-232 97 -96 -1 -145 -33 -203 -134 -58 -101 -78 -176 -85 -319 l-7 -134 -48
42 c-119 102 -248 171 -322 170 -67 0 -82 -20 -128 -174 -16 -55 -36 -122 -45
-150 -8 -27 -15 -89 -16 -138 -1 -53 -5 -86 -11 -84 -5 2 -24 22 -42 46 -37
48 -84 186 -107 311 -46 258 -101 422 -172 516 -13 18 -44 45 -69 60 -34 22
-53 44 -77 92 -36 74 -63 92 -111 74 -17 -6 -32 -10 -34 -8 -2 2 5 32 17 67
11 35 26 99 31 142 10 67 8 91 -10 180 -32 159 -66 231 -170 357 -77 94 -143
145 -229 175 -42 15 -81 31 -85 35 -20 17 -24 89 -16 257 16 319 28 430 53
492 13 31 40 102 60 158 19 56 49 131 66 166 46 95 33 117 -71 117 -136 0
-208 -48 -281 -186 -46 -89 -61 -142 -74 -264 -3 -36 -10 -71 -14 -79 -12 -23
-37 32 -120 265 -32 89 -81 280 -100 389 -7 39 -26 135 -42 215 -50 248 -66
342 -72 435 -4 50 -14 140 -22 201 -17 116 -16 122 20 321 7 39 29 105 49 145
46 96 55 128 33 128 -9 0 -30 -10 -46 -22 -50 -37 -53 -16 -16 147 199 876
509 1656 961 2415 559 938 1330 1786 2203 2424 1227 897 2666 1429 4177 1546
83 6 161 13 175 14 14 2 109 4 212 5 l188 1 42 -37z m7153 -14 c10 -10 10 -94
-1 -194 -7 -67 -30 -184 -38 -192 -2 -3 -55 39 -118 92 -71 62 -139 110 -183
131 -38 19 -70 40 -70 47 0 6 43 33 95 60 129 64 279 91 315 56z m109 -313
c22 -46 20 -110 -5 -181 -31 -87 -22 -114 56 -177 36 -28 65 -53 65 -54 0 -1
-24 -15 -53 -32 -60 -34 -214 -158 -348 -282 -51 -47 -89 -78 -84 -70 5 8 42
66 82 128 40 62 80 127 90 145 32 62 107 324 138 486 19 98 27 103 59 37z
m-4414 -188 c49 -42 159 -195 203 -283 68 -136 87 -193 101 -300 12 -95 17
-111 56 -170 50 -76 126 -150 236 -227 102 -71 236 -148 294 -170 285 -104
374 -119 705 -119 193 0 249 3 285 16 24 9 123 36 220 61 368 96 688 223 850
339 58 42 110 68 110 56 0 -18 -156 -153 -223 -193 -78 -47 -85 -55 -65 -74
13 -13 23 -13 79 0 111 26 252 55 299 61 25 3 88 16 140 30 52 13 122 26 155
30 33 3 89 10 125 15 36 5 97 12 135 15 65 6 68 5 50 -9 -44 -34 -214 -88
-485 -155 -157 -39 -309 -80 -339 -91 -146 -56 -222 -104 -206 -129 9 -16 52
-13 88 6 26 13 68 16 242 18 116 1 244 5 285 8 84 8 71 -3 -25 -22 -90 -18
-397 -51 -770 -82 -232 -19 -596 -27 -836 -18 -263 9 -341 17 -434 44 -109 31
-278 86 -304 99 -14 8 -57 21 -95 31 -38 9 -85 27 -105 39 -20 12 -44 25 -54
29 -10 4 -78 43 -152 87 -74 44 -138 80 -141 80 -35 0 -238 194 -300 287 -95
143 -159 373 -167 600 -4 130 -4 131 43 91z m5219 -85 c28 -38 62 -88 75 -113
22 -41 56 -172 56 -218 0 -39 21 -44 207 -43 278 2 348 -19 473 -142 88 -86
110 -118 133 -195 30 -103 33 -193 8 -245 -26 -54 -26 -68 -1 -100 21 -27 281
-197 391 -256 97 -52 119 -103 79 -182 -25 -48 -90 -92 -162 -109 -81 -20
-252 -8 -403 29 -349 83 -381 89 -601 105 -152 11 -177 10 -254 -6 -107 -22
-227 -81 -303 -149 -53 -47 -59 -50 -71 -34 -7 9 -34 23 -61 30 -27 6 -50 16
-52 21 -2 5 26 42 61 83 50 58 66 84 75 126 11 49 10 59 -11 111 -19 48 -32
65 -78 97 -30 21 -56 41 -58 46 -1 4 27 63 63 132 38 70 73 152 81 189 21 88
44 227 44 270 0 19 16 98 35 174 19 77 37 170 41 206 6 67 7 67 86 153 44 48
83 87 88 87 5 0 31 -30 59 -67z m-4109 -239 c35 -33 53 -59 60 -88 6 -22 19
-68 29 -101 11 -33 21 -100 23 -150 3 -73 9 -99 29 -135 l25 -45 59 1 c33 1
83 8 112 15 78 19 149 -4 289 -96 62 -41 126 -81 143 -89 16 -9 49 -38 72 -66
26 -31 50 -50 64 -50 26 0 72 47 114 116 l31 51 102 -5 c101 -4 318 23 384 48
42 16 62 12 29 -6 -119 -63 -356 -144 -565 -194 -74 -18 -175 -43 -225 -56
-51 -13 -135 -26 -194 -29 -58 -3 -108 -8 -111 -10 -18 -11 -353 15 -439 34
-107 25 -269 86 -337 128 -189 117 -297 203 -361 288 -44 58 -79 123 -70 131
2 3 35 -14 73 -36 111 -64 184 -51 184 34 0 32 44 116 62 116 14 0 114 -60
203 -122 52 -37 77 -48 99 -46 44 4 50 41 26 168 -11 58 -20 121 -20 140 0 36
32 100 50 100 6 0 33 -21 60 -46z m3040 23 c0 -7 -17 -39 -38 -72 -21 -33 -60
-98 -87 -145 -52 -92 -123 -190 -186 -257 -44 -47 -76 -59 -197 -73 -135 -15
-226 -32 -261 -46 -19 -8 -36 -12 -39 -9 -7 6 -8 6 63 45 115 64 191 120 315
230 69 61 177 150 240 197 63 47 131 99 150 114 41 33 40 32 40 16z m-711
-815 c-61 -45 -108 -73 -139 -82 -53 -15 -236 -31 -267 -24 -27 7 -27 7 12 21
22 8 69 21 105 29 36 8 112 27 170 43 58 16 113 30 124 30 16 1 16 -1 -5 -17z
m1293 -205 c54 -42 70 -71 65 -124 -4 -34 -15 -54 -62 -105 -134 -148 -123
-227 33 -236 40 -3 74 -10 84 -19 15 -14 23 -12 80 21 100 57 249 127 261 123
7 -3 -21 -36 -61 -73 -67 -65 -85 -95 -63 -109 6 -3 56 -8 113 -11 89 -4 125
-12 263 -57 142 -46 165 -56 201 -92 39 -39 94 -159 94 -205 0 -11 7 -45 15
-77 32 -121 19 -141 -79 -129 -57 8 -300 -24 -396 -50 -168 -47 -319 -112
-413 -176 l-27 -20 -73 30 c-118 48 -200 63 -337 63 -87 0 -149 -20 -184 -60
-18 -20 -25 -21 -131 -15 -98 6 -121 4 -183 -15 -38 -11 -73 -21 -77 -21 -11
0 3 120 20 176 8 27 20 97 27 155 10 94 9 119 -7 214 l-18 108 29 21 c97 69
334 331 379 419 14 29 34 63 44 76 l18 23 -1 -43 c-1 -38 2 -44 20 -47 16 -2
55 32 160 142 76 81 144 146 151 146 6 0 31 -15 55 -33z m-1189 -344 c204
-214 258 -311 287 -515 14 -93 5 -208 -24 -299 -30 -94 -57 -233 -51 -256 5
-20 10 -24 28 -19 22 7 76 17 185 36 69 12 197 -3 259 -30 46 -20 229 -164
261 -205 11 -14 34 -59 51 -100 28 -67 32 -89 38 -215 6 -136 2 -155 -24 -129
-18 18 -133 38 -223 39 -47 0 -130 -9 -185 -19 -82 -16 -104 -25 -122 -46 -44
-50 -27 -93 51 -128 56 -26 148 -89 178 -123 22 -25 88 -159 88 -179 0 -19 -3
-19 -65 1 -53 16 -98 13 -190 -11 -93 -24 -155 -55 -278 -136 l-122 -80 -20
28 c-67 94 -142 144 -290 194 -86 28 -95 35 -95 68 0 46 -79 161 -133 195 -83
51 -193 27 -261 -58 -44 -55 -114 -106 -146 -106 -35 0 -97 42 -201 138 -107
98 -182 137 -248 129 -25 -4 -58 -9 -74 -13 l-27 -6 1 67 c2 87 -11 102 -84
96 -29 -3 -97 -5 -152 -5 l-100 -1 -6 67 c-7 83 -40 137 -109 180 -37 23 -53
42 -69 78 -12 27 -21 55 -21 62 0 7 -11 58 -25 113 -14 55 -25 119 -25 142 0
40 4 45 68 97 155 125 179 143 211 154 43 15 106 15 134 0 24 -12 139 -99 174
-130 28 -26 67 -20 71 10 2 12 -6 50 -18 84 -12 34 -25 96 -30 137 -6 42 -14
105 -20 141 -16 109 -13 165 15 219 28 56 53 76 148 122 76 36 192 137 222
193 11 20 22 36 25 36 9 0 80 -156 107 -235 14 -38 44 -130 69 -204 43 -129
86 -224 122 -266 29 -35 88 -75 109 -75 22 0 80 65 135 150 19 30 55 71 79 91
24 20 55 55 69 79 14 23 45 69 68 102 67 93 93 173 100 301 2 59 9 107 13 107
5 0 37 -30 72 -67z m1947 13 c159 -18 260 -34 330 -52 30 -8 75 -19 100 -24
25 -5 98 -20 164 -34 164 -35 311 -43 401 -21 127 30 129 30 192 -4 123 -66
213 -154 213 -206 0 -12 -11 -67 -25 -121 -31 -120 -31 -166 -4 -210 35 -57
78 -68 160 -38 70 24 102 13 178 -64 36 -37 100 -114 142 -172 169 -233 167
-225 101 -495 -26 -106 -60 -293 -68 -380 -9 -94 -18 -109 -33 -51 -17 70
-126 187 -230 250 -81 49 -84 50 -185 55 -116 7 -127 12 -221 102 -73 69 -172
125 -240 135 -27 3 -58 11 -67 15 -21 11 -19 17 49 156 96 198 68 286 -119
373 -92 43 -180 54 -265 35 -102 -24 -135 -36 -170 -62 -38 -29 -38 -28 -48
89 -8 90 -44 242 -74 310 -24 57 -92 133 -141 158 -70 35 -325 108 -402 115
l-77 7 61 74 c60 73 62 74 107 74 25 0 102 -7 171 -14z m-5030 -203 c152 -49
274 -150 417 -343 62 -84 95 -119 206 -217 32 -29 35 -49 6 -58 -12 -4 -80
-42 -152 -85 -206 -122 -283 -203 -342 -363 -15 -41 -16 -51 -5 -72 18 -34 68
-34 100 0 38 41 160 106 217 116 36 7 78 7 130 -1 97 -13 147 -43 162 -97 30
-108 -9 -215 -145 -400 -31 -42 -73 -112 -94 -157 -21 -44 -52 -94 -69 -111
l-32 -30 -127 0 c-109 0 -133 -3 -167 -21 -86 -45 -95 -122 -25 -198 50 -54
102 -72 162 -55 26 6 63 8 97 3 31 -4 93 -6 137 -5 79 2 84 1 165 -42 81 -43
157 -91 265 -170 55 -40 119 -116 152 -183 30 -60 36 -127 18 -212 -9 -40 -16
-89 -16 -108 0 -77 -31 -167 -80 -229 -58 -73 -73 -103 -95 -180 -9 -33 -18
-66 -20 -73 -10 -28 -252 117 -326 195 -40 42 -53 74 -74 180 -30 154 -82 224
-199 263 -52 17 -81 21 -134 17 -173 -14 -278 -41 -336 -89 -59 -48 -70 -80
-69 -188 0 -52 2 -106 4 -120 3 -18 0 -25 -11 -23 -84 9 -113 18 -161 49 -120
78 -193 106 -302 115 -137 11 -189 31 -258 100 -9 9 -36 30 -61 47 -51 35
-172 174 -188 216 -18 49 -11 112 24 203 18 48 39 112 47 141 13 52 12 55 -16
109 -22 43 -38 60 -69 74 -23 10 -52 19 -66 19 -14 0 -31 4 -38 9 -19 12 -42
97 -42 156 0 46 -5 58 -41 102 -59 73 -161 119 -286 128 -88 7 -94 6 -143 -21
-41 -22 -57 -39 -81 -85 -17 -32 -40 -66 -51 -76 -19 -17 -21 -16 -74 11 -90
47 -92 52 -185 351 -44 141 -50 192 -34 270 59 287 151 366 450 390 44 3 118
11 164 17 127 18 138 41 63 135 -95 118 -135 301 -96 438 11 40 26 71 37 77
10 5 97 15 193 23 330 26 553 -23 688 -149 52 -48 77 -119 101 -281 32 -224
69 -392 92 -417 21 -23 30 -23 43 2 9 16 6 44 -9 118 -63 305 -68 349 -46 398
68 157 101 211 168 277 71 72 129 105 227 131 67 18 129 12 230 -21z m5314
-625 c3 -13 6 -35 6 -50 0 -28 -13 -34 -210 -87 -217 -59 -539 -99 -585 -74
-16 10 -14 14 26 39 111 70 449 166 649 184 47 4 90 8 96 9 7 0 14 -9 18 -21z
m449 -14 c117 -30 197 -88 197 -143 0 -35 -26 -104 -77 -208 -20 -41 -38 -94
-41 -121 -4 -44 -2 -51 23 -70 15 -12 34 -22 42 -22 12 0 13 -9 8 -39 -9 -57
14 -102 77 -148 29 -22 89 -66 133 -98 124 -91 201 -161 230 -210 38 -65 32
-93 -30 -131 -96 -60 -132 -100 -156 -171 -17 -52 -21 -81 -17 -143 5 -93 20
-119 89 -161 84 -53 77 -112 -21 -162 -30 -15 -73 -45 -96 -68 l-41 -40 -31
35 c-17 19 -49 61 -70 93 -49 71 -129 149 -202 196 -173 112 -180 119 -180
180 0 43 10 69 65 174 36 68 65 136 65 152 0 32 -21 54 -71 75 -19 8 -58 30
-87 50 -63 42 -120 55 -272 60 -63 3 -121 5 -127 5 -7 1 -25 25 -40 54 -24 47
-27 65 -33 202 -6 152 -19 205 -56 236 -33 27 -191 -5 -284 -59 -74 -42 -200
-141 -271 -211 -36 -36 -84 -82 -107 -102 -50 -42 -55 -77 -17 -115 14 -14 25
-29 25 -33 0 -5 -20 -16 -45 -25 -46 -18 -53 -32 -35 -67 9 -15 7 -19 -5 -19
-9 0 -43 -14 -77 -31 -55 -28 -68 -30 -147 -29 -47 1 -92 2 -98 1 -21 -2 -15
-27 19 -78 102 -156 151 -199 298 -262 154 -67 481 -149 536 -135 18 5 33 -10
85 -77 35 -45 91 -122 124 -172 50 -76 69 -95 115 -121 53 -29 58 -30 175 -28
186 4 234 -6 390 -82 148 -71 223 -131 290 -232 l36 -54 -31 -75 c-46 -110
-59 -176 -60 -306 l0 -117 -47 -4 c-27 -3 -51 -3 -55 -1 -4 2 2 24 13 48 37
83 51 180 39 259 -13 88 -38 141 -97 206 -67 74 -80 79 -245 84 -78 3 -159 9
-180 15 -56 17 -176 102 -243 171 -116 119 -205 175 -299 186 -52 6 -55 8
-105 75 -29 38 -75 85 -102 105 -27 19 -49 39 -49 43 0 9 -112 82 -180 116
-84 43 -233 85 -347 97 l-102 12 6 25 c20 75 -16 183 -93 278 -32 39 -118 95
-211 139 -23 10 -43 24 -43 30 0 12 79 30 175 40 36 3 97 0 152 -9 76 -13 99
-21 131 -47 49 -39 86 -38 116 3 25 34 28 123 7 257 -15 105 -34 166 -77 252
-27 54 -51 82 -121 144 -49 42 -105 88 -125 103 -46 32 -47 45 -5 62 79 34
290 3 421 -61 34 -16 106 -39 161 -51 84 -18 119 -21 221 -16 181 9 563 96
647 147 18 11 38 20 44 20 7 0 41 23 75 50 35 28 78 54 98 59 19 5 53 13 75
18 59 15 81 15 148 -3z m-4663 -396 c0 -2 6 -37 14 -78 24 -121 47 -164 109
-204 36 -23 60 -48 72 -73 17 -36 17 -41 2 -101 -25 -96 -17 -105 86 -97 45 4
125 7 177 8 l95 2 -3 -35 c-1 -19 -12 -50 -22 -68 -44 -73 -11 -103 86 -79
107 27 136 29 173 10 19 -10 36 -23 38 -29 2 -6 -22 -17 -54 -24 -32 -8 -114
-31 -183 -51 -110 -34 -174 -55 -434 -148 -95 -34 -183 -88 -260 -161 l-71
-67 -55 31 c-31 17 -69 40 -85 52 -17 11 -70 40 -119 64 -81 40 -95 43 -175
45 -47 1 -114 8 -148 14 -39 7 -75 8 -100 3 -23 -5 -47 -5 -60 1 -25 11 -48
50 -40 70 9 24 90 38 176 31 102 -9 123 -3 183 54 38 35 62 70 93 137 23 50
67 128 97 175 75 115 114 195 134 276 14 55 25 75 58 106 77 73 216 160 216
136z m3900 -98 c12 -8 14 -33 12 -145 -4 -148 7 -203 53 -265 48 -64 67 -71
190 -64 134 8 214 -6 267 -44 53 -38 93 -65 113 -77 16 -10 14 -18 -33 -95
-28 -47 -56 -97 -63 -112 -14 -32 -28 -34 -71 -12 -17 9 -54 24 -82 35 -158
56 -240 89 -248 97 -6 6 2 18 21 31 33 24 41 60 18 79 -7 6 -62 38 -122 70
-61 33 -157 86 -215 118 -100 56 -108 59 -175 59 -64 0 -75 -3 -128 -38 -61
-39 -77 -43 -108 -27 -30 16 -23 36 24 69 23 16 58 46 77 66 19 20 58 53 85
73 28 19 73 52 100 73 64 48 138 85 206 103 66 18 61 18 79 6z m-238 -429 c40
-21 127 -66 193 -101 66 -34 122 -64 123 -65 2 -2 -6 -17 -18 -33 -45 -60 4
-110 153 -157 100 -32 205 -73 249 -97 27 -16 38 -29 43 -56 10 -54 49 -107
112 -152 174 -123 218 -166 289 -278 20 -32 80 -100 134 -152 105 -102 138
-155 185 -294 20 -59 25 -95 25 -171 0 -86 -2 -96 -15 -85 -8 7 -15 18 -15 24
0 23 -68 153 -132 251 -102 157 -169 218 -321 293 -70 34 -153 69 -184 77 -68
18 -191 19 -277 4 -87 -16 -102 -7 -164 95 -77 126 -163 228 -377 450 -170
177 -287 281 -352 315 -13 6 -23 16 -23 21 0 5 30 26 68 45 37 20 92 52 122
71 30 19 66 34 82 34 15 0 60 -17 100 -39z m-332 -221 c42 -12 125 -91 229
-220 43 -52 85 -101 94 -109 52 -42 -4 -38 -183 13 -236 68 -396 152 -471 247
l-31 39 55 0 c33 0 72 8 98 20 49 22 151 27 209 10z m-1758 -47 c60 -49 88
-82 88 -104 0 -21 -3 -22 -62 -15 -35 3 -107 9 -160 13 -54 3 -98 9 -98 12 0
10 92 97 115 109 35 20 81 14 117 -15z m-583 -85 c76 -60 79 -64 58 -74 -12
-7 -38 -15 -57 -19 -19 -4 -78 -29 -130 -55 -131 -66 -162 -99 -125 -130 11
-9 38 -10 97 -6 110 10 205 -6 276 -46 116 -64 151 -123 133 -221 -6 -31 -18
-71 -26 -88 l-17 -31 -31 29 c-43 39 -253 178 -303 199 -44 20 -210 22 -257 5
-17 -7 -75 -7 -174 0 -169 11 -303 0 -386 -31 l-52 -20 -23 27 c-13 16 -41 46
-63 69 l-39 41 51 48 c105 99 162 128 433 215 352 114 471 148 523 149 26 1
50 -13 112 -61z m661 -129 c165 -27 320 -101 359 -171 18 -32 9 -53 -64 -156
-63 -88 -75 -138 -75 -308 0 -151 7 -173 50 -159 17 5 20 15 20 64 0 75 7 97
97 282 l76 155 146 94 c165 106 298 165 371 163 25 -1 72 -11 104 -22 33 -12
123 -32 200 -45 235 -41 408 -116 546 -238 57 -50 136 -142 158 -184 5 -10 12
-68 15 -128 5 -107 4 -113 -37 -250 -47 -156 -125 -317 -199 -413 -93 -120
-290 -284 -417 -348 -43 -21 -90 -64 -90 -82 0 -8 12 -13 33 -13 29 0 54 -8
177 -55 19 -7 71 -31 115 -53 44 -21 91 -43 105 -47 51 -16 141 -87 175 -138
44 -67 51 -102 32 -168 -41 -139 -60 -431 -37 -530 7 -28 10 -52 7 -55 -3 -3
-38 23 -78 57 -97 81 -139 107 -229 142 -117 45 -244 75 -350 82 -99 8 -140
-1 -140 -29 0 -7 25 -40 57 -72 58 -61 113 -160 113 -204 0 -42 -51 -233 -70
-265 -11 -16 -28 -36 -40 -43 -41 -25 -492 -69 -754 -74 -95 -2 -117 1 -141
16 l-27 18 4 156 c5 180 17 221 86 312 54 71 75 141 76 255 1 84 -1 95 -34
158 -39 77 -76 110 -157 138 -31 10 -58 19 -60 19 -1 0 -3 -30 -3 -66 0 -59
-4 -73 -40 -133 -55 -93 -132 -169 -230 -226 -94 -55 -141 -70 -291 -90 -143
-19 -293 -64 -419 -126 -76 -37 -109 -49 -120 -42 -18 12 -199 264 -200 278 0
5 -15 32 -34 60 -19 27 -60 93 -92 145 -32 52 -80 116 -107 142 -42 40 -49 51
-44 75 4 15 13 66 21 113 33 185 69 306 123 413 55 110 175 202 308 236 218
56 208 55 303 36 97 -19 117 -28 149 -62 12 -12 31 -23 43 -23 18 0 20 6 20
66 0 38 -9 98 -22 142 -19 65 -30 84 -78 132 -74 76 -117 90 -272 90 -94 0
-130 -4 -180 -21 -74 -26 -156 -65 -181 -87 -16 -14 -19 -14 -27 -2 -20 31
-35 129 -34 215 0 76 5 102 32 170 63 159 163 290 240 316 20 6 70 10 116 7
74 -4 89 -8 161 -48 167 -92 206 -123 247 -199 28 -51 53 -39 104 51 46 81 71
183 58 242 -11 51 -51 122 -85 150 -56 47 -164 96 -229 103 -33 3 -60 9 -60
14 0 9 149 56 224 70 143 26 311 26 476 -2z m-1212 -375 c54 -6 62 -13 37 -34
-45 -38 -183 -360 -192 -450 -7 -68 21 -221 49 -271 34 -62 52 -66 111 -25 29
20 86 48 127 62 65 23 92 27 195 28 133 1 170 -11 233 -74 29 -28 70 -115 60
-125 -2 -3 -42 6 -88 20 -101 30 -110 30 -196 5 -38 -11 -103 -30 -144 -41
-99 -28 -163 -58 -229 -107 -54 -41 -55 -41 -83 -24 -56 33 -91 84 -157 234
-12 27 -46 90 -77 140 -52 88 -55 96 -50 143 34 296 36 366 12 435 -9 25 -18
49 -19 54 -3 12 54 24 163 35 81 7 132 6 248 -5z m3358 -175 c49 -18 76 -41
183 -149 103 -104 140 -134 200 -164 85 -43 199 -66 333 -66 87 0 88 0 129
-37 60 -55 90 -113 96 -187 9 -109 -30 -226 -111 -332 -29 -37 -34 -50 -25
-65 13 -25 53 -24 95 2 47 29 130 38 254 28 109 -9 178 -28 325 -91 205 -88
335 -228 335 -360 0 -66 -24 -107 -82 -145 -142 -91 -228 -180 -228 -238 0
-39 19 -58 90 -84 91 -35 135 -70 231 -186 100 -122 107 -138 131 -281 20
-123 20 -128 2 -188 -22 -76 -82 -181 -126 -222 -55 -52 -80 -64 -129 -64
l-46 0 -5 63 c-3 34 -12 78 -21 97 -8 19 -23 55 -33 80 -24 58 -105 189 -160
260 -56 71 -180 180 -205 180 -11 0 -24 -11 -31 -24 -9 -21 -6 -32 19 -73 41
-66 83 -176 85 -218 1 -37 -7 -51 -91 -158 -65 -82 -201 -218 -212 -211 -5 3
-9 11 -9 18 0 19 -44 75 -81 102 -34 25 -137 67 -204 83 -78 19 -215 76 -215
89 0 5 9 34 19 65 26 74 44 200 36 240 -25 113 -114 187 -226 187 -20 0 -85
-18 -144 -40 -104 -39 -196 -52 -209 -31 -3 4 -7 62 -8 127 -2 110 -1 123 23
174 33 70 66 108 149 175 73 58 100 102 100 163 0 57 -33 100 -108 138 -53 27
-78 33 -160 38 -112 8 -220 30 -275 58 -46 23 -99 76 -155 157 l-43 61 46 43
c74 67 180 216 238 334 66 133 70 144 102 267 14 54 31 108 37 119 6 12 11 79
12 154 0 73 4 133 8 133 4 0 33 -10 64 -21z m-17044 -595 c71 -135 118 -346
118 -527 0 -38 -7 -142 -16 -231 -18 -177 -14 -320 11 -400 18 -58 19 -177 4
-261 -7 -33 -12 -76 -13 -94 -1 -33 2 -36 43 -48 60 -17 68 -27 92 -104 23
-77 36 -92 76 -87 27 3 28 6 35 68 16 133 30 196 59 259 38 82 124 190 164
207 18 7 52 29 76 49 24 19 60 48 79 63 32 26 99 57 106 49 2 -2 -5 -27 -15
-57 -17 -50 -43 -180 -55 -270 -5 -46 37 -406 70 -585 14 -77 40 -226 58 -331
48 -272 98 -456 170 -626 22 -52 21 -55 -24 -60 l-40 -4 -49 86 c-26 47 -63
113 -80 146 -18 34 -70 104 -115 155 -45 52 -109 130 -143 174 -80 105 -103
126 -151 132 -76 10 -219 -80 -296 -187 -20 -28 -41 -48 -46 -45 -36 22 -110
240 -139 405 -20 111 -20 123 -6 275 9 88 19 180 25 205 22 105 4 170 -46 170
-26 0 -45 -18 -224 -205 l-95 -100 -8 80 c-4 44 -5 193 -2 330 5 200 3 267
-10 335 -21 118 -20 195 3 218 11 11 75 46 143 79 220 107 221 109 222 408 1
168 -2 224 -16 280 -36 147 -36 146 -24 142 7 -2 33 -44 59 -93z m16557 -565
c61 -78 120 -131 171 -151 59 -24 165 -48 249 -58 102 -11 132 -21 178 -56 54
-41 46 -73 -30 -133 -79 -63 -139 -133 -167 -198 -25 -59 -30 -140 -16 -301
11 -128 15 -132 133 -132 74 0 93 4 184 41 109 45 150 47 198 11 55 -41 66
-67 65 -160 -1 -71 -6 -99 -28 -152 -65 -151 -49 -170 194 -244 63 -19 135
-40 160 -46 27 -8 58 -26 81 -48 30 -31 39 -52 59 -132 32 -133 55 -169 101
-155 15 5 18 16 17 73 -2 74 11 107 69 180 34 42 80 79 87 71 3 -2 1 -24 -4
-49 -14 -75 3 -218 33 -280 45 -95 152 -291 217 -399 81 -133 166 -322 193
-431 31 -125 30 -298 -2 -400 -25 -78 -38 -98 -159 -242 -73 -87 -116 -128
-135 -128 -6 0 -7 16 -3 43 4 23 11 90 16 149 5 59 11 111 14 116 3 5 0 53 -5
108 -8 75 -19 116 -43 169 -76 164 -239 388 -341 467 -34 27 -65 40 -123 53
-129 28 -172 53 -275 161 -107 112 -159 149 -317 226 -167 81 -170 84 -170
168 0 57 -4 73 -24 97 -13 15 -31 44 -41 63 -54 108 -144 138 -252 84 -67 -34
-100 -69 -143 -152 -33 -64 -39 -69 -115 -109 -93 -48 -112 -52 -180 -37 -62
14 -180 83 -344 204 -55 40 -118 58 -165 46 -49 -12 -62 -55 -86 -284 -5 -51
-17 -117 -25 -146 -19 -64 -119 -262 -131 -259 -5 2 -12 60 -16 130 -19 327
-58 473 -159 595 -21 26 -39 51 -39 57 0 7 38 11 108 11 59 0 154 7 212 15 58
8 130 15 161 15 115 0 202 48 237 130 27 63 54 194 55 260 1 72 -27 144 -84
216 -31 39 -31 39 -9 42 53 8 292 -62 398 -116 18 -9 74 -50 125 -91 51 -40
115 -89 144 -108 44 -30 54 -33 73 -23 19 10 21 17 15 52 -4 23 -13 55 -20 72
-33 78 -30 159 17 436 12 74 22 162 22 195 -2 98 -55 181 -163 254 -47 32
-256 135 -365 180 l-29 12 66 40 c36 22 69 44 72 49 11 19 22 10 84 -71z
m-1397 -683 c12 -39 22 -98 23 -131 0 -62 -12 -89 -81 -184 -34 -48 -55 -129
-63 -240 l-6 -96 -46 -5 c-25 -3 -67 -17 -92 -30 -25 -13 -49 -22 -52 -18 -3
3 -12 29 -20 58 -19 71 -90 192 -153 261 l-53 57 53 18 c79 25 198 106 270
182 56 60 133 174 152 227 7 19 8 19 27 -4 10 -13 29 -55 41 -95z m-15240
-429 c-6 -24 -14 -118 -18 -208 -8 -192 6 -292 64 -474 57 -180 99 -245 157
-245 35 0 62 21 121 96 49 61 137 117 187 118 40 1 43 -2 105 -79 34 -44 100
-121 144 -171 45 -51 97 -120 116 -155 19 -35 56 -100 82 -144 48 -81 84 -178
96 -250 8 -56 -10 -114 -57 -187 -101 -158 -140 -438 -98 -718 6 -36 7 -98 3
-138 l-6 -73 -34 39 c-21 25 -67 56 -126 86 -88 46 -96 48 -155 43 -74 -6
-131 -35 -190 -100 -87 -95 -112 -190 -93 -367 6 -58 18 -127 25 -155 21 -74
108 -268 166 -368 28 -48 48 -94 45 -102 -6 -18 -87 -21 -117 -5 -37 20 -115
164 -183 340 -48 123 -67 160 -89 171 -23 13 -55 -5 -61 -34 -12 -58 -31 -389
-31 -527 1 -152 1 -156 34 -233 18 -44 30 -81 28 -83 -7 -7 -156 93 -202 135
-22 21 -68 56 -101 78 -73 50 -142 123 -211 226 -70 102 -82 128 -94 195 -6
31 -28 116 -49 187 -21 72 -46 182 -55 245 -10 63 -30 177 -46 252 -32 151
-37 269 -15 322 7 18 30 55 49 83 49 68 97 183 97 233 0 38 -7 47 -100 144
-54 57 -102 115 -105 129 -7 26 31 123 106 272 16 33 29 65 29 70 0 6 12 28
26 49 21 31 30 37 50 32 37 -10 31 21 -32 152 -130 271 -141 339 -73 475 33
65 58 97 121 157 44 41 98 103 119 136 22 35 83 102 140 155 56 51 127 125
158 163 80 101 91 106 73 33z m1628 -917 c0 -6 -6 -21 -14 -33 -25 -38 -118
-318 -132 -397 -20 -110 -30 -551 -15 -617 18 -75 64 -123 149 -157 80 -31
147 -94 224 -211 54 -83 74 -140 93 -265 11 -80 11 -107 0 -184 -8 -50 -26
-124 -40 -165 -29 -87 -32 -127 -8 -153 24 -26 39 -23 95 22 68 53 82 52 112
-12 17 -35 39 -61 63 -77 64 -42 84 -64 118 -131 48 -95 84 -228 125 -465 37
-205 102 -330 196 -376 40 -19 45 -26 64 -86 41 -132 215 -445 290 -522 29
-29 63 -52 95 -63 28 -10 57 -22 65 -28 13 -9 13 -11 0 -20 -8 -5 -30 -12 -50
-15 -82 -14 -204 -144 -235 -252 -19 -64 -17 -72 41 -263 47 -154 62 -184 125
-256 30 -33 76 -86 102 -117 26 -31 72 -74 101 -94 29 -21 93 -67 141 -103 48
-36 106 -79 128 -95 23 -17 59 -54 82 -82 53 -70 88 -95 132 -96 41 -1 73 29
73 69 0 42 19 26 26 -23 8 -55 0 -186 -17 -262 -9 -41 -20 -62 -48 -87 -35
-33 -36 -35 -36 -106 1 -59 7 -88 34 -153 19 -44 47 -97 63 -118 17 -21 28
-41 25 -43 -3 -3 -38 9 -78 26 -70 30 -169 59 -251 74 -54 10 -95 -14 -120
-72 -19 -42 -20 -59 -15 -190 l7 -144 -34 -32 c-18 -17 -45 -41 -59 -53 -15
-12 -27 -26 -27 -32 0 -23 43 -48 102 -60 103 -21 311 -93 296 -102 -20 -13
-52 -11 -130 11 -101 28 -128 26 -228 -21 l-89 -41 -33 22 c-18 13 -52 41 -76
64 -34 33 -50 41 -80 41 -44 0 -102 -37 -102 -65 0 -11 -12 -65 -26 -121 -25
-95 -26 -111 -21 -272 3 -95 9 -184 12 -199 7 -28 7 -28 -47 -28 -67 0 -142
-35 -192 -90 l-35 -39 -11 35 c-19 56 -46 62 -119 24 -47 -25 -80 -34 -132
-38 -43 -3 -69 -1 -69 5 0 6 11 30 24 54 14 24 36 86 51 138 22 80 26 109 22
190 -2 53 -10 127 -17 164 -17 87 -38 105 -104 88 -25 -6 -52 -11 -60 -11 -19
0 -54 54 -85 130 -36 87 -81 130 -136 130 -52 -1 -87 -42 -109 -128 -13 -49
-30 -56 -34 -15 -9 99 -83 294 -160 423 -58 97 -68 110 -88 110 -7 0 -42 -31
-80 -70 -37 -38 -72 -70 -78 -70 -8 0 -11 61 -11 187 -1 164 -4 196 -22 251
-38 112 -120 190 -187 178 -48 -9 -107 -52 -155 -113 -44 -56 -61 -65 -61 -34
0 29 -60 139 -128 233 -96 134 -119 195 -137 371 -6 55 -11 67 -24 65 -9 -2
-22 -16 -29 -32 -12 -23 -18 -27 -41 -22 -14 3 -48 9 -76 12 -45 6 -115 39
-115 55 0 4 12 15 27 25 41 26 52 45 53 88 0 47 -44 181 -100 300 -53 114 -68
182 -79 354 -8 106 -7 154 3 202 16 74 12 94 -18 108 -29 13 -56 -2 -97 -51
-70 -85 -184 -118 -273 -78 -43 18 -47 24 -41 43 5 13 9 111 11 218 5 309 16
420 54 525 18 50 36 110 40 135 11 57 37 120 51 120 6 0 23 -9 38 -19 14 -10
59 -35 99 -54 l73 -34 14 21 c21 29 19 41 -19 126 -100 222 -91 181 -91 410 0
133 4 212 11 224 11 18 12 18 19 -5 13 -42 91 -195 130 -254 45 -67 73 -83
162 -91 64 -5 72 -3 136 30 37 19 67 30 67 25 0 -5 -7 -26 -15 -46 -20 -47
-62 -213 -70 -278 -10 -75 -15 -89 -28 -76 -16 16 -62 14 -76 -3 -18 -21 -20
-124 -5 -176 16 -53 18 -94 4 -120 -5 -10 -14 -53 -19 -97 -37 -297 -36 -266
-11 -351 51 -174 142 -324 280 -462 68 -67 78 -83 100 -149 l24 -75 -18 -227
c-10 -125 -16 -239 -12 -253 15 -61 162 -177 269 -212 28 -9 57 -20 62 -25 6
-4 46 -17 90 -29 43 -12 83 -24 88 -27 18 -11 36 -71 47 -159 7 -49 18 -116
27 -148 14 -58 147 -322 181 -360 26 -29 159 -127 243 -179 78 -48 251 -117
293 -117 13 0 29 6 35 14 17 20 0 51 -51 94 -21 19 -49 52 -63 75 -22 39 -95
210 -95 225 0 3 17 -10 38 -29 88 -84 262 -170 400 -198 70 -15 260 -14 303 1
55 19 169 89 185 114 24 35 4 59 -88 105 -162 82 -271 177 -348 306 -19 32
-49 76 -67 97 -39 46 -43 93 -16 168 22 63 9 91 -86 188 -87 87 -128 113 -264
166 -65 25 -115 52 -143 77 -40 35 -45 44 -42 76 l3 36 49 -3 c33 -1 76 -15
131 -42 89 -43 119 -49 129 -24 12 32 5 45 -63 116 -79 84 -98 117 -112 194
-14 78 -4 88 77 79 113 -12 127 15 68 130 -70 136 -166 249 -252 298 -52 29
-249 203 -292 257 -43 54 -90 175 -90 231 0 26 12 77 26 115 52 138 30 224
-105 411 -85 119 -106 142 -161 182 -57 41 -81 39 -134 -9 -41 -38 -44 -45
-56 -120 -7 -44 -9 -95 -6 -115 9 -49 -8 -44 -28 8 -51 135 -39 468 26 667 25
79 20 117 -18 126 -32 8 -48 -6 -138 -124 -99 -130 -141 -190 -166 -239 -12
-24 -23 -43 -24 -43 -5 0 -63 94 -107 175 -57 102 -142 301 -165 385 -12 42
-18 102 -18 170 -1 97 1 109 26 152 34 56 100 115 145 127 38 11 62 5 155 -37
55 -25 74 -41 115 -95 26 -36 60 -86 75 -111 28 -46 41 -53 67 -37 12 7 12 27
3 117 -6 60 -11 152 -10 204 0 52 -4 115 -11 140 -38 159 20 501 109 638 21
33 46 88 56 122 16 59 16 66 0 137 -10 41 -15 77 -12 80 3 3 25 -15 49 -40 48
-52 79 -59 142 -33 51 22 63 49 74 176 13 135 20 160 69 260 32 64 43 78 82
98 46 23 100 29 100 12z m1938 -2330 c79 -36 171 -111 269 -220 107 -118 203
-244 203 -266 0 -7 -13 -20 -30 -29 -44 -23 -59 -53 -72 -143 -19 -131 11
-263 74 -318 12 -11 48 -31 78 -43 120 -48 172 -97 200 -186 26 -83 69 -160
99 -178 49 -28 121 -22 208 18 93 43 129 44 222 6 213 -87 378 -247 421 -411
22 -81 59 -138 141 -217 85 -82 179 -193 179 -212 0 -7 -22 -11 -55 -11 -70 0
-148 -37 -170 -80 -26 -50 -47 -161 -40 -210 9 -59 39 -128 72 -162 28 -29 84
-51 173 -68 30 -6 70 -21 90 -34 19 -13 85 -49 145 -81 61 -32 130 -72 155
-89 48 -32 170 -144 170 -156 0 -4 -20 -15 -44 -24 -23 -9 -79 -46 -122 -83
-123 -103 -152 -113 -317 -113 -132 0 -145 2 -255 37 -71 22 -123 44 -134 57
-9 12 -78 84 -151 161 -116 121 -140 153 -176 227 -101 208 -167 303 -247 357
-52 34 -85 39 -105 15 -10 -13 -8 -24 13 -67 40 -78 68 -171 68 -221 0 -59
-25 -88 -135 -155 -93 -56 -116 -78 -143 -132 -24 -49 -51 -48 -151 3 -98 49
-182 126 -230 210 -40 69 -42 139 -6 216 29 63 31 89 8 114 -23 26 -48 23
-112 -16 -71 -44 -102 -76 -140 -150 -25 -47 -31 -71 -32 -125 -2 -114 -17
-133 -53 -63 -30 59 -89 113 -201 189 -203 135 -250 170 -285 214 -19 24 -57
69 -86 99 -58 62 -78 96 -98 172 -8 29 -26 86 -40 126 -15 41 -26 92 -26 113
0 70 52 149 147 226 55 44 71 51 125 58 88 11 105 9 225 -20 58 -14 116 -25
130 -23 23 3 22 5 -16 29 -22 14 -80 36 -128 49 -48 12 -115 31 -148 41 -71
22 -204 91 -227 116 -26 29 -186 302 -228 388 -69 143 -97 338 -65 455 8 30
26 100 40 155 15 55 33 105 41 111 23 18 91 -2 164 -49 118 -76 204 -139 242
-178 56 -59 61 -53 53 54 -4 63 -3 101 6 122 6 17 20 71 30 120 25 123 88 249
138 275 46 24 85 24 139 0z m-2682 -283 c-19 -121 -20 -224 -6 -334 8 -61 21
-99 58 -172 64 -127 119 -173 165 -138 15 11 16 25 7 147 -10 140 -4 192 24
235 21 32 41 31 82 0 35 -27 152 -185 200 -271 38 -66 38 -136 2 -224 -43
-105 -44 -130 -13 -227 16 -47 46 -112 67 -144 42 -63 192 -202 292 -272 84
-59 205 -182 243 -247 48 -82 47 -85 -13 -82 -43 3 -56 0 -80 -21 -28 -24 -29
-29 -28 -104 0 -63 6 -89 28 -137 15 -32 25 -61 22 -63 -3 -3 -27 2 -54 11
-60 20 -93 11 -122 -36 -34 -56 -27 -79 51 -168 67 -76 79 -84 194 -140 111
-54 130 -68 200 -141 68 -71 76 -84 70 -107 -4 -15 -9 -61 -12 -102 -5 -75 -5
-76 31 -120 20 -25 57 -76 82 -115 26 -38 63 -89 82 -113 39 -47 166 -143 251
-189 30 -16 56 -34 58 -39 2 -5 -20 -19 -48 -31 -43 -20 -68 -23 -168 -23
-135 0 -218 18 -363 77 -119 49 -198 123 -253 237 -40 83 -62 103 -90 82 -18
-13 -18 -17 0 -107 26 -136 42 -199 64 -244 54 -113 85 -172 100 -188 15 -17
14 -18 -14 -12 -40 9 -205 120 -282 189 -53 48 -69 73 -121 180 -72 148 -88
192 -97 271 -10 98 -34 194 -60 246 -21 39 -32 50 -62 58 -193 53 -286 89
-358 138 -93 63 -98 71 -92 145 20 208 27 351 22 408 -11 106 -52 182 -148
276 -121 119 -181 213 -243 389 -29 83 -29 114 1 309 15 98 16 128 7 163 -7
24 -12 62 -12 85 l0 41 23 -21 c26 -24 62 -29 74 -9 4 6 8 71 9 142 1 115 4
143 32 238 39 133 71 210 118 285 43 66 87 117 92 103 2 -5 -4 -56 -12 -114z
m2954 -2414 c1 -77 16 -126 57 -186 33 -49 125 -144 167 -174 l29 -20 -21 -45
c-12 -24 -22 -51 -22 -60 0 -29 22 -78 35 -78 7 0 28 30 46 66 19 37 38 68 44
71 6 2 28 -3 48 -12 42 -17 109 -20 138 -4 11 5 30 33 43 62 27 61 37 71 131
125 39 22 88 59 110 82 l40 41 0 94 0 93 29 -46 c16 -26 55 -96 86 -156 56
-107 123 -195 248 -323 28 -30 52 -57 52 -60 0 -3 -12 -31 -27 -62 -27 -53
-28 -63 -28 -201 0 -144 4 -176 51 -383 13 -59 24 -115 24 -125 -1 -26 -53 39
-95 119 -38 72 -74 109 -109 109 -11 0 -38 5 -59 11 -36 10 -42 17 -88 112
-27 56 -58 118 -69 137 -12 21 -20 53 -20 82 0 70 -13 75 -205 83 -151 6 -334
32 -386 54 -42 18 -186 51 -222 51 l-35 0 6 148 c5 157 -5 219 -49 301 -10 19
-19 44 -19 55 0 23 47 106 60 106 6 0 10 -30 10 -67z m1356 -602 c5 -5 65 -26
134 -47 l125 -36 163 4 c162 4 162 4 231 40 68 35 68 35 102 17 52 -26 164
-56 264 -69 155 -21 266 -50 352 -90 46 -21 83 -43 83 -48 0 -4 -25 -37 -55
-72 -62 -72 -66 -91 -35 -170 31 -80 91 -160 164 -220 36 -30 66 -58 66 -62 0
-15 -76 -8 -155 13 -51 13 -102 36 -147 65 -96 62 -101 74 -144 364 -8 47 -67
105 -124 120 -81 22 -191 8 -346 -45 -339 -114 -369 -153 -273 -351 36 -75 57
-103 135 -179 51 -49 122 -108 158 -130 36 -22 65 -43 66 -48 0 -12 -47 -27
-84 -27 -84 0 -226 103 -340 246 -44 54 -96 119 -116 144 -20 25 -42 55 -49
68 -9 17 -19 22 -39 20 -24 -3 -27 -8 -30 -43 -1 -22 11 -89 28 -150 46 -164
44 -155 26 -155 -23 0 -139 54 -152 71 -21 25 -53 132 -69 224 -27 164 -29
287 -7 418 12 64 24 122 27 127 8 13 28 13 41 1z m-1230 -50 c49 -11 131 -29
182 -41 70 -15 365 -49 434 -50 3 0 14 -23 23 -51 10 -29 30 -76 46 -106 16
-30 29 -62 29 -72 0 -9 15 -43 33 -76 38 -70 84 -105 138 -105 43 0 69 -8 69
-22 0 -5 17 -43 38 -85 56 -115 127 -172 309 -248 68 -29 80 -89 27 -145 -28
-31 -63 -107 -64 -138 0 -38 27 -85 63 -109 17 -12 67 -31 109 -43 78 -21 86
-21 179 6 12 3 31 -16 65 -67 70 -106 174 -176 349 -238 32 -11 59 -22 61 -24
2 -2 -5 -35 -16 -73 -39 -135 -15 -263 65 -352 l46 -51 -21 -19 c-25 -23 -99
-34 -146 -20 -63 17 -215 112 -290 180 -78 72 -109 87 -143 69 -64 -35 -17
-163 107 -292 41 -43 94 -91 118 -106 24 -16 43 -32 41 -38 -4 -12 -48 -23
-172 -41 -115 -17 -152 -14 -258 19 -76 25 -338 171 -440 246 -87 65 -179 194
-201 284 -8 35 -40 67 -66 67 -11 0 -39 -17 -63 -38 -133 -118 -164 -132 -297
-132 -127 0 -209 25 -405 125 -146 74 -339 191 -368 222 -15 18 -9 20 125 57
116 32 153 47 207 84 162 111 221 175 221 242 0 19 4 51 9 71 5 21 5 42 2 48
-4 5 -85 49 -180 96 -155 78 -190 91 -335 126 -88 22 -173 44 -188 50 l-26 11
24 36 c34 50 37 68 25 156 -10 71 -2 201 15 227 18 29 225 -27 341 -92 66 -37
219 -87 237 -77 29 17 19 53 -23 81 -22 15 -51 39 -66 54 -65 69 -165 279
-165 348 0 32 3 35 48 49 26 8 50 15 53 15 3 1 46 -8 95 -18z m3638 -20 c66
-11 166 -25 221 -32 55 -7 130 -22 167 -35 36 -12 93 -28 125 -34 78 -16 177
-65 213 -107 28 -31 29 -37 24 -91 -6 -50 -2 -68 25 -133 56 -131 86 -360 60
-453 -16 -57 -88 -128 -162 -160 -90 -39 -92 -40 -95 -70 -4 -35 27 -48 177
-72 171 -27 207 -18 459 107 278 137 406 165 554 119 96 -30 117 -57 182 -241
28 -80 85 -176 157 -267 53 -67 49 -86 -38 -153 -137 -105 -326 -132 -493 -72
-47 17 -107 41 -133 53 -52 23 -77 21 -77 -7 0 -10 65 -84 144 -165 136 -141
147 -149 237 -191 52 -24 148 -58 214 -77 117 -32 145 -44 133 -55 -10 -10
-211 -96 -283 -121 -176 -62 -387 -91 -525 -73 -197 26 -341 79 -465 171 -35
26 -92 85 -135 141 -42 54 -83 96 -92 97 -12 0 -27 -21 -48 -67 -32 -71 -185
-268 -264 -341 -50 -46 -204 -150 -276 -187 -66 -33 -208 -90 -263 -105 -34
-9 -80 -11 -155 -7 -152 10 -274 44 -405 115 -160 87 -194 107 -233 141 -23
20 -71 60 -108 90 -73 59 -94 89 -125 171 -26 70 -68 121 -112 135 -80 26
-103 172 -53 329 30 97 35 101 210 192 l129 66 -90 -5 c-103 -5 -173 -29 -248
-84 l-50 -37 -65 12 c-133 22 -268 117 -337 237 -16 28 -34 55 -41 62 -6 6
-24 42 -40 80 -16 37 -47 102 -68 143 -104 198 -165 349 -154 382 3 7 27 -21
53 -62 63 -94 134 -165 238 -233 108 -72 119 -77 180 -87 91 -14 183 25 207
86 16 41 0 63 -74 102 -80 42 -187 120 -260 190 -52 49 -116 169 -116 216 0
31 32 51 170 106 186 74 309 95 403 69 47 -13 64 -39 72 -114 12 -102 41 -213
66 -250 46 -68 198 -156 318 -185 65 -15 149 -16 196 0 19 6 44 9 54 5 13 -4
27 1 42 16 l22 22 -44 42 c-24 23 -82 74 -128 115 -85 74 -161 176 -161 214 0
40 148 194 225 233 68 36 252 93 348 108 56 9 109 18 117 19 44 10 167 4 274
-13z m1017 -795 c73 -38 219 -103 272 -120 9 -3 17 -10 17 -16 0 -13 -311
-165 -380 -186 -51 -15 -180 -12 -180 5 0 4 13 14 29 24 16 9 50 38 75 64 54
55 76 115 76 210 0 35 2 63 4 63 2 0 41 -20 87 -44z m-5483 -305 c29 -100 40
-146 66 -271 23 -107 29 -160 57 -445 15 -151 6 -458 -18 -576 l-18 -94 -7
145 c-4 80 -12 175 -18 212 -5 37 -10 82 -10 100 0 42 -44 224 -58 241 -7 8
-10 78 -7 197 6 305 -18 422 -133 653 -2 5 25 -15 61 -44 61 -49 67 -57 85
-118z m648 135 c76 -26 235 -103 245 -119 7 -11 -4 -60 -22 -94 -12 -22 -100
-96 -179 -150 -57 -38 -283 -113 -342 -113 -45 0 -88 -21 -88 -44 0 -16 140
-137 247 -214 84 -60 346 -199 418 -222 59 -19 68 -28 60 -69 -10 -56 -52
-120 -132 -200 -67 -66 -76 -80 -95 -146 l-21 -72 -41 50 c-44 54 -96 89 -191
128 -159 66 -171 77 -196 184 -15 62 -34 102 -65 135 -19 21 -25 42 -33 125
-19 186 -50 359 -86 485 -38 128 -52 179 -62 216 -6 27 41 64 111 88 61 20 97
20 160 1 93 -28 179 -14 213 35 17 25 15 25 99 -4z m1725 -106 c32 -63 55
-118 53 -122 -12 -20 -80 -27 -129 -14 -161 43 -171 81 -56 204 28 30 56 52
63 50 7 -3 38 -56 69 -118z m-2525 24 c46 -105 66 -230 71 -455 5 -180 3 -221
-16 -332 -21 -120 -46 -205 -57 -194 -3 3 0 58 6 122 9 80 9 119 2 124 -11 6
-20 48 -27 121 -3 25 -14 95 -26 155 -17 94 -20 137 -16 295 6 240 17 268 63
164z m7714 -52 c0 -15 -215 -143 -350 -209 -74 -36 -175 -78 -225 -95 -49 -16
-99 -37 -109 -48 -19 -19 -18 -20 76 -110 127 -120 129 -122 280 -204 72 -39
136 -79 142 -88 8 -13 -2 -29 -50 -83 -88 -100 -102 -122 -110 -182 -12 -97
39 -180 124 -202 20 -6 93 -15 162 -21 81 -8 139 -19 166 -31 23 -10 56 -22
75 -25 59 -11 192 -52 259 -79 116 -48 283 -147 345 -205 33 -31 79 -72 102
-91 47 -39 96 -100 137 -171 l28 -48 -39 -67 c-49 -86 -146 -162 -237 -188
-34 -10 -78 -24 -99 -31 -48 -18 -265 -20 -352 -4 -118 22 -119 22 -152 1 -17
-11 -47 -44 -66 -73 -51 -79 -51 -80 -134 -57 -39 10 -98 28 -129 40 -65 25
-60 32 28 44 38 5 64 19 137 76 89 68 123 105 168 178 71 114 67 138 -28 165
-81 22 -107 42 -259 195 -133 135 -174 162 -255 169 -43 3 -65 -3 -164 -47
-62 -28 -143 -58 -178 -66 -82 -19 -177 -20 -192 -1 -6 7 -18 51 -26 97 -19
109 -52 174 -120 238 -51 48 -61 71 -33 71 6 0 67 30 135 67 120 64 124 67
121 97 -3 30 -5 31 -63 39 -149 19 -359 76 -465 126 -54 25 -190 145 -178 156
3 4 27 -1 52 -9 76 -26 228 -21 325 9 137 44 269 147 295 232 8 26 -4 52 -54
113 -20 25 -47 65 -60 90 -44 84 -71 141 -85 180 -14 39 -13 40 8 40 12 0 56
-6 97 -14 132 -25 254 -28 508 -16 164 8 272 19 322 31 83 19 120 23 120 11z
m-7837 -506 c3 -8 15 -67 27 -131 l21 -115 -27 -50 c-55 -101 -217 -227 -321
-251 -39 -8 -41 0 -13 46 33 53 50 114 60 215 18 174 48 237 133 279 49 24
112 28 120 7z m1916 -394 l53 -64 -22 -69 c-26 -80 -23 -125 15 -198 33 -66
62 -99 189 -213 211 -190 259 -299 260 -590 1 -144 -1 -159 -20 -185 -26 -35
-62 -40 -154 -19 -86 20 -208 20 -280 1 -95 -26 -135 -21 -180 23 -22 20 -60
77 -86 127 -25 49 -51 97 -58 105 -20 28 -60 50 -90 50 -38 0 -94 -43 -112
-86 -17 -40 -18 -134 -3 -204 19 -89 4 -77 -38 31 -80 205 -85 250 -58 476 16
122 15 128 -5 194 -11 38 -40 97 -63 131 -104 153 -121 204 -77 235 91 64 157
159 167 241 l6 52 82 -1 c139 -1 181 12 296 91 l73 50 26 -57 c15 -32 50 -86
79 -121z m1048 -124 c111 -69 162 -88 241 -88 41 0 66 7 99 26 25 14 46 24 47
22 1 -1 11 -23 22 -48 22 -50 131 -163 202 -209 26 -16 63 -42 82 -56 56 -42
210 -126 278 -151 92 -35 265 -74 327 -74 51 0 56 -2 85 -39 17 -21 78 -80
135 -131 58 -52 103 -96 100 -98 -3 -3 -29 11 -58 31 -74 48 -181 102 -244
120 -28 8 -92 19 -143 23 -98 7 -130 23 -159 77 -8 14 -40 39 -71 56 -46 25
-70 31 -117 31 -58 0 -60 1 -108 51 -56 57 -253 208 -343 263 -122 74 -222 27
-222 -105 0 -40 -1 -41 -27 -34 -16 3 -46 9 -68 12 -38 5 -39 5 -24 -13 31
-37 30 -42 -18 -70 -65 -37 -157 -126 -206 -199 -48 -69 -67 -140 -67 -246 0
-61 5 -85 25 -126 34 -68 65 -81 148 -64 34 7 73 19 87 26 47 25 133 34 241
26 57 -4 114 -13 125 -21 32 -20 50 -56 74 -149 30 -120 54 -164 135 -247 136
-140 179 -136 399 44 78 65 79 65 106 48 36 -21 104 -21 140 1 28 16 29 15 82
-23 29 -21 80 -60 113 -87 77 -62 118 -84 278 -153 73 -31 137 -60 143 -65 17
-14 -10 -120 -37 -141 -33 -28 -72 -22 -182 29 -83 39 -112 48 -158 48 -50 0
-64 -5 -115 -40 -64 -44 -98 -87 -161 -203 -57 -106 -89 -125 -199 -119 -68 4
-94 11 -167 45 -132 62 -281 181 -318 254 -21 41 -148 167 -191 189 -95 48
-242 -2 -317 -108 -66 -94 -164 -143 -216 -109 -52 34 -107 154 -120 261 -12
102 -52 169 -116 196 -39 16 -44 43 -31 163 16 134 15 202 -3 327 -36 237 -81
316 -269 474 -120 100 -176 169 -195 242 -12 43 -5 119 11 129 5 3 23 -5 41
-18 114 -86 398 -231 516 -265 92 -25 98 -26 210 -14 131 13 218 38 264 77 60
50 58 83 -7 116 -68 34 -216 158 -216 180 0 11 17 2 137 -74z m2422 11 c19
-22 31 -42 28 -45 -3 -4 -33 -3 -66 1 l-60 7 26 39 c14 21 28 39 32 38 3 0 21
-18 40 -40z m54 -119 c70 -7 98 -15 135 -38 26 -16 82 -44 124 -63 68 -30 81
-39 110 -86 154 -247 192 -283 294 -283 42 0 51 4 85 39 23 25 45 63 58 103
12 35 36 87 54 117 l33 55 79 17 c44 10 100 25 125 34 68 24 139 6 195 -50 56
-55 72 -88 90 -179 25 -136 56 -170 163 -179 82 -8 199 19 344 78 149 60 192
48 314 -89 76 -87 186 -181 247 -212 26 -13 47 -28 47 -32 -1 -19 -76 -106
-131 -152 -92 -77 -106 -84 -184 -91 -94 -9 -135 -30 -135 -68 0 -34 37 -69
109 -105 65 -33 271 -96 311 -96 13 0 49 -4 79 -10 31 -5 73 -12 94 -15 32 -5
37 -9 37 -34 0 -45 -28 -125 -59 -168 -38 -53 -187 -150 -276 -182 -95 -33
-250 -34 -341 -3 -56 19 -199 96 -263 141 -14 10 -61 37 -104 61 -74 40 -81
42 -117 31 -51 -15 -94 -69 -121 -151 -52 -159 -99 -182 -279 -133 -92 25
-142 45 -218 90 -206 121 -299 235 -376 463 -26 74 -50 141 -54 149 -13 23
-30 24 -42 2 -16 -30 20 -178 74 -303 16 -37 16 -38 -4 -38 -32 0 -103 72
-144 149 -22 38 -46 73 -55 76 -9 4 -97 6 -196 6 -208 -1 -266 10 -387 78
l-72 39 3 92 c2 82 0 97 -24 145 -48 99 -110 120 -196 67 -85 -53 -90 -54
-150 -20 -103 59 -319 237 -319 264 0 10 12 14 38 14 81 0 266 78 467 198 108
64 146 94 230 179 l100 102 60 0 c33 0 100 -4 148 -9z m-2126 -161 c30 -16 78
-49 108 -72 29 -23 80 -64 114 -91 34 -27 59 -51 56 -54 -2 -3 -31 2 -62 11
-32 8 -98 26 -148 38 -49 12 -114 31 -142 42 -52 20 -53 20 -53 62 0 46 30 95
57 95 9 0 41 -14 70 -31z m2780 -13 c73 -1 133 -3 133 -6 0 -3 -11 -23 -24
-46 -12 -22 -28 -54 -33 -71 -6 -17 -23 -49 -38 -73 -23 -37 -30 -41 -53 -35
-37 9 -68 39 -118 117 -47 71 -66 112 -57 122 3 3 18 3 32 -1 14 -4 86 -7 158
-7z m-2916 -165 c41 -16 119 -41 174 -55 55 -15 143 -38 195 -52 83 -23 105
-26 186 -20 117 9 147 -3 203 -77 52 -69 89 -87 178 -87 37 0 88 -5 112 -11
65 -15 183 -72 279 -135 47 -31 100 -63 119 -70 68 -29 151 -12 256 52 35 22
64 33 75 29 10 -3 29 -28 42 -55 20 -43 22 -59 17 -123 -8 -92 -18 -120 -62
-169 -67 -74 -46 -117 106 -215 75 -49 138 -71 357 -124 28 -7 52 -16 52 -20
0 -26 -203 -79 -305 -79 -94 0 -185 27 -379 111 -248 107 -312 142 -430 234
-119 93 -155 105 -206 65 -14 -11 -31 -20 -38 -20 -38 0 -121 67 -195 160 -45
55 -188 178 -234 201 -51 25 -78 19 -92 -21 -5 -17 -14 -30 -19 -30 -5 0 -33
17 -63 39 -30 21 -98 64 -152 95 -109 63 -114 65 -212 129 -39 25 -77 52 -84
61 -18 21 -16 108 3 145 9 16 16 39 16 51 0 27 14 25 101 -9z m-192 -65 c-6
-26 -9 -68 -6 -94 4 -40 12 -53 49 -86 40 -36 195 -142 284 -194 28 -17 32
-21 14 -17 -14 3 -71 9 -127 12 -118 7 -191 -5 -298 -48 -40 -16 -80 -27 -88
-23 -59 22 -56 202 5 316 28 53 163 196 174 185 3 -3 0 -26 -7 -51z m510 -485
c46 -35 96 -34 128 3 32 37 51 31 138 -43 74 -63 205 -203 205 -219 0 -5 -13
-12 -29 -15 -16 -3 -55 -30 -87 -59 -142 -130 -156 -133 -225 -60 -87 90 -115
144 -154 302 -9 36 -27 82 -40 102 -14 21 -25 40 -25 43 0 6 40 -18 89 -54z
m-243 -662 c32 -19 64 -55 64 -70 0 -3 -42 -9 -92 -12 -64 -4 -114 -14 -161
-31 -103 -39 -109 -34 -42 35 93 96 164 120 231 78z"/>
<path d="M10645 20002 c-66 -32 -142 -108 -177 -176 -36 -71 -69 -285 -48
-311 19 -23 48 -18 67 13 65 101 187 201 328 265 60 28 106 41 184 52 58 8
108 12 113 9 4 -3 8 4 8 15 0 36 -29 41 -141 27 -133 -18 -256 -70 -381 -161
l-91 -67 7 42 c13 84 88 184 164 220 46 22 51 23 182 12 74 -6 146 -14 160
-18 17 -5 8 5 -25 28 -87 61 -114 70 -205 75 -78 4 -90 2 -145 -25z"/>
<path d="M17548 18475 c-26 -14 -61 -43 -79 -65 -22 -27 -40 -40 -57 -40 -28
0 -92 -28 -92 -41 0 -21 8 -24 70 -25 52 0 90 -9 190 -47 136 -50 185 -63 299
-77 76 -10 101 -4 101 26 0 7 -20 32 -45 55 -25 24 -55 57 -66 75 -21 35 -144
129 -196 150 -45 19 -71 17 -125 -11z m108 -38 c78 -46 199 -166 182 -182 -6
-6 -97 20 -241 68 l-128 43 38 26 c85 58 113 66 149 45z"/>
<path d="M13135 18315 c-33 -11 -36 -14 -15 -15 14 0 34 -7 44 -15 11 -8 40
-15 65 -15 75 0 87 -8 127 -76 49 -84 154 -190 234 -237 70 -40 232 -97 279
-97 16 0 36 9 47 21 18 20 18 21 -1 54 -11 18 -74 84 -140 146 -102 96 -133
119 -211 156 -158 75 -342 108 -429 78z m343 -104 c39 -15 90 -40 114 -54 47
-28 250 -227 231 -227 -25 0 -158 53 -213 86 -67 39 -145 110 -184 168 -24 36
-32 56 -22 56 2 0 36 -13 74 -29z"/>
<path d="M6345 14969 c-473 -31 -936 -143 -1230 -299 -275 -146 -440 -319
-500 -525 -24 -83 -24 -224 -1 -295 118 -351 598 -442 968 -184 76 53 123 100
175 172 110 153 145 306 109 479 -19 87 -25 103 -42 103 -16 0 -17 -13 -4 -60
34 -123 26 -243 -21 -325 -90 -156 -282 -293 -485 -345 -101 -27 -263 -29
-361 -4 -233 58 -332 184 -302 384 15 102 55 174 143 258 135 128 304 206 596
275 371 88 809 114 1394 82 185 -11 332 -23 328 -27 -4 -4 -50 -21 -102 -36
-395 -120 -686 -321 -892 -617 -23 -33 -100 -161 -171 -285 -71 -124 -152
-263 -180 -310 -199 -333 -378 -507 -592 -576 -89 -28 -273 -27 -335 3 -60 28
-97 64 -120 115 -26 58 -25 86 3 97 25 10 69 55 86 89 18 35 16 136 -4 170
-37 62 -130 98 -207 80 -59 -13 -100 -43 -139 -102 -32 -48 -34 -56 -33 -131
1 -66 6 -90 28 -134 93 -182 329 -267 668 -240 124 10 232 30 338 65 85 28
265 122 345 181 240 177 396 378 617 793 263 493 468 709 768 810 60 20 70 21
199 9 75 -6 138 -13 140 -15 5 -4 -184 -330 -841 -1452 -104 -178 -192 -330
-195 -338 -5 -14 10 -15 138 -10 79 4 171 9 204 12 l60 5 34 65 c55 107 204
322 335 486 210 261 401 426 506 436 59 5 80 -13 80 -71 -1 -56 -25 -105 -102
-207 -87 -116 -195 -280 -218 -333 -31 -69 -40 -160 -24 -235 7 -36 19 -72 26
-81 64 -86 112 -111 210 -111 146 0 293 83 480 271 65 65 118 113 118 106 1
-50 24 -155 41 -190 66 -131 183 -188 390 -188 140 0 242 20 359 68 166 68
387 236 569 431 104 111 241 282 241 301 0 27 -29 6 -73 -54 -177 -240 -472
-502 -677 -603 l-95 -47 -111 0 c-106 0 -112 1 -148 28 -79 61 -114 165 -101
298 l7 66 76 18 c396 89 679 221 742 346 44 85 29 181 -36 226 -67 46 -121 58
-269 58 -126 -1 -148 -3 -224 -28 -227 -76 -433 -216 -558 -381 -50 -67 -106
-180 -117 -238 -5 -26 -29 -61 -85 -125 -153 -173 -320 -294 -404 -293 -64 1
-83 69 -43 155 25 56 49 92 177 270 145 201 190 299 191 417 0 62 -4 84 -23
119 -45 81 -124 114 -254 106 -92 -5 -163 -33 -285 -112 -90 -58 -307 -272
-404 -398 -38 -48 -70 -86 -73 -84 -4 5 24 51 162 262 116 178 805 1318 805
1332 0 3 -56 3 -124 -1 -96 -6 -140 -4 -201 9 -152 31 -1140 55 -1450 34z
m2923 -1097 c23 -30 25 -62 8 -129 -44 -181 -218 -337 -459 -413 -31 -10 -59
-14 -62 -9 -13 20 91 237 165 345 45 65 158 182 194 202 63 34 129 36 154 4z"/>
<path d="M6990 11294 c-182 -7 -577 -55 -690 -84 -19 -5 -69 -16 -110 -26
-269 -60 -522 -161 -695 -277 -101 -67 -234 -211 -277 -298 -37 -76 -68 -205
-68 -283 1 -219 177 -419 414 -471 219 -48 522 57 697 241 135 144 185 268
177 444 -5 106 -33 203 -59 208 -15 3 -15 -4 3 -65 29 -103 22 -248 -16 -323
-115 -229 -524 -401 -821 -345 -49 9 -113 27 -142 40 -68 31 -138 97 -171 160
-22 43 -25 63 -26 146 -1 93 1 99 38 173 90 176 303 304 635 380 245 56 383
73 721 87 352 14 1110 -1 1110 -22 0 -5 -8 -9 -19 -9 -56 0 -427 -139 -528
-198 -27 -16 -55 -31 -63 -34 -8 -3 -60 -39 -115 -80 -156 -116 -262 -238
-390 -450 -20 -32 -22 -33 -100 -36 -77 -3 -111 -14 -99 -34 4 -5 38 -8 78 -7
53 2 70 0 68 -10 -2 -11 -55 -104 -210 -371 -115 -198 -271 -387 -392 -475
-128 -93 -250 -130 -408 -123 -143 7 -227 53 -259 140 -20 57 -16 71 27 96 53
30 80 84 80 160 0 107 -64 167 -181 167 -80 0 -129 -28 -181 -102 -31 -45 -33
-53 -33 -133 0 -94 16 -135 77 -201 66 -71 140 -112 264 -145 101 -27 369 -24
514 5 460 93 815 386 1090 896 28 51 56 97 63 103 12 10 226 36 233 29 2 -2
-12 -39 -32 -83 -61 -135 -71 -157 -102 -239 -33 -86 -58 -183 -49 -192 10
-10 26 7 93 104 118 169 354 423 543 586 42 35 51 48 39 52 -9 4 -87 5 -173 3
l-157 -3 -25 -30 c-13 -16 -35 -47 -49 -67 -13 -21 -35 -44 -47 -53 -31 -20
-124 -44 -201 -52 l-60 -6 29 49 c221 381 416 600 622 697 l68 32 300 0 c271
0 304 2 343 19 24 10 45 16 47 14 3 -2 -75 -137 -172 -299 -486 -811 -625
-1063 -673 -1221 -31 -100 -32 -208 -2 -265 26 -49 66 -80 129 -99 170 -51
371 39 616 275 76 74 87 81 87 59 0 -71 66 -190 135 -242 140 -107 415 -137
630 -70 149 47 325 159 423 269 53 60 115 158 145 230 20 49 47 166 47 207 l0
30 53 -47 c64 -59 124 -85 194 -87 29 -1 53 -3 53 -5 0 -2 -22 -49 -49 -106
-85 -175 -90 -307 -18 -414 57 -85 134 -119 247 -110 160 13 299 106 462 310
39 48 72 87 73 85 2 -2 -1 -28 -6 -58 -10 -62 2 -153 25 -198 70 -135 362
-182 616 -100 311 101 600 347 710 606 12 28 24 52 26 52 2 0 26 -13 52 -30
33 -20 73 -34 125 -42 l76 -11 -16 -36 c-43 -101 -54 -222 -27 -323 44 -171
184 -258 412 -258 242 1 450 83 680 270 35 28 66 50 68 47 4 -4 -51 -108 -115
-215 -17 -29 -29 -56 -27 -60 2 -4 91 -2 197 3 l194 10 47 88 c130 240 343
524 515 688 112 106 158 126 134 58 -25 -73 -6 -179 45 -246 100 -131 371
-145 587 -31 72 38 224 178 213 197 -5 8 -34 -13 -87 -63 -93 -87 -181 -136
-247 -136 -37 0 -50 6 -77 33 -64 64 -70 168 -16 283 33 70 98 169 130 198 40
36 27 39 -118 33 -201 -8 -271 -32 -351 -119 -19 -21 -53 -48 -75 -59 -94 -50
-236 -183 -360 -339 -85 -106 -104 -125 -75 -75 13 22 29 47 35 55 24 30 325
479 325 484 0 7 -167 6 -314 -3 l-109 -6 -27 -45 c-15 -25 -98 -170 -184 -322
-140 -248 -164 -284 -219 -334 -151 -136 -328 -252 -437 -284 -227 -68 -372
38 -369 270 2 114 -1 111 129 141 325 75 551 172 663 285 85 85 79 220 -13
282 -104 70 -331 79 -495 20 -230 -83 -433 -226 -554 -392 l-43 -58 -72 4
c-67 5 -98 16 -163 58 -21 13 -21 19 -16 134 5 110 4 126 -16 172 -44 102
-175 153 -269 105 -71 -36 -104 -95 -103 -185 0 -33 5 -76 11 -95 8 -29 5 -49
-21 -125 -84 -249 -289 -542 -443 -635 -130 -78 -261 -71 -282 15 -28 113 101
366 435 850 50 73 91 137 91 144 0 16 -400 3 -416 -14 -6 -6 -66 -105 -134
-221 -207 -354 -328 -526 -468 -662 -86 -84 -156 -123 -219 -123 -131 0 -109
151 64 449 31 53 125 200 210 328 84 127 153 236 153 243 0 12 -360 3 -397
-11 -12 -4 -45 -45 -73 -91 -28 -46 -82 -132 -120 -193 -37 -60 -78 -116 -91
-123 -29 -16 -125 -10 -160 9 -47 27 -102 85 -169 180 -137 192 -247 260 -445
275 -136 11 -361 -38 -500 -109 -204 -103 -366 -293 -410 -479 -8 -35 -15 -78
-15 -96 0 -28 -12 -46 -67 -104 -38 -39 -109 -105 -159 -147 -232 -193 -354
-172 -284 50 42 131 265 524 680 1194 218 353 410 674 410 685 0 8 -12 10 -37
6 -21 -3 -83 -8 -138 -11 -55 -3 -135 -8 -177 -11 l-77 -6 -27 -45 -27 -46
-12 30 c-18 42 -69 81 -128 97 -85 23 -1069 52 -1367 40z m2400 -1099 c66 -34
81 -137 42 -292 -93 -369 -385 -758 -574 -765 -184 -7 -182 233 4 607 161 323
393 520 528 450z m3891 -6 c18 -18 21 -30 17 -89 -9 -158 -155 -327 -363 -418
-77 -33 -154 -56 -162 -48 -8 8 35 120 75 196 85 162 225 330 303 363 51 23
105 21 130 -4z m720 -612 c-10 -9 -11 -8 -5 6 3 10 9 15 12 12 3 -3 0 -11 -7
-18z"/>
<path d="M12130 7723 c-102 -5 -246 -31 -353 -64 -97 -30 -100 -30 -160 -15
-285 68 -741 66 -1047 -6 -367 -86 -728 -278 -923 -491 -222 -242 -294 -548
-183 -783 93 -197 304 -289 548 -239 202 42 364 173 452 368 55 122 71 203 71
367 l-1 145 -48 113 c-28 67 -54 112 -62 112 -19 0 -18 -9 11 -74 93 -210 87
-450 -16 -663 -49 -102 -142 -206 -214 -239 -71 -34 -199 -34 -270 0 -109 51
-165 155 -173 321 -10 241 86 477 278 679 140 148 319 259 530 329 175 59 268
72 495 72 203 0 230 -3 380 -47 96 -28 106 -39 58 -64 -216 -110 -447 -337
-639 -629 -66 -101 -114 -183 -377 -650 -153 -272 -265 -427 -393 -544 -123
-112 -230 -160 -375 -168 -88 -5 -101 -3 -151 19 -62 29 -90 63 -108 128 -11
40 -10 46 5 55 100 58 131 150 83 245 -30 57 -89 90 -165 90 -133 0 -213 -85
-213 -227 0 -165 88 -264 290 -325 54 -17 94 -20 240 -20 187 0 316 18 443 63
78 27 223 99 292 144 70 47 202 162 246 216 20 24 53 64 73 87 51 62 129 184
228 357 148 259 309 545 340 603 60 110 176 278 263 380 48 56 91 102 95 102
15 0 50 -48 77 -105 55 -118 40 -328 -33 -454 -93 -159 -226 -244 -488 -313
-79 -21 -66 -33 38 -33 87 0 98 -2 162 -35 131 -67 182 -175 171 -362 -8 -145
-48 -262 -132 -388 -52 -78 -141 -165 -210 -206 -44 -26 -59 -29 -133 -29 -82
0 -84 1 -113 33 -62 69 -28 195 83 305 25 24 20 36 -28 69 -130 92 -320 31
-354 -113 -22 -89 2 -178 64 -242 99 -100 286 -132 513 -88 412 80 723 362
723 656 0 167 -75 287 -227 364 -57 29 -196 61 -262 61 -73 0 -59 9 41 26 186
33 333 97 437 190 105 96 141 174 141 308 0 139 -38 228 -140 326 -37 36 -94
81 -128 100 -34 19 -60 40 -58 45 4 16 95 63 156 81 30 9 103 19 163 22 96 4
107 7 107 23 0 14 -7 19 -27 17 -16 -1 -57 -3 -93 -5z"/>
<path d="M15525 7638 c-60 -4 -142 -11 -180 -14 l-70 -5 -99 -177 c-55 -97
-121 -214 -148 -260 -26 -45 -48 -85 -48 -87 0 -2 -22 -42 -48 -87 -27 -46
-106 -185 -176 -311 -71 -125 -132 -229 -136 -232 -4 -3 -15 12 -23 33 -8 20
-31 56 -51 79 -62 71 -158 89 -314 57 -353 -71 -645 -312 -757 -626 -13 -39
-34 -63 -106 -125 -112 -97 -247 -194 -319 -229 -218 -108 -391 -76 -450 83
-24 64 -29 234 -7 250 6 5 55 20 107 33 223 53 367 102 487 164 115 60 176
106 210 158 37 55 40 160 7 205 -64 86 -258 125 -436 88 -340 -71 -669 -332
-753 -598 -40 -124 -32 -266 18 -364 22 -42 97 -108 151 -132 79 -34 202 -46
331 -32 230 25 398 107 634 308 l96 82 6 -97 c9 -160 69 -253 183 -287 106
-32 271 -4 381 63 58 36 164 129 215 189 25 29 47 53 50 53 3 0 5 -33 5 -73 0
-175 126 -271 317 -239 206 34 424 225 739 644 54 73 99 138 99 145 0 32 -30
5 -95 -85 -221 -306 -438 -527 -597 -608 -55 -28 -104 -31 -137 -8 -21 15 -23
23 -19 83 6 117 64 221 750 1363 197 328 358 599 358 602 0 7 -27 6 -175 -6z
m-2414 -1049 c18 -18 21 -30 17 -83 -12 -179 -205 -376 -442 -452 -43 -13 -81
-23 -83 -20 -9 9 21 95 62 177 85 168 217 333 304 379 50 26 115 26 142 -1z
m1358 6 c65 -33 73 -152 21 -316 -29 -89 -118 -268 -181 -364 -72 -108 -184
-219 -255 -252 -79 -36 -146 -36 -182 0 -24 25 -27 36 -30 111 -5 97 12 170
65 296 94 223 276 456 404 518 52 25 119 28 158 7z"/>
<path d="M17295 16108 c-32 -19 -149 -113 -214 -173 -33 -31 -99 -109 -146
-174 -58 -79 -99 -125 -124 -139 -49 -28 -66 -48 -51 -57 18 -11 165 67 249
130 41 31 99 74 130 95 93 63 148 118 201 198 61 93 64 126 10 129 -19 2 -44
-2 -55 -9z m-33 -145 c-20 -36 -119 -123 -202 -177 -46 -30 -86 -53 -89 -50
-9 8 102 114 169 162 36 25 78 57 94 69 32 26 43 25 28 -4z"/>
<path d="M15585 14860 c-99 -21 -91 -12 -84 -100 10 -143 88 -262 222 -338
108 -62 178 -61 249 6 108 100 14 299 -184 391 -92 43 -143 53 -203 41z m160
-92 c78 -35 122 -72 166 -137 39 -60 39 -103 -1 -143 -26 -26 -36 -30 -66 -25
-47 8 -144 68 -189 118 -46 51 -95 153 -95 198 l0 34 58 -7 c31 -4 89 -21 127
-38z"/>
<path d="M12540 14540 c-43 -10 -80 -52 -80 -91 0 -16 -7 -46 -15 -65 -46
-112 -57 -340 -18 -405 27 -45 65 -40 116 17 23 25 60 55 81 66 35 18 45 19
95 8 31 -6 89 -10 130 -8 67 3 76 5 94 31 20 26 20 31 8 114 -17 120 -42 174
-110 234 -106 94 -195 124 -301 99z m149 -102 c101 -49 155 -126 163 -233 l3
-40 -110 -1 c-60 0 -121 -5 -135 -11 -14 -6 -51 -31 -81 -56 l-57 -46 -6 37
c-16 101 5 236 45 278 20 22 22 28 10 45 -15 25 -15 25 29 37 56 16 90 14 139
-10z"/>
<path d="M18655 12318 c-16 -48 -24 -202 -14 -283 14 -124 31 -180 99 -320 47
-98 66 -126 97 -148 67 -46 94 -35 107 48 18 109 -142 454 -229 493 -20 9 -23
19 -29 111 -7 92 -19 133 -31 99z m100 -350 c37 -57 110 -227 125 -292 11 -50
0 -75 -21 -49 -34 41 -149 329 -149 376 0 27 7 21 45 -35z"/>
<path d="M839 9544 c-76 -14 -113 -31 -186 -87 -118 -88 -130 -174 -68 -455
13 -55 80 -190 91 -180 1 2 -1 20 -5 41 -8 34 -8 36 11 26 31 -17 46 -4 53 48
21 162 75 314 166 470 48 83 58 106 50 122 -15 26 -37 29 -112 15z m-19 -94
c0 -6 -12 -29 -26 -51 -34 -55 -93 -208 -110 -289 -7 -36 -15 -96 -16 -135 -1
-48 -2 -56 -5 -25 -1 25 -10 100 -19 167 -24 176 -20 195 58 266 72 67 118 93
118 67z"/>
<path d="M4870 6062 c-42 -23 -80 -76 -80 -111 0 -83 138 -240 261 -298 211
-100 248 -83 252 116 2 85 -1 100 -21 133 -13 21 -37 48 -54 61 -27 22 -29 26
-17 45 7 12 10 24 7 27 -13 14 -128 35 -218 40 -82 6 -100 4 -130 -13z m275
-72 c79 -18 122 -112 112 -244 -9 -115 -14 -117 -130 -66 -77 33 -109 55 -165
108 -65 62 -102 121 -102 161 0 10 10 28 22 41 21 22 25 23 122 16 56 -3 119
-10 141 -16z"/>
<path d="M1968 5900 c-3 -28 -1 -68 3 -88 5 -20 15 -68 23 -107 8 -38 22 -89
30 -113 37 -104 200 -370 252 -411 110 -86 77 104 -67 386 -80 156 -158 280
-185 290 -7 2 -18 21 -25 41 -18 57 -26 58 -31 2z m164 -313 c53 -90 126 -246
133 -287 l6 -35 -21 25 c-47 57 -184 360 -162 360 4 0 24 -28 44 -63z"/>
<path d="M5550 3470 c-30 -10 -62 -28 -71 -39 -23 -28 -29 -27 -77 15 -45 38
-47 27 -5 -36 31 -48 154 -147 220 -177 66 -31 183 -52 284 -53 101 0 106 11
43 102 -106 156 -265 232 -394 188z m195 -74 c75 -36 156 -120 140 -146 -9
-15 -169 -1 -235 22 -52 18 -150 76 -150 89 0 10 49 40 79 49 51 16 115 10
166 -14z"/>
<path d="M8022 3215 c-30 -14 -60 -25 -67 -25 -9 0 -11 -9 -6 -32 7 -35 40
-58 131 -90 100 -35 193 -50 316 -52 131 -1 154 6 154 49 0 46 -78 92 -249
145 -123 39 -204 40 -279 5z m218 -76 c30 -6 90 -22 134 -36 99 -31 91 -48
-22 -47 -106 1 -259 39 -334 84 -25 15 -22 16 70 13 53 -2 122 -8 152 -14z"/>
<path d="M9662 1301 c-29 -10 -55 -21 -59 -25 -12 -12 11 -24 72 -39 33 -9 97
-25 143 -36 124 -31 242 -42 390 -34 109 5 135 9 142 23 12 23 1 36 -50 59
-138 60 -523 92 -638 52z m468 -65 c58 -11 62 -14 37 -21 -25 -7 -256 9 -316
21 -20 4 -22 7 -10 15 18 13 200 3 289 -15z"/>
</g>
</svg>
