<?xml version="1.0" standalone="no"?>
<!DOCTYPE svg PUBLIC "-//W3C//DTD SVG 20010904//EN"
 "http://www.w3.org/TR/2001/REC-SVG-20010904/DTD/svg10.dtd">
<svg version="1.0" xmlns="http://www.w3.org/2000/svg"
 width="2048.000000pt" height="2048.000000pt" viewBox="0 0 2048.000000 2048.000000"
 preserveAspectRatio="xMidYMid meet">

<g transform="translate(0.000000,2048.000000) scale(0.100000,-0.100000)"
fill="#000000" stroke="none">
<path d="M12307 20430 c-26 -5 -92 -23 -145 -42 -89 -30 -102 -38 -159 -96
l-61 -64 -69 51 c-37 28 -86 66 -108 85 -65 54 -81 59 -159 53 -104 -8 -160
-29 -266 -99 -96 -64 -140 -112 -140 -155 0 -33 -20 -37 -92 -19 -78 19 -282
38 -409 38 -93 0 -101 -2 -225 -53 -71 -29 -173 -69 -227 -90 -188 -72 -297
-162 -390 -317 -34 -57 -68 -107 -77 -112 -8 -4 -107 -8 -220 -8 -228 -1 -486
-19 -850 -58 -279 -30 -779 -123 -1121 -209 -966 -242 -1792 -585 -2559 -1060
-935 -580 -1695 -1230 -2336 -2000 -475 -569 -738 -954 -1106 -1615 -251 -451
-446 -880 -633 -1395 -169 -466 -338 -1104 -400 -1515 -74 -492 -104 -823
-112 -1233 l-6 -329 -40 -61 c-46 -71 -88 -160 -143 -302 l-38 -100 0 -180 c0
-179 4 -211 46 -390 26 -113 104 -298 151 -362 20 -26 86 -97 146 -158 82 -80
111 -116 111 -134 0 -14 -42 -91 -94 -175 -153 -246 -205 -363 -213 -482 -6
-93 10 -155 80 -309 52 -114 96 -184 154 -247 37 -38 45 -53 37 -65 -5 -9 -57
-32 -114 -52 -179 -62 -235 -103 -341 -253 -90 -126 -117 -186 -125 -274 -8
-85 10 -253 37 -338 24 -80 156 -368 206 -449 20 -34 79 -105 129 -158 85 -88
192 -235 229 -314 9 -17 28 -46 43 -64 l27 -32 39 27 c29 20 48 46 77 108 63
136 206 259 419 363 119 58 158 73 190 73 33 0 40 -14 40 -84 0 -219 69 -455
246 -844 45 -98 164 -202 375 -325 70 -41 117 -78 177 -141 45 -47 84 -95 86
-108 3 -13 7 -66 9 -118 2 -55 11 -116 22 -145 30 -86 114 -247 165 -317 28
-38 50 -73 50 -79 0 -16 -128 -6 -245 18 -55 12 -119 24 -143 28 -23 4 -83 27
-133 51 -99 48 -118 52 -154 28 -50 -33 -44 -65 48 -255 106 -218 202 -352
357 -495 275 -256 425 -337 685 -371 196 -25 317 -22 432 11 135 38 136 38
122 -39 -5 -28 -13 -133 -19 -235 -5 -102 -13 -203 -16 -226 -5 -37 -3 -44 23
-64 24 -19 35 -21 78 -15 139 21 195 3 321 -100 152 -125 285 -159 427 -109
33 12 217 118 290 167 15 10 23 6 54 -31 42 -51 300 -247 358 -272 69 -31 173
-44 235 -31 l53 12 121 -69 c67 -38 144 -80 171 -94 92 -45 230 -119 270 -144
43 -26 56 -33 122 -60 45 -19 47 -23 58 -93 11 -66 50 -175 89 -245 18 -33 53
-97 76 -141 85 -159 221 -332 329 -418 97 -76 251 -176 344 -223 161 -82 293
-106 557 -101 l135 2 85 -41 c193 -93 212 -98 355 -98 99 -1 142 3 181 17 78
27 138 70 183 131 23 31 47 56 54 56 7 0 46 -25 87 -57 41 -31 104 -70 140
-87 56 -26 76 -31 150 -31 81 0 89 2 175 45 120 59 184 122 209 207 12 40 25
65 37 68 10 3 44 -1 76 -9 111 -27 209 -39 338 -40 130 -1 130 -1 250 43 66
24 150 59 187 78 183 90 202 95 438 104 283 11 531 35 895 89 209 31 307 49
668 124 349 73 379 82 927 257 848 270 1604 650 2340 1172 450 320 568 411
840 646 177 153 701 674 871 867 461 522 859 1086 1264 1789 447 778 781 1653
999 2620 40 177 58 270 97 495 60 345 108 899 109 1238 l0 152 39 63 c67 107
111 198 137 284 14 46 27 83 29 83 3 0 16 -23 30 -51 33 -63 77 -86 132 -68
74 24 140 131 235 384 39 106 51 221 38 385 -16 210 -58 373 -141 545 -44 92
-58 110 -169 220 -126 125 -154 162 -143 191 3 9 43 76 89 148 84 135 152 264
195 371 34 85 33 203 -3 300 -62 170 -143 310 -229 396 -41 41 -26 56 91 94
107 34 202 86 254 139 48 48 171 221 191 269 29 70 38 161 26 270 -16 139 -42
228 -108 371 -123 269 -155 319 -278 446 -74 77 -124 146 -237 330 -38 61 -38
61 -65 46 -44 -22 -69 -55 -106 -136 -59 -127 -183 -233 -402 -343 -136 -68
-203 -91 -220 -77 -7 6 -15 50 -19 108 -16 229 -53 373 -160 628 -84 197 -124
270 -175 316 -105 94 -248 185 -531 337 l-85 46 -6 175 c-4 96 -12 192 -18
212 -27 86 -75 188 -123 261 -54 82 -54 96 -2 97 11 0 62 7 112 16 109 19 185
10 283 -31 35 -15 85 -32 112 -37 41 -9 50 -8 67 7 44 39 8 167 -81 294 -24
34 -62 89 -85 122 -133 190 -328 375 -474 449 -73 37 -233 87 -381 120 -157
34 -307 40 -419 15 -36 -8 -70 -14 -76 -15 -8 0 -10 38 -6 133 4 103 1 148
-12 198 -9 36 -16 82 -16 102 0 79 -88 120 -180 83 -24 -9 -52 -14 -68 -10
-15 4 -81 42 -147 84 -139 90 -191 113 -295 129 -61 10 -90 9 -158 -3 -106
-19 -156 -44 -237 -117 -36 -32 -72 -59 -80 -59 -8 0 -39 33 -69 73 -71 95
-173 190 -282 261 -43 28 -170 56 -256 56 -60 0 -170 -25 -219 -51 -21 -10
-96 -38 -166 -60 -121 -40 -132 -41 -218 -36 -101 6 -113 10 -370 130 -158 74
-350 145 -555 207 -58 17 -111 33 -117 35 -26 9 -11 24 50 49 120 49 175 61
302 61 96 0 126 -4 152 -18 40 -22 279 -63 314 -54 32 8 54 55 45 94 -4 16
-15 51 -26 78 -10 28 -38 102 -61 165 -82 225 -171 374 -351 586 -124 146
-273 248 -450 307 -111 37 -186 49 -328 52 -147 4 -217 19 -398 85 -196 72
-310 91 -435 70z m-622 -231 c33 -15 102 -60 154 -99 72 -53 101 -70 127 -70
39 0 84 35 114 88 25 44 62 69 152 105 91 37 146 35 279 -8 60 -19 113 -35
119 -35 6 0 52 -16 103 -36 148 -58 304 -94 462 -105 164 -12 232 -27 329 -76
189 -95 275 -176 385 -363 90 -152 187 -337 181 -343 -3 -3 -57 -1 -119 6
-196 19 -321 -8 -577 -124 -99 -45 -129 -64 -181 -115 -59 -58 -63 -65 -63
-107 0 -59 32 -99 100 -123 28 -10 72 -36 98 -57 26 -22 72 -57 103 -78 145
-98 246 -276 221 -388 -9 -40 -5 -43 -100 77 -110 139 -320 315 -422 353 -31
12 -90 23 -136 26 -94 6 -142 -10 -231 -79 -71 -54 -121 -132 -171 -266 -46
-122 -62 -221 -62 -373 0 -142 22 -240 81 -364 40 -82 48 -109 40 -119 -21
-25 -104 -38 -291 -46 -184 -8 -278 -22 -467 -71 -110 -29 -261 -122 -316
-195 l-38 -51 -47 12 c-383 100 -600 230 -764 456 -40 55 -83 113 -94 130 -12
16 -30 64 -39 106 -15 68 -16 92 -5 198 24 247 48 400 74 470 57 155 18 246
-150 351 -85 53 -190 82 -459 129 -105 17 -170 19 -248 5 -31 -5 -83 -14 -114
-20 -32 -5 -88 -20 -125 -32 -37 -12 -71 -18 -75 -15 -12 12 16 73 70 158 121
188 204 309 261 379 34 41 71 91 84 111 12 21 66 76 120 124 150 135 278 190
572 245 127 25 184 24 448 -4 161 -18 215 -13 243 20 8 9 30 49 49 88 26 53
48 81 85 109 96 74 117 75 240 16z m-2045 -750 c0 -6 -20 -39 -43 -73 -87
-121 -171 -263 -204 -341 -18 -44 -49 -103 -68 -131 -42 -60 -49 -126 -16
-144 36 -19 43 -17 266 44 103 29 203 33 425 16 196 -15 380 -49 380 -70 0 -4
-153 -10 -339 -13 -187 -4 -389 -11 -448 -17 -59 -6 -182 -17 -273 -25 -164
-16 -222 -23 -415 -51 -425 -63 -944 -183 -1385 -321 -278 -87 -807 -306
-1131 -468 -691 -346 -1267 -744 -1875 -1296 -322 -292 -778 -793 -1050 -1154
-654 -866 -1131 -1829 -1450 -2928 -85 -295 -155 -583 -194 -802 -35 -199 -90
-645 -90 -732 0 -17 -14 -18 -198 -20 -221 -3 -268 -10 -365 -61 -76 -39 -217
-179 -263 -260 -15 -26 -50 -85 -79 -132 -75 -121 -120 -215 -146 -303 -12
-42 -25 -77 -28 -77 -3 1 -20 31 -38 68 l-32 67 15 290 c30 623 65 908 184
1507 149 743 361 1396 675 2073 367 791 884 1574 1478 2235 149 166 486 504
667 670 1009 920 2228 1623 3533 2036 690 219 1470 366 2132 404 105 6 213 12
240 13 117 7 135 7 135 -4z m4276 -807 c159 -71 227 -106 232 -120 3 -9 -18
-12 -80 -12 -45 0 -106 -3 -134 -6 -47 -6 -53 -4 -58 14 -4 12 -29 55 -56 97
-61 92 -55 94 96 27z m-3428 -77 c4 -3 -4 -36 -16 -73 -34 -103 -40 -143 -53
-340 -13 -197 -8 -259 31 -385 26 -83 175 -311 251 -383 186 -175 315 -250
547 -316 57 -16 135 -43 174 -59 39 -16 99 -34 133 -40 81 -15 108 -2 154 74
19 32 45 66 58 74 21 14 28 14 69 -2 87 -33 145 -106 199 -248 13 -36 46 -107
72 -157 69 -134 102 -145 238 -84 152 69 202 84 273 84 74 0 88 -6 202 -90 75
-55 203 -121 275 -141 76 -21 246 -17 317 8 71 25 153 74 226 135 124 104 122
103 249 103 l112 0 63 -61 c75 -73 112 -94 169 -94 39 0 47 5 83 47 67 77 147
153 179 170 36 18 100 12 150 -13 43 -22 143 -126 190 -197 21 -32 69 -90 106
-130 85 -90 213 -250 274 -343 26 -39 64 -84 84 -100 85 -65 215 -142 260
-153 26 -7 80 -24 120 -37 51 -17 93 -24 151 -24 70 0 82 3 106 25 42 39 36
84 -18 132 -75 65 -118 155 -82 169 7 3 40 -11 72 -32 85 -54 210 -110 279
-124 56 -12 65 -18 134 -89 151 -156 332 -390 396 -513 l29 -56 -41 -104 c-56
-139 -72 -248 -89 -579 -7 -152 1 -186 56 -214 37 -19 64 -19 121 1 60 22 101
14 175 -34 33 -21 83 -51 112 -67 64 -35 126 -113 182 -230 47 -99 54 -124 42
-155 -10 -26 -125 -187 -213 -300 -66 -83 -78 -112 -100 -242 -19 -114 -36
-158 -72 -183 -12 -9 -96 -65 -187 -124 -181 -119 -321 -243 -360 -321 -36
-71 -38 -159 -6 -270 29 -101 92 -247 141 -325 18 -27 74 -92 126 -142 108
-107 178 -147 329 -188 52 -15 154 -44 225 -65 181 -55 219 -60 485 -63 219
-3 240 -5 304 -28 101 -35 111 -52 111 -192 -1 -84 -6 -131 -22 -187 -32 -111
-43 -208 -43 -408 -1 -205 9 -254 80 -364 49 -75 74 -153 64 -203 -4 -21 -36
-77 -75 -132 -69 -97 -74 -109 -70 -173 7 -100 174 -257 354 -334 39 -16 67
-34 67 -43 0 -46 -62 -436 -124 -788 -67 -373 -200 -887 -330 -1280 -432
-1298 -1121 -2424 -2055 -3355 -303 -302 -520 -486 -911 -770 -718 -522 -1434
-871 -2365 -1155 -513 -156 -1041 -265 -1470 -304 -66 -6 -167 -16 -225 -22
-58 -6 -306 -13 -552 -16 -371 -5 -448 -3 -448 8 0 7 16 49 34 94 64 147 67
316 12 560 -37 163 -58 214 -143 352 -63 100 -97 143 -173 216 -163 155 -259
217 -485 314 -150 65 -214 83 -290 83 -61 0 -74 -3 -92 -22 -12 -13 -24 -39
-28 -58 -4 -19 -12 -43 -17 -53 -20 -38 -81 -97 -100 -97 -33 0 -129 64 -189
127 -97 100 -124 146 -193 333 -42 114 -58 123 -146 85 -213 -90 -242 -99
-319 -97 -110 3 -169 25 -258 99 -146 122 -219 149 -372 139 -84 -5 -104 -10
-195 -52 -56 -26 -125 -65 -154 -86 -81 -60 -129 -78 -214 -79 -40 -1 -100 2
-132 6 -52 7 -66 14 -106 51 -50 46 -120 83 -159 84 -35 0 -87 -36 -122 -85
-64 -89 -137 -117 -228 -88 -74 23 -113 65 -185 197 -65 119 -94 158 -216 291
-120 130 -388 342 -520 410 -41 21 -220 65 -265 65 -20 0 -56 5 -79 11 -73 18
-126 -21 -126 -94 0 -26 15 -54 70 -126 61 -80 85 -131 64 -131 -4 0 -38 24
-78 54 -123 92 -202 120 -333 118 l-83 -2 -71 63 c-104 91 -401 394 -423 431
l-20 33 46 56 c55 68 133 246 153 349 17 93 48 513 41 553 -14 71 -98 111
-170 81 -55 -23 -94 -20 -151 13 -200 113 -208 119 -257 189 -47 67 -118 219
-118 251 0 16 14 50 33 77 33 49 162 225 218 298 34 45 54 108 69 216 18 128
29 142 192 245 162 102 317 223 370 287 65 80 82 124 82 213 -1 95 -33 199
-115 370 -48 102 -60 118 -159 217 -92 93 -118 113 -191 147 -46 22 -139 53
-207 71 -68 17 -152 42 -188 55 -115 43 -208 55 -443 55 -221 0 -260 5 -354
40 -73 27 -87 57 -87 177 0 62 8 117 26 188 21 83 27 138 36 327 13 294 9 314
-95 482 -67 107 -61 180 23 292 66 86 80 115 80 164 0 56 -27 104 -101 178
-115 117 -253 191 -394 214 -38 6 -73 14 -78 18 -18 15 148 861 253 1290 124
505 300 1002 550 1550 178 391 343 694 601 1103 188 298 509 729 743 997 116
134 514 535 655 661 405 364 912 730 1391 1007 182 105 630 330 817 411 389
168 1178 417 1538 485 332 63 661 109 1040 146 96 9 1003 5 1013 -5z m2639
-36 c23 -11 89 -65 145 -119 l102 -98 -42 -47 c-37 -42 -157 -240 -176 -289
-3 -11 -13 -87 -21 -170 -17 -182 -32 -234 -79 -286 -38 -42 -43 -64 -25 -103
18 -39 50 -47 182 -47 156 0 248 22 349 83 40 25 120 69 178 98 95 48 112 54
183 57 66 4 90 0 155 -23 42 -15 86 -34 97 -41 18 -13 15 -14 -26 -14 -62 0
-228 -43 -303 -78 -80 -38 -174 -108 -218 -163 -44 -55 -147 -235 -153 -269
-3 -14 -10 -44 -15 -68 -25 -107 4 -134 105 -97 45 16 118 20 113 6 -1 -5 -25
-25 -53 -44 -220 -154 -269 -177 -382 -177 -116 0 -169 21 -294 117 -168 127
-187 137 -295 141 -115 5 -175 -8 -291 -63 -51 -24 -93 -43 -93 -42 0 1 -13
40 -30 86 -34 96 -119 244 -180 313 -41 48 -41 48 -18 57 40 16 158 31 333 41
223 14 275 23 403 70 158 59 186 106 121 203 -37 56 -86 193 -109 309 -15 73
-17 108 -10 220 8 122 12 142 49 238 34 86 50 114 93 157 28 29 61 54 72 56
50 10 93 6 133 -14z m2138 -8 c83 -39 133 -83 203 -174 88 -115 171 -198 221
-220 79 -35 136 -7 222 109 73 98 97 122 145 140 39 15 47 15 125 -5 56 -14
144 -51 264 -110 99 -49 199 -92 221 -96 l42 -6 17 -74 c25 -107 18 -249 -18
-332 -34 -79 -35 -116 -2 -148 18 -19 35 -25 69 -25 50 0 261 42 327 65 94 34
289 9 446 -56 223 -93 437 -250 533 -390 21 -31 55 -69 74 -85 64 -53 58 -55
-119 -55 -126 1 -175 -3 -230 -18 -90 -23 -150 -38 -200 -48 -46 -9 -72 -45
-62 -84 4 -14 21 -44 39 -68 162 -209 206 -285 237 -408 12 -45 21 -112 21
-150 0 -94 -24 -259 -55 -377 -14 -54 -25 -109 -25 -123 0 -13 -6 -26 -13 -29
-7 -2 -50 11 -96 30 -111 48 -290 102 -381 114 -41 6 -114 16 -162 23 -86 12
-295 8 -331 -6 -27 -11 -73 46 -116 145 -70 160 -152 287 -252 389 -108 110
-140 131 -194 131 -82 0 -135 -63 -135 -159 0 -54 29 -197 54 -268 15 -43 15
-43 -8 -43 -31 0 -106 41 -186 101 -53 40 -72 49 -107 49 -89 0 -171 -127
-144 -224 5 -20 6 -38 1 -41 -4 -2 -30 7 -56 21 -131 69 -350 268 -430 388
-74 114 -245 317 -340 405 -89 83 -145 113 -254 137 -62 14 -82 15 -120 5 -89
-24 -198 -107 -244 -186 -15 -25 -29 -45 -31 -45 -3 0 -44 40 -92 88 -70 70
-105 97 -173 131 -81 40 -91 42 -197 48 -62 3 -113 8 -113 11 0 9 45 78 78
119 25 32 52 49 110 74 42 17 106 46 142 64 74 36 150 57 317 85 132 22 155
36 155 92 0 51 -26 94 -106 174 -101 102 -174 134 -368 164 -65 11 -87 10
-147 -3 -86 -20 -212 -78 -351 -162 -74 -45 -123 -67 -166 -76 -87 -18 -96
-12 -78 48 15 49 27 122 43 270 9 74 15 91 72 190 65 112 95 153 113 153 17 0
81 -108 110 -185 32 -87 58 -129 90 -150 31 -20 61 -12 83 22 9 14 29 38 44
53 16 15 30 44 34 66 4 21 22 92 41 157 19 66 34 130 34 143 0 19 9 28 43 43
103 45 154 51 227 24 90 -33 252 -34 400 -4 151 32 192 41 250 62 36 12 103
41 150 64 129 63 131 64 190 64 41 1 70 -6 115 -28z m1037 -2200 c35 -41 156
-273 183 -351 9 -24 24 -59 35 -77 11 -18 16 -33 12 -33 -4 0 -46 39 -93 88
-64 64 -88 96 -93 122 -3 19 -24 69 -47 113 -40 77 -63 177 -41 177 6 0 25
-18 44 -39z m1790 -475 c40 -24 116 -69 168 -99 52 -31 132 -85 177 -121 89
-71 73 -46 198 -311 56 -117 131 -330 149 -421 9 -43 22 -131 31 -195 17 -139
24 -158 65 -192 42 -36 97 -35 210 3 206 69 422 199 551 331 48 49 89 89 93
89 3 0 31 -39 62 -87 31 -49 80 -113 109 -143 66 -69 107 -130 149 -223 19
-39 57 -121 84 -182 28 -60 56 -130 61 -155 20 -91 32 -214 26 -252 -7 -39
-103 -197 -154 -251 -34 -37 -97 -69 -191 -97 -92 -28 -139 -51 -212 -104 -65
-48 -88 -81 -88 -128 1 -46 15 -67 92 -138 78 -71 139 -160 196 -285 53 -116
66 -174 52 -227 -22 -81 -91 -221 -179 -362 -122 -197 -131 -215 -131 -279 0
-74 33 -123 186 -277 117 -118 126 -130 164 -220 68 -156 110 -367 110 -555 0
-107 -35 -242 -65 -252 -6 -2 -35 68 -64 154 -63 187 -69 199 -136 283 -29 36
-73 97 -98 137 -66 102 -126 129 -184 79 -42 -36 -37 -84 22 -198 84 -164 87
-179 92 -463 4 -324 3 -328 -161 -590 -90 -143 -187 -249 -263 -286 -37 -18
-73 -24 -192 -31 -135 -8 -199 -6 -440 17 -129 13 -351 145 -351 210 0 6 22
41 50 78 71 99 93 163 87 257 -7 96 -25 148 -90 257 l-52 87 0 221 c1 210 2
225 29 320 52 187 46 391 -15 488 -38 61 -99 100 -219 138 -94 30 -98 31 -345
34 -256 3 -293 7 -425 50 -41 14 -127 38 -190 54 -154 38 -209 68 -301 161
-61 61 -85 95 -119 166 -84 177 -107 275 -74 322 26 38 187 167 312 251 164
110 217 154 247 205 33 57 43 89 60 208 15 108 19 118 90 213 178 240 206 285
224 365 14 63 1 109 -74 263 -68 139 -134 233 -200 280 -104 75 -228 145 -286
161 -129 37 -114 18 -111 142 4 165 25 287 67 384 43 102 88 149 170 175 67
21 115 15 161 -17 46 -33 201 -204 240 -265 36 -55 57 -68 98 -57 66 16 96
123 77 273 -14 106 -68 284 -107 355 -14 25 -23 50 -19 55 7 13 72 -10 153
-54 82 -45 138 -48 181 -7 25 23 84 139 135 265 8 20 20 37 25 37 6 0 43 -20
83 -44z m-1412 -91 c53 -19 100 -19 215 0 50 8 106 12 125 9 103 -17 142 -29
167 -53 46 -46 105 -130 98 -141 -4 -6 -26 -8 -60 -4 -73 9 -190 -19 -283 -67
-41 -21 -78 -36 -83 -34 -4 3 -33 41 -64 85 -30 44 -83 112 -116 150 -33 39
-56 70 -51 70 5 0 29 -7 52 -15z m-14950 -5015 c197 -17 242 -26 324 -63 71
-34 196 -135 196 -159 0 -6 -24 -43 -54 -84 -73 -100 -90 -153 -84 -265 6 -93
27 -148 110 -289 l33 -55 -1 -205 c-1 -188 -4 -214 -28 -308 -36 -141 -46
-227 -36 -332 17 -184 81 -256 285 -320 62 -19 97 -22 310 -25 275 -5 312 -8
409 -41 38 -13 123 -38 187 -54 196 -50 221 -62 322 -159 80 -76 95 -97 135
-181 51 -110 92 -223 92 -257 0 -13 -7 -37 -15 -52 -20 -40 -176 -168 -332
-272 -72 -49 -148 -103 -169 -121 -72 -64 -105 -142 -124 -296 -12 -96 -16
-105 -77 -182 -88 -113 -202 -283 -220 -328 -31 -81 -23 -142 32 -262 103
-223 165 -299 322 -396 130 -81 149 -90 227 -110 38 -9 70 -24 75 -33 9 -17
-3 -211 -20 -326 -12 -84 -80 -244 -120 -285 -33 -33 -122 -69 -190 -77 -55
-7 -92 10 -159 73 -26 25 -71 57 -100 73 -35 19 -60 42 -74 67 -19 34 -27 39
-63 42 -47 3 -55 -6 -67 -71 -10 -53 11 -220 36 -285 34 -91 111 -192 267
-346 137 -137 148 -151 139 -172 -13 -28 -31 -31 -128 -22 -41 4 -113 3 -160
-2 -191 -22 -355 -9 -440 35 -319 165 -537 304 -608 390 -16 20 -47 77 -70
128 -22 51 -58 133 -80 182 -86 197 -131 366 -157 600 -13 116 -53 165 -132
165 -63 0 -204 -50 -342 -120 -168 -86 -234 -132 -340 -237 -52 -51 -97 -93
-101 -93 -4 0 -30 39 -59 86 -29 47 -81 115 -115 152 -70 75 -123 157 -165
259 -16 37 -48 108 -70 156 -47 101 -67 177 -77 293 -8 101 1 133 77 245 82
123 117 149 257 195 126 42 236 105 286 164 24 29 27 40 23 77 -4 39 -15 54
-104 146 -85 88 -107 117 -155 213 -77 149 -95 217 -79 288 15 69 105 247 205
406 94 149 106 176 106 232 0 66 -45 133 -180 266 -99 98 -126 132 -156 192
-85 174 -117 329 -118 565 -1 156 1 175 22 228 23 56 38 67 52 36 4 -8 29 -79
55 -159 56 -172 62 -184 117 -247 23 -26 65 -85 94 -129 29 -45 65 -91 80
-103 37 -29 88 -28 119 4 40 39 34 83 -30 210 -78 155 -87 206 -86 493 l1 234
32 81 c50 122 189 338 274 425 96 97 137 114 284 122 63 4 129 7 145 8 17 1
86 -3 155 -8z m17730 -999 c0 -38 -19 -240 -40 -436 -16 -139 -47 -364 -64
-465 -8 -47 -24 -139 -36 -204 -167 -972 -478 -1893 -971 -2879 -208 -415
-414 -752 -704 -1152 -576 -794 -1183 -1415 -2026 -2071 -728 -568 -1957
-1190 -2869 -1452 -414 -120 -773 -203 -1065 -247 -55 -9 -125 -20 -155 -25
-54 -9 -239 -30 -435 -49 -130 -13 -375 -25 -375 -18 0 3 32 36 71 73 80 78
226 262 295 374 42 68 106 199 169 350 13 30 26 84 30 120 6 57 4 68 -14 91
-11 15 -33 30 -47 33 -25 7 -143 -10 -374 -51 -173 -32 -664 -13 -703 26 -5 5
68 11 180 15 277 10 718 43 873 65 36 6 103 15 150 21 573 75 1127 196 1563
341 931 311 1871 825 2562 1403 428 358 796 719 1087 1067 828 991 1400 2111
1781 3489 78 280 160 658 201 930 30 194 35 234 52 375 9 79 22 146 29 154 11
11 32 12 122 2 132 -13 387 -5 463 16 75 21 137 54 190 102 25 22 48 40 53 41
4 0 7 -17 7 -39z m-15950 -4768 c13 -21 43 -69 68 -106 52 -77 49 -87 -25 -87
-23 0 -76 -5 -118 -11 l-76 -12 -36 34 c-56 54 -135 158 -131 171 3 9 26 12
74 11 43 -2 94 5 134 16 89 25 86 26 110 -16z m272 -395 c70 -32 99 -70 189
-247 61 -120 86 -157 141 -213 79 -80 122 -108 166 -108 74 0 102 43 102 152
-1 65 -13 117 -45 191 -13 31 28 20 91 -25 109 -76 229 -116 297 -97 45 12
104 79 113 127 7 37 0 136 -11 165 -13 32 30 19 102 -30 37 -25 114 -77 170
-115 98 -66 160 -127 244 -239 19 -25 63 -78 99 -118 35 -39 81 -103 102 -141
108 -200 169 -256 321 -296 65 -18 70 -18 140 0 99 25 122 39 194 109 l62 61
73 -70 c40 -38 96 -84 123 -101 71 -45 177 -83 252 -90 42 -4 63 -10 63 -19 0
-13 -66 -64 -83 -64 -4 0 -52 -20 -106 -45 -70 -32 -148 -57 -270 -85 -94 -22
-185 -40 -202 -40 -22 0 -41 -10 -65 -34 -41 -41 -44 -78 -11 -145 29 -60 158
-188 224 -224 68 -37 191 -67 270 -67 77 0 228 36 378 92 61 22 139 49 174 60
35 11 81 29 102 40 21 11 42 17 47 14 6 -3 4 -31 -4 -68 -7 -35 -14 -85 -14
-113 -1 -100 -24 -179 -76 -265 -27 -45 -59 -93 -72 -107 -29 -31 -38 -24 -87
64 -45 80 -86 127 -124 143 -26 11 -35 9 -73 -11 -56 -32 -73 -63 -139 -259
l-56 -165 -94 -8 c-122 -10 -166 -4 -235 33 -76 40 -125 40 -165 1 -24 -24
-29 -38 -29 -78 l0 -48 -158 0 c-190 -1 -280 -21 -447 -99 -101 -47 -116 -51
-178 -50 -86 2 -141 29 -261 126 -60 49 -103 94 -132 138 -81 125 -113 145
-187 116 -23 -9 -69 -37 -102 -62 -33 -25 -98 -65 -145 -87 -76 -37 -93 -42
-155 -42 -80 1 -121 18 -208 86 -63 51 -157 94 -256 120 -41 11 -78 25 -83 32
-16 25 -8 214 12 299 37 155 20 230 -60 270 -59 30 -177 18 -313 -32 -95 -34
-159 -43 -288 -38 -107 4 -137 9 -219 37 -123 43 -133 48 -274 150 -138 98
-230 181 -283 255 -21 28 -61 80 -89 116 -54 68 -87 124 -78 133 3 3 31 -1 62
-8 31 -7 115 -23 186 -35 147 -24 181 -20 320 33 94 36 116 55 116 102 0 30
-11 47 -67 108 -123 132 -186 287 -198 483 -4 72 -3 124 2 127 5 3 36 -1 69
-10 47 -12 92 -14 229 -9 417 14 468 22 638 100 81 37 99 61 89 125 l-5 34 66
-5 c38 -3 87 -16 119 -30z m3565 -683 c31 -9 88 -42 145 -84 109 -80 131 -92
222 -120 128 -39 260 -25 411 46 72 33 80 31 95 -24 43 -159 170 -331 298
-404 84 -48 48 -59 -198 -59 -260 0 -531 -36 -621 -81 -20 -10 -50 -30 -68
-44 -29 -25 -31 -31 -31 -93 0 -37 5 -83 10 -102 57 -209 79 -390 61 -496 -11
-66 -44 -219 -62 -296 -13 -52 -67 -118 -118 -147 -43 -23 -44 -24 -95 -8 -65
21 -157 95 -209 169 l-40 57 45 43 c43 42 82 106 157 253 l35 70 7 185 c5 159
9 192 28 234 27 61 27 86 0 115 -67 72 -185 67 -356 -15 -306 -146 -612 -176
-735 -74 -35 30 -31 50 10 50 52 0 218 48 312 90 180 79 195 89 262 157 73 77
101 137 119 259 10 64 9 77 -5 99 -33 50 -86 57 -161 20 -37 -18 -66 -25 -112
-25 -74 0 -91 15 -28 25 63 9 110 30 182 81 34 24 103 64 154 89 83 41 100 45
164 45 39 0 94 -7 122 -15z m1713 -565 c36 -16 110 -48 165 -72 215 -95 308
-168 421 -333 52 -77 125 -237 164 -359 49 -152 34 -291 -79 -725 -29 -109
-14 -132 121 -188 203 -86 245 -96 468 -113 193 -14 389 -12 515 5 60 9 112
12 117 7 10 -10 -10 -47 -99 -187 -91 -143 -187 -281 -228 -326 -18 -21 -60
-78 -94 -127 -33 -50 -75 -102 -93 -115 -18 -13 -82 -43 -141 -66 -60 -23
-136 -57 -170 -76 -34 -18 -120 -52 -192 -75 -127 -41 -132 -42 -240 -37 -89
3 -129 11 -210 37 -118 38 -186 38 -276 -2 -68 -31 -94 -63 -109 -132 -6 -29
-16 -61 -23 -69 -7 -9 -48 -37 -92 -62 -68 -39 -87 -45 -136 -45 -48 0 -64 5
-115 39 -32 21 -79 60 -104 86 -56 58 -88 75 -139 75 -50 0 -82 -27 -148 -125
-65 -95 -95 -109 -236 -113 -122 -4 -131 -2 -257 69 -147 82 -154 83 -420 84
l-235 0 -85 31 c-99 35 -277 145 -362 222 -31 30 -98 104 -147 165 -73 92
-104 143 -174 287 -47 96 -89 188 -92 203 -7 25 -5 27 26 27 19 0 65 -5 103
-10 119 -18 437 34 541 87 143 74 255 187 255 258 0 45 -19 65 -93 100 -188
90 -342 198 -389 273 -32 52 -34 131 -4 246 14 55 29 103 34 108 5 5 29 -24
55 -64 51 -81 174 -226 284 -335 77 -77 194 -152 268 -173 122 -34 278 60 369
224 76 136 88 221 77 541 -7 198 -13 253 -30 314 -12 40 -20 76 -17 78 15 16
135 33 226 33 128 0 410 17 504 31 38 5 89 18 113 29 62 27 174 139 234 233
58 90 52 89 169 37z m-2574 -1320 l113 0 60 -87 c32 -49 69 -98 82 -109 56
-50 181 -124 250 -148 124 -44 124 -44 13 -116 -80 -52 -118 -62 -306 -80
-114 -11 -212 -4 -323 24 -33 8 -98 25 -145 37 -47 12 -117 37 -156 55 -39 19
-74 34 -77 34 -3 0 -41 22 -84 48 -43 27 -125 72 -183 102 -130 65 -137 70
-114 83 28 16 113 36 218 52 173 26 216 20 315 -42 78 -50 112 -53 151 -15 37
37 38 63 4 126 l-26 49 47 -6 c26 -4 99 -7 161 -7z"/>
<path d="M11745 19844 c-142 -26 -208 -56 -327 -150 -79 -64 -107 -99 -141
-176 -43 -97 -50 -149 -39 -291 9 -112 13 -132 33 -153 46 -49 84 -26 151 93
113 200 345 375 568 427 101 24 150 43 180 70 14 13 39 27 55 31 l30 7 -40 35
c-39 34 -129 80 -196 101 -60 18 -190 21 -274 6z m243 -105 c38 -15 20 -33
-48 -46 -81 -17 -245 -97 -335 -165 -38 -29 -108 -89 -154 -135 -47 -45 -89
-79 -94 -76 -12 7 -2 68 25 161 24 83 57 123 152 186 60 40 141 70 231 86 54
9 186 3 223 -11z"/>
<path d="M8840 16380 c-25 -4 -77 -22 -115 -40 -66 -31 -78 -34 -220 -40 -129
-6 -159 -10 -214 -33 -145 -59 -290 -166 -375 -275 -67 -88 -155 -254 -175
-331 l-17 -70 -150 -77 c-82 -42 -174 -91 -204 -109 -48 -29 -66 -33 -142 -37
-86 -4 -90 -6 -159 -53 -40 -27 -96 -71 -124 -97 l-53 -48 -84 52 c-76 48 -89
53 -154 56 -78 4 -128 -13 -192 -69 -62 -54 -106 -71 -171 -63 -53 6 -60 4
-74 -16 -11 -15 -13 -30 -7 -53 11 -45 20 -287 11 -287 -5 0 -28 7 -51 15 -99
35 -313 16 -432 -39 -114 -52 -256 -173 -353 -301 -51 -68 -145 -252 -145
-284 0 -46 56 -53 128 -17 46 23 200 56 261 56 l31 0 -36 -49 c-57 -81 -107
-206 -107 -271 0 -30 -5 -66 -12 -80 -21 -40 -84 -93 -174 -146 -135 -79 -180
-129 -233 -259 -80 -193 -108 -294 -108 -398 0 -44 -4 -59 -16 -64 -24 -9
-210 89 -272 143 -32 28 -64 69 -82 104 -26 52 -61 90 -81 90 -4 0 -22 -26
-40 -57 -44 -78 -72 -116 -146 -196 -49 -52 -76 -95 -124 -195 -71 -148 -93
-234 -87 -345 5 -75 6 -80 63 -163 65 -96 109 -131 208 -166 37 -12 67 -27 67
-32 0 -4 -14 -24 -30 -43 -57 -65 -130 -235 -130 -304 0 -54 46 -167 114 -278
30 -50 60 -100 66 -111 10 -18 2 -30 -71 -103 -63 -63 -90 -99 -116 -154 -51
-111 -75 -227 -76 -368 -1 -113 1 -124 32 -200 17 -44 47 -105 65 -135 l33
-55 7 -215 c10 -357 55 -708 128 -1010 142 -586 338 -1064 661 -1610 371 -627
889 -1203 1462 -1625 567 -418 1065 -672 1670 -855 485 -146 937 -224 1399
-239 l199 -6 41 -69 c56 -93 125 -142 296 -213 130 -53 138 -55 225 -54 83 0
192 12 240 26 16 5 23 -2 36 -33 13 -32 31 -48 90 -83 63 -37 82 -44 140 -47
55 -3 70 -1 86 14 10 11 41 36 70 56 l51 36 28 -34 c31 -37 98 -66 191 -84 68
-12 139 0 263 47 81 30 114 36 220 43 137 9 189 23 295 78 159 83 311 290 399
542 48 137 36 159 -82 140 -42 -6 -92 -18 -111 -26 -18 -8 -54 -14 -80 -14
-80 0 -240 51 -201 63 225 73 298 100 416 153 171 78 213 82 346 33 147 -54
179 -60 251 -50 35 5 77 16 93 24 47 25 130 99 169 150 20 26 41 47 46 47 6 0
31 -18 56 -40 56 -49 105 -63 203 -58 78 3 75 2 248 105 33 19 42 20 80 10 67
-18 92 1 109 83 8 36 12 100 11 143 l-3 78 35 -5 c110 -17 133 -17 216 -1 229
43 356 109 472 246 139 164 214 305 183 343 -18 21 -34 20 -116 -9 -79 -28
-102 -30 -192 -14 l-64 11 21 32 c12 17 35 60 53 96 27 57 31 79 36 179 l6
115 128 72 c231 132 264 163 330 320 78 186 106 296 107 412 0 38 2 42 24 42
39 0 198 -87 260 -142 35 -31 68 -73 86 -108 24 -47 75 -101 84 -88 2 2 25 41
52 86 27 46 82 120 122 165 59 65 85 105 132 203 66 136 76 169 86 266 10 101
-1 149 -53 226 -77 114 -119 148 -228 182 -67 21 -69 28 -30 71 60 67 135 236
135 306 0 51 -52 173 -127 295 l-66 108 82 84 c62 64 89 101 116 159 52 113
76 228 77 367 0 114 0 118 -41 216 -51 120 -83 172 -118 185 -34 13 -77 -4
-91 -34 -9 -21 -10 -21 -22 8 -30 75 -54 123 -80 165 -27 44 -28 48 -33 245
-23 799 -288 1723 -702 2446 -326 568 -647 988 -1058 1385 -242 233 -430 385
-760 614 -561 389 -1237 675 -1939 819 -304 63 -551 95 -833 110 l-160 9 -101
45 c-159 72 -231 91 -317 82 -40 -3 -103 -12 -140 -19 l-69 -13 -23 52 c-25
57 -54 82 -141 122 -44 20 -65 24 -100 19 -51 -7 -113 -36 -167 -78 l-37 -30
-48 50 c-49 52 -79 65 -172 75 -25 3 -65 1 -90 -3z m156 -135 c12 -8 34 -34
50 -59 32 -50 70 -72 106 -61 13 4 43 26 68 50 79 75 121 83 201 38 41 -23 51
-35 60 -68 14 -51 25 -64 74 -86 50 -23 104 -24 153 -3 20 9 75 18 122 21 95
5 138 -7 345 -99 83 -37 105 -52 133 -89 18 -24 53 -69 77 -100 54 -68 197
-290 191 -297 -3 -2 -41 1 -84 7 -127 17 -379 -1 -479 -34 -120 -40 -157 -64
-161 -103 -2 -18 4 -54 12 -80 30 -93 58 -256 53 -312 -5 -59 -56 -200 -95
-265 -51 -83 -110 -141 -180 -178 -69 -37 -228 -107 -241 -107 -4 0 -15 15
-26 33 -32 54 -108 129 -150 148 -48 21 -103 27 -290 34 -128 4 -205 12 -205
21 0 2 7 29 15 61 21 80 21 350 0 421 -18 61 -64 124 -124 169 -35 28 -51 33
-95 33 -46 0 -61 -6 -123 -47 -68 -46 -199 -184 -240 -253 -22 -37 -31 -38
-39 -2 -3 15 -10 41 -15 59 -16 52 -1 99 45 144 55 52 66 59 164 109 78 40 82
44 82 76 0 60 -102 148 -206 178 -83 25 -204 38 -271 31 -40 -4 -63 -3 -63 3
0 6 25 61 55 124 69 141 156 248 259 317 119 81 130 84 317 90 l166 6 74 39
c41 21 88 42 104 45 43 10 136 1 161 -14z m1789 -305 c310 -35 738 -132 1050
-240 521 -181 1129 -507 1530 -820 497 -389 878 -789 1229 -1290 132 -189 235
-362 352 -595 324 -645 507 -1226 608 -1925 20 -137 47 -412 42 -418 -3 -2
-20 8 -39 22 -64 49 -108 58 -285 59 -156 0 -163 1 -167 21 -2 12 -13 93 -25
181 -78 581 -292 1254 -568 1785 -259 498 -543 883 -929 1260 -295 289 -530
473 -855 670 -500 303 -1021 504 -1583 609 -284 53 -725 101 -929 101 -143 0
-90 20 70 27 114 4 162 2 270 -16 208 -34 224 -30 224 48 0 34 -14 75 -50 154
-55 121 -121 221 -210 319 -33 36 -60 68 -60 70 0 5 206 -9 325 -22z m-2611
-421 c43 -12 116 -54 116 -68 0 -5 -22 -17 -48 -25 -70 -24 -163 -95 -201
-155 l-33 -51 -91 0 c-71 0 -88 3 -79 12 7 7 12 26 12 43 0 61 -43 71 -116 29
-42 -25 -51 -26 -132 -21 -48 3 -107 12 -131 19 l-45 14 105 58 c167 94 198
107 309 138 93 25 116 28 200 23 52 -3 113 -10 134 -16z m2496 -283 c340 -32
653 -99 1030 -222 549 -177 984 -408 1445 -767 514 -400 992 -997 1300 -1622
254 -517 402 -987 509 -1625 51 -302 52 -277 -19 -314 -80 -41 -130 -82 -166
-136 -38 -56 -35 -91 16 -156 57 -76 59 -120 5 -204 -17 -26 -34 -68 -39 -94
-13 -70 -2 -259 21 -363 21 -96 19 -172 -5 -191 -28 -22 -91 -31 -242 -36 -95
-3 -180 -11 -210 -20 -27 -8 -95 -28 -150 -43 -126 -36 -192 -72 -255 -139
-58 -61 -122 -186 -146 -284 -13 -54 -14 -74 -4 -110 17 -62 98 -142 234 -231
119 -77 130 -89 141 -164 12 -76 26 -104 106 -211 92 -125 95 -139 45 -228
-40 -71 -59 -89 -143 -141 -64 -38 -78 -40 -150 -19 -17 5 -30 -2 -54 -25
l-31 -31 7 -83 c16 -209 27 -283 51 -339 13 -31 24 -63 24 -70 0 -25 -130
-205 -209 -290 -61 -65 -88 -87 -113 -91 -39 -6 -107 -36 -165 -72 -42 -25
-43 -26 -43 -5 0 11 18 40 40 64 22 24 40 53 40 64 0 47 -88 67 -167 38 -21
-8 -51 -17 -68 -21 -34 -8 -128 -64 -168 -101 -15 -14 -39 -44 -54 -67 -14
-23 -58 -79 -97 -125 -39 -46 -96 -114 -126 -152 -95 -119 -143 -141 -210 -95
-21 15 -51 44 -65 65 -46 66 -88 65 -161 -2 -44 -40 -48 -42 -112 -42 -66 -1
-69 0 -126 47 -33 27 -83 61 -110 75 -45 24 -62 27 -146 27 -90 -1 -99 -3
-165 -38 -38 -20 -89 -51 -113 -69 -57 -43 -118 -42 -215 1 -78 35 -127 39
-149 14 -8 -10 -29 -49 -46 -88 -59 -127 -79 -160 -112 -182 -47 -32 -66 -29
-95 17 -30 48 -56 63 -92 54 -82 -19 -306 -100 -358 -129 -140 -78 -288 -259
-315 -384 -17 -79 -8 -295 15 -369 9 -29 13 -57 10 -62 -10 -16 -490 -12 -671
6 -705 69 -1399 294 -1974 639 -376 226 -685 469 -985 777 -171 173 -225 236
-381 443 -204 269 -370 542 -519 850 -210 433 -320 750 -425 1222 -39 176
-110 540 -110 566 0 3 21 7 48 11 107 14 253 115 286 197 20 49 15 67 -35 138
-45 63 -50 107 -19 161 59 102 62 115 61 259 -1 96 -7 160 -21 219 -21 89 -24
121 -14 172 11 52 49 62 264 71 134 5 197 11 230 23 25 9 85 28 134 42 120 34
170 62 238 131 87 88 158 247 158 353 0 97 -53 158 -248 284 -57 36 -107 76
-112 88 -5 13 -16 56 -24 96 -13 64 -23 84 -84 165 -114 153 -108 138 -83 200
36 88 80 138 164 185 74 41 76 42 120 30 55 -14 92 -1 107 37 9 24 3 146 -16
315 -7 63 -66 210 -95 236 -37 33 -24 54 122 197 l141 137 54 0 c64 0 137 26
196 69 23 17 44 29 46 26 3 -2 -13 -28 -35 -57 -56 -74 -60 -92 -28 -123 28
-29 48 -29 187 2 153 33 411 254 515 440 41 74 54 89 91 105 58 26 89 17 147
-42 65 -66 95 -66 174 2 33 29 37 30 120 26 74 -3 91 -7 121 -29 19 -15 64
-42 100 -60 58 -30 74 -34 145 -34 90 0 119 12 197 76 58 49 89 61 158 61 41
1 76 -8 139 -35 99 -42 111 -39 137 30 36 101 52 130 101 183 28 30 67 64 87
74 l36 19 25 -23 c14 -13 30 -41 35 -62 13 -48 40 -62 102 -55 56 7 241 85
313 133 143 94 267 262 307 414 32 122 32 285 0 354 -12 27 -22 53 -22 59 0
14 466 2 670 -17z m-3343 -12 c99 -44 144 -55 256 -61 106 -6 107 -6 107 -31
0 -33 27 -62 57 -62 13 0 41 9 63 20 46 23 171 28 187 8 6 -7 22 -53 37 -101
31 -100 67 -149 109 -149 35 0 53 15 89 80 17 29 35 51 41 49 5 -1 26 -31 47
-64 32 -53 39 -75 48 -159 6 -54 10 -99 9 -100 -1 -1 -42 14 -92 33 -218 82
-319 98 -422 68 -135 -40 -253 -203 -180 -249 12 -7 69 -24 127 -36 116 -24
290 -90 290 -109 0 -4 -26 -12 -58 -19 -64 -13 -137 -54 -194 -110 l-38 -36
-37 37 c-40 38 -106 67 -154 67 -15 0 -53 -9 -84 -21 -60 -22 -87 -50 -145
-148 -19 -33 -72 -104 -117 -159 -64 -78 -104 -115 -179 -167 -127 -88 -128
-88 -119 -37 24 145 -100 187 -248 85 -20 -14 -39 -24 -42 -22 -2 3 2 23 10
44 17 49 18 85 4 122 -37 99 -155 25 -252 -161 -58 -111 -84 -136 -151 -143
-42 -5 -46 -4 -46 16 0 41 -20 59 -97 89 -70 27 -95 31 -243 38 -184 10 -170
10 -227 0 l-43 -6 0 63 c0 103 40 203 115 287 69 78 59 101 -57 141 -70 25
-80 24 -272 -8 l-40 -6 35 47 c114 160 262 284 389 328 93 32 221 32 310 -1
37 -13 90 -24 123 -25 53 -1 61 2 84 28 22 25 24 35 19 80 -3 28 -9 94 -12
146 l-6 95 75 23 c45 13 94 36 122 58 104 79 160 73 314 -30 80 -54 102 -49
160 36 32 48 89 99 151 137 47 28 106 27 177 -5z m1243 -30 c16 -19 32 -44 34
-57 3 -12 13 -58 22 -101 19 -92 15 -238 -10 -321 -8 -27 -16 -70 -18 -94 -2
-37 2 -47 25 -67 53 -45 214 -74 419 -74 60 0 110 -4 113 -10 3 -5 2 -10 -4
-10 -16 0 -80 -59 -122 -112 -20 -26 -45 -71 -54 -100 -10 -29 -19 -55 -21
-56 -1 -2 -33 8 -70 23 -57 23 -79 26 -143 23 -86 -4 -134 -23 -223 -90 -49
-35 -66 -42 -116 -46 -51 -4 -67 0 -123 28 -35 18 -77 43 -94 55 -16 13 -46
30 -65 38 l-35 16 35 -6 c19 -3 40 -10 47 -15 17 -14 70 -13 88 2 39 33 5 171
-59 234 -48 48 -179 108 -288 133 l-72 16 23 18 c41 34 98 43 179 30 82 -14
185 -47 252 -81 52 -27 156 -38 188 -21 27 14 37 52 22 81 -6 12 -15 77 -19
144 -7 126 -8 129 -71 241 -12 22 -33 52 -47 67 l-25 26 43 48 c47 51 109 85
140 77 10 -3 32 -21 49 -39z m-2514 -1498 c2 -6 -42 -58 -99 -116 -66 -68
-111 -123 -126 -155 -28 -59 -43 -154 -35 -212 6 -38 9 -43 32 -43 18 0 39 13
63 38 20 20 55 51 79 67 90 63 83 61 143 42 65 -21 80 -35 112 -114 25 -62 52
-261 37 -274 -4 -3 -26 -11 -50 -18 -61 -17 -188 -98 -227 -144 -34 -40 -107
-181 -119 -230 -12 -48 12 -103 95 -218 75 -105 81 -117 94 -191 7 -43 23 -93
35 -112 12 -20 63 -64 123 -104 126 -87 217 -167 217 -193 0 -46 -66 -183
-114 -236 -58 -64 -95 -85 -202 -112 -44 -11 -99 -28 -124 -37 -33 -12 -91
-17 -218 -20 -156 -4 -179 -7 -234 -29 -34 -14 -70 -33 -81 -42 -59 -52 -73
-176 -37 -325 14 -57 20 -118 20 -196 0 -113 0 -113 -39 -185 -65 -118 -65
-197 0 -286 16 -23 29 -47 29 -55 0 -21 -57 -66 -119 -93 -48 -21 -74 -25
-225 -30 -190 -6 -212 -2 -279 56 -40 36 -126 166 -163 246 -22 48 -25 67 -25
202 -1 161 6 203 52 293 33 64 37 101 13 124 -36 37 -81 15 -130 -62 -20 -31
-48 -71 -63 -87 -14 -17 -41 -74 -60 -127 -18 -54 -37 -96 -41 -93 -19 12 -32
110 -26 184 18 199 58 295 170 411 90 92 115 140 98 188 -5 16 -31 62 -57 102
-70 109 -125 228 -125 270 0 58 71 192 140 264 48 50 60 69 60 95 0 52 -65
102 -183 141 -82 27 -112 51 -160 128 -40 65 -44 91 -26 185 15 82 118 296
171 354 24 27 56 67 71 91 15 23 30 42 33 42 2 0 28 -24 57 -53 83 -85 277
-189 379 -203 54 -7 95 20 102 69 36 236 56 302 144 487 46 95 83 131 222 210
41 24 101 58 132 76 31 18 65 34 75 37 10 3 100 5 201 5 129 0 185 -3 188 -12z
m145 -116 c22 0 39 -4 39 -9 0 -5 -14 -33 -32 -61 -32 -52 -32 -52 -73 -45
-22 5 -60 11 -85 14 l-45 6 40 45 c53 60 56 61 89 55 16 -3 46 -5 67 -5z
m9264 -2990 c65 -40 155 -161 210 -283 26 -56 27 -62 23 -225 l-3 -167 -37
-79 c-45 -92 -48 -129 -14 -151 29 -19 66 -8 93 30 10 14 41 57 69 95 35 48
60 98 84 166 l34 98 14 -34 c20 -48 18 -205 -4 -300 -27 -122 -57 -176 -143
-265 -90 -92 -115 -134 -108 -180 3 -17 35 -79 71 -137 84 -137 120 -221 113
-268 -8 -62 -68 -172 -128 -235 -74 -79 -84 -98 -67 -132 20 -42 90 -89 175
-117 94 -32 100 -36 151 -110 50 -71 57 -100 43 -187 -15 -91 -117 -307 -175
-369 -23 -25 -55 -67 -71 -93 l-28 -49 -56 55 c-65 63 -91 81 -185 132 -90 48
-169 75 -222 75 -58 0 -73 -24 -90 -148 -17 -116 -49 -217 -118 -371 -47 -106
-56 -119 -109 -160 -33 -26 -100 -69 -150 -98 l-90 -52 -46 92 c-57 114 -72
121 -167 74 -35 -17 -66 -29 -69 -26 -3 3 6 31 19 62 34 75 60 207 52 261 -8
51 -44 91 -74 82 -11 -4 -31 -23 -45 -44 -13 -20 -52 -65 -85 -99 -52 -55 -65
-63 -97 -63 -110 0 -162 88 -180 307 l-6 81 51 15 c68 20 180 89 228 141 22
24 59 83 82 132 47 97 53 149 26 202 -16 31 -116 174 -142 203 -8 9 -21 52
-29 97 -22 126 -31 139 -175 237 -47 32 -111 81 -144 109 -55 47 -58 52 -53
87 3 20 22 74 44 120 48 103 114 167 195 192 239 72 266 77 413 77 149 0 214
12 286 52 83 46 109 169 70 331 -15 65 -21 121 -21 209 0 120 0 121 35 178 43
70 61 152 45 209 -6 21 -26 62 -46 91 l-35 51 33 31 c79 75 199 101 413 91 83
-4 117 -9 140 -23z m-10935 -242 c40 -95 124 -226 186 -291 80 -86 120 -101
281 -105 l132 -4 5 -31 c3 -18 8 -63 11 -102 35 -395 185 -953 385 -1425 374
-886 1048 -1704 1835 -2225 343 -227 686 -400 1075 -541 287 -105 727 -205
1085 -248 139 -17 429 -36 595 -39 108 -2 113 -3 75 -14 -22 -7 -109 -18 -194
-24 -153 -11 -154 -11 -260 17 -160 41 -175 27 -110 -104 24 -48 72 -131 107
-186 35 -54 62 -100 60 -101 -7 -6 -336 15 -458 30 -375 45 -682 112 -1073
235 -408 128 -938 384 -1332 645 -807 533 -1465 1265 -1879 2093 -351 702
-548 1458 -585 2247 -7 165 -6 194 7 217 9 15 18 25 21 23 2 -3 16 -33 31 -67z
m9595 -3104 c34 -16 83 -29 121 -32 35 -2 64 -7 64 -9 0 -2 -14 -22 -31 -43
-41 -51 -103 -66 -204 -50 -38 6 -82 8 -98 4 l-30 -6 22 28 c12 16 38 52 59
81 20 29 38 52 38 53 1 0 27 -12 59 -26z m471 -171 c3 -16 13 -53 21 -83 21
-71 23 -270 5 -322 -13 -37 -82 -145 -129 -202 -16 -19 -23 -39 -21 -59 3 -29
6 -31 98 -53 65 -16 124 -24 188 -24 l94 0 -46 -51 c-25 -28 -46 -54 -46 -58
0 -12 -120 -106 -178 -140 -81 -48 -169 -81 -247 -93 -62 -9 -79 -8 -145 10
-101 29 -181 37 -208 23 -26 -14 -29 -52 -7 -104 17 -41 20 -162 5 -201 -5
-14 -16 -26 -25 -26 -8 0 -57 -22 -108 -49 -115 -60 -218 -94 -250 -82 -24 10
-61 48 -96 99 -29 42 -74 65 -111 57 -28 -6 -95 -71 -172 -167 -42 -52 -108
-88 -161 -88 -22 0 -69 16 -119 40 -144 68 -366 102 -462 70 -41 -13 -114 -7
-138 13 -8 7 -27 59 -43 117 -25 98 -53 151 -90 172 -22 13 -61 -29 -85 -89
-27 -67 -58 -115 -70 -108 -4 2 -26 36 -49 74 -35 60 -43 83 -55 173 -8 57
-18 112 -22 122 -7 17 -4 19 30 13 21 -3 73 -27 115 -52 43 -25 107 -57 142
-71 56 -23 74 -26 139 -21 100 7 160 30 219 83 61 54 88 107 72 140 -6 13 -21
25 -33 28 -13 2 -62 11 -109 20 -119 22 -268 91 -298 139 -11 19 -21 37 -21
39 0 3 29 8 65 11 80 8 133 34 206 104 l58 55 15 -30 c8 -16 39 -47 68 -68 48
-36 58 -39 113 -38 76 2 118 20 185 81 52 47 210 236 210 252 0 15 138 144
201 188 l64 44 5 -43 c7 -51 22 -81 52 -102 34 -24 59 -19 116 23 49 37 89 57
97 49 2 -1 -6 -39 -17 -83 -23 -95 -19 -141 17 -172 47 -41 90 -26 171 59 56
58 107 139 153 240 16 36 35 68 42 70 7 2 40 1 74 -3 90 -11 286 20 405 64 52
19 98 36 102 36 4 1 10 -11 14 -26z m-751 -85 c-11 -35 -95 -201 -111 -217
-25 -27 -28 -1 -5 52 13 28 29 67 35 85 11 27 71 102 84 102 2 0 0 -10 -3 -22z
m-1818 -432 c53 -25 156 -97 148 -104 -2 -2 -27 2 -54 9 -69 17 -78 8 -63 -66
25 -124 137 -263 245 -303 28 -11 79 -25 112 -32 l60 -13 -34 -14 c-93 -39
-151 -27 -295 59 -73 44 -156 68 -241 68 -98 0 -128 -41 -80 -109 21 -31 28
-59 39 -152 12 -101 18 -121 51 -179 21 -36 49 -77 63 -93 l26 -27 -40 -41
c-102 -107 -162 -125 -219 -65 -52 55 -78 143 -79 266 -1 86 3 118 23 175 13
39 32 82 42 97 19 27 24 54 13 82 -3 8 -41 29 -85 46 -64 24 -104 32 -206 40
-140 11 -214 19 -225 27 -5 2 5 21 22 41 33 42 100 167 100 187 0 27 22 27 80
1 72 -32 141 -42 196 -27 22 6 76 37 120 70 43 32 93 63 109 69 51 18 116 14
172 -12z m-973 -391 c82 -46 213 -75 384 -85 74 -4 139 -13 144 -18 8 -8 1
-33 -23 -84 -33 -72 -34 -75 -33 -213 0 -135 1 -143 33 -224 38 -95 87 -151
157 -182 37 -17 52 -18 103 -10 33 5 70 15 83 22 46 24 148 111 213 182 l66
72 -4 -48 c-3 -34 -15 -63 -38 -97 -36 -50 -151 -144 -206 -166 -35 -15 -63
-49 -63 -76 0 -10 18 -38 40 -62 78 -85 308 -162 443 -149 48 4 67 3 67 -6 0
-6 -31 -67 -69 -134 -83 -146 -141 -207 -251 -260 -59 -29 -91 -38 -150 -42
-124 -10 -197 -26 -348 -76 -211 -71 -273 -66 -363 32 -54 59 -63 59 -138 1
-50 -38 -136 -82 -162 -82 -31 0 -100 60 -119 105 -29 67 -39 69 -213 54 -144
-12 -155 -12 -260 9 -202 42 -282 95 -425 286 -99 132 -197 289 -183 294 5 2
34 -4 63 -13 77 -23 203 -30 284 -16 185 33 285 77 332 145 27 40 28 84 3 156
-10 31 -24 118 -32 198 -16 179 -10 203 72 312 96 128 210 202 389 254 l85 24
28 -34 c16 -18 57 -50 91 -69z m1404 -700 c2 -2 -96 -48 -175 -81 l-32 -14 32
55 32 55 70 -6 c39 -4 71 -8 73 -9z"/>
<path d="M9150 16001 c-54 -7 -131 -41 -180 -80 l-25 -21 33 0 c17 0 32 -4 32
-8 0 -12 62 -40 106 -48 125 -23 275 -133 340 -250 39 -71 66 -86 96 -57 29
30 30 200 1 263 -38 85 -163 179 -258 194 -76 13 -90 13 -145 7z m183 -87 c26
-9 67 -35 92 -57 36 -34 48 -53 60 -101 8 -33 13 -62 10 -64 -2 -3 -38 27 -79
65 -78 73 -184 136 -248 148 -21 4 -38 11 -38 15 0 24 128 20 203 -6z"/>
<path d="M6982 14789 c-71 -12 -209 -70 -274 -116 -81 -56 -188 -164 -188
-189 0 -12 6 -24 13 -27 16 -6 203 35 279 62 85 30 189 95 256 162 33 32 69
59 79 59 29 0 57 25 50 44 -5 13 -20 16 -84 15 -43 -1 -102 -5 -131 -10z m-5
-123 c-95 -63 -225 -119 -310 -133 -39 -6 -41 -5 -28 11 61 74 290 185 380
186 l54 0 -96 -64z"/>
<path d="M5456 12321 c-36 -37 -42 -39 -95 -38 -98 2 -195 -58 -239 -147 -13
-25 -30 -80 -39 -122 -15 -73 -14 -81 5 -163 24 -99 28 -154 17 -263 -7 -76
-7 -78 18 -89 21 -10 31 -8 59 8 97 56 190 269 295 673 8 30 22 62 32 70 37
32 53 67 41 89 -17 32 -52 26 -94 -18z m-106 -141 c0 -6 -6 -21 -14 -33 -8
-12 -28 -86 -44 -164 -30 -138 -66 -243 -83 -243 -5 0 -9 10 -9 23 0 12 -9 55
-20 96 -18 69 -19 78 -5 138 23 100 52 142 120 177 35 18 55 20 55 6z"/>
<path d="M15129 9173 c-32 -22 -67 -64 -97 -117 -34 -59 -108 -252 -131 -341
-11 -44 -27 -100 -36 -125 -9 -25 -20 -65 -26 -89 -5 -25 -25 -61 -44 -84 -19
-22 -35 -46 -35 -53 0 -13 27 -44 38 -44 10 0 51 28 82 55 19 17 42 24 93 28
125 9 218 91 252 222 19 74 19 167 1 231 -24 83 -29 158 -15 230 15 74 7 97
-32 102 -13 1 -36 -6 -50 -15z m1 -309 c24 -93 27 -133 10 -194 -21 -79 -54
-124 -114 -156 -30 -16 -58 -26 -61 -23 -3 4 3 22 14 40 10 19 29 84 41 144
12 61 26 126 32 145 15 49 50 131 54 127 2 -2 13 -39 24 -83z"/>
<path d="M13645 6206 c-55 -13 -125 -34 -155 -46 -83 -32 -191 -103 -243 -159
-32 -34 -60 -54 -87 -61 -29 -8 -40 -16 -40 -30 0 -28 25 -31 142 -21 135 12
258 58 373 142 89 64 168 150 163 177 -5 25 -39 24 -153 -2z m39 -60 c-10 -26
-148 -114 -236 -150 -75 -31 -198 -58 -198 -44 0 3 39 32 86 64 106 71 242
127 346 143 4 1 5 -5 2 -13z"/>
<path d="M10758 5138 c-8 -14 -13 -59 -13 -118 0 -87 3 -100 30 -150 36 -66
127 -142 199 -167 34 -12 83 -17 146 -18 85 0 100 3 145 27 28 15 61 36 75 47
21 17 22 21 7 21 -10 0 -30 9 -45 20 -15 11 -64 30 -109 43 -142 41 -264 133
-334 252 -27 46 -41 61 -61 63 -19 2 -30 -3 -40 -20z m145 -213 c76 -69 174
-126 249 -145 26 -7 45 -16 42 -21 -9 -14 -136 -10 -192 6 -28 9 -73 33 -100
54 -41 33 -51 48 -65 98 -27 93 -27 93 66 8z"/>
<path d="M15283 17810 c-15 -6 -23 -18 -23 -34 0 -26 14 -32 104 -51 15 -3 38
-18 50 -33 44 -55 143 -145 211 -191 164 -112 328 -177 572 -227 70 -14 138
-28 151 -31 28 -7 52 13 52 42 0 32 -143 186 -233 252 -40 29 -91 66 -114 83
-43 32 -191 100 -314 145 -98 35 -407 65 -456 45z m437 -133 c151 -58 260
-113 350 -174 105 -72 160 -120 160 -140 0 -16 -2 -16 -92 1 -158 31 -412 145
-542 243 -33 24 -79 56 -103 70 -24 14 -41 28 -39 32 2 3 48 3 103 0 69 -5
117 -14 163 -32z"/>
<path d="M18072 13664 c-37 -26 -28 -62 32 -131 59 -68 58 -65 81 -168 9 -38
27 -101 40 -138 14 -38 38 -121 55 -185 36 -143 61 -217 135 -397 67 -164 120
-257 188 -332 77 -84 136 -104 178 -62 23 23 23 68 -1 188 -16 81 -2 236 34
371 32 117 33 198 5 328 -35 163 -105 275 -210 337 -96 56 -169 77 -261 74
l-78 -3 -58 56 c-53 52 -89 78 -109 78 -5 0 -19 -7 -31 -16z m394 -274 c120
-54 179 -133 224 -300 25 -95 24 -179 -5 -262 -9 -25 -24 -86 -34 -134 -9 -48
-22 -89 -28 -91 -9 -3 -75 142 -102 227 -6 20 -31 129 -55 243 -35 160 -52
220 -75 261 -17 29 -31 63 -31 75 0 26 10 24 106 -19z"/>
<path d="M1695 8285 c-29 -28 -31 -56 -9 -133 23 -77 14 -297 -16 -397 -36
-121 -42 -193 -25 -292 37 -212 109 -336 239 -407 83 -47 156 -66 245 -66 l76
0 63 -59 c68 -63 100 -78 132 -61 34 18 36 56 4 101 -15 22 -36 45 -46 50 -26
14 -46 58 -63 136 -8 37 -23 95 -35 128 -12 33 -41 134 -66 225 -25 92 -78
247 -120 350 -97 242 -156 339 -247 412 -58 45 -97 49 -132 13z m184 -380 c47
-96 94 -251 131 -435 34 -167 48 -216 76 -266 30 -54 43 -94 29 -94 -20 0
-130 49 -173 77 -78 52 -114 111 -151 252 -29 106 -28 176 2 276 14 44 27 100
31 125 13 86 18 101 29 97 7 -2 18 -16 26 -32z"/>
<path d="M4091 3282 c-16 -12 -22 -24 -17 -38 10 -32 207 -227 276 -274 36
-24 83 -56 105 -70 46 -31 289 -132 355 -148 76 -19 351 -35 383 -23 29 11 36
41 14 60 -11 8 -100 31 -123 31 -2 0 -18 20 -36 44 -19 24 -63 68 -98 98 -187
157 -363 238 -649 298 -75 15 -148 31 -162 35 -17 4 -32 0 -48 -13z m249 -108
c187 -38 412 -141 568 -261 25 -19 63 -43 85 -54 63 -33 36 -43 -80 -31 -99
10 -109 13 -338 110 -114 48 -344 219 -329 244 7 11 7 11 94 -8z"/>
<path d="M9117 1468 c-12 -13 -44 -63 -71 -111 -100 -179 -350 -367 -540 -407
-91 -19 -168 -48 -196 -74 -14 -14 -37 -28 -52 -31 -16 -4 -28 -9 -28 -12 0
-14 67 -60 138 -94 112 -54 221 -67 360 -44 153 26 214 56 357 172 48 39 68
65 101 131 54 107 65 170 54 316 -9 120 -18 149 -50 166 -29 15 -49 12 -73
-12z m3 -282 c0 -25 -11 -81 -25 -125 -23 -71 -31 -85 -81 -130 -95 -84 -201
-129 -344 -146 -66 -8 -178 9 -198 29 -17 16 -21 14 81 36 135 29 345 164 492
317 33 34 63 62 68 63 4 0 7 -20 7 -44z"/>
</g>
</svg>
